%TF.GenerationSoftware,KiCad,Pcbnew,(5.1.8)-1*%
%TF.CreationDate,2020-12-12T20:42:25+01:00*%
%TF.ProjectId,NRF24Stick,4e524632-3453-4746-9963-6b2e6b696361,rev?*%
%TF.SameCoordinates,Original*%
%TF.FileFunction,Copper,L3,Inr*%
%TF.FilePolarity,Positive*%
%FSLAX46Y46*%
G04 Gerber Fmt 4.6, Leading zero omitted, Abs format (unit mm)*
G04 Created by KiCad (PCBNEW (5.1.8)-1) date 2020-12-12 20:42:25*
%MOMM*%
%LPD*%
G01*
G04 APERTURE LIST*
%TA.AperFunction,ComponentPad*%
%ADD10O,2.500000X1.200000*%
%TD*%
%TA.AperFunction,ComponentPad*%
%ADD11O,2.200000X1.200000*%
%TD*%
%TA.AperFunction,ComponentPad*%
%ADD12O,1.000000X1.000000*%
%TD*%
%TA.AperFunction,ComponentPad*%
%ADD13R,1.000000X1.000000*%
%TD*%
%TA.AperFunction,ViaPad*%
%ADD14C,0.600000*%
%TD*%
%TA.AperFunction,ViaPad*%
%ADD15C,0.800000*%
%TD*%
%TA.AperFunction,ViaPad*%
%ADD16C,0.500000*%
%TD*%
%TA.AperFunction,Conductor*%
%ADD17C,0.250000*%
%TD*%
%TA.AperFunction,Conductor*%
%ADD18C,0.100000*%
%TD*%
G04 APERTURE END LIST*
D10*
%TO.N,Net-(J2-PadS1)*%
%TO.C,J2*%
X110900000Y-111180000D03*
X110900000Y-119820000D03*
D11*
X114725000Y-119820000D03*
X114725000Y-111180000D03*
%TD*%
D12*
%TO.N,/NRST*%
%TO.C,J1*%
X119170000Y-120770000D03*
%TO.N,GND*%
X119170000Y-119500000D03*
%TO.N,N/C*%
X120440000Y-120770000D03*
X120440000Y-119500000D03*
X121710000Y-120770000D03*
%TO.N,GND*%
X121710000Y-119500000D03*
%TO.N,/SWCLK*%
X122980000Y-120770000D03*
%TO.N,GND*%
X122980000Y-119500000D03*
%TO.N,/SWDIO*%
X124250000Y-120770000D03*
D13*
%TO.N,+3V3*%
X124250000Y-119500000D03*
%TD*%
D14*
%TO.N,GND*%
X137100000Y-114400000D03*
X137100000Y-115800000D03*
X137800000Y-115100000D03*
X136400000Y-115100000D03*
X129300000Y-116100000D03*
X130500000Y-116100000D03*
X130500000Y-114900000D03*
D15*
X150000000Y-111500000D03*
X148750000Y-111500000D03*
X147500000Y-111500000D03*
D14*
X129900000Y-110199992D03*
X132300030Y-109500000D03*
X124200000Y-109800000D03*
X117200000Y-119000000D03*
X121250000Y-116500000D03*
D15*
X116149997Y-118600007D03*
X115862618Y-112235285D03*
D14*
X134500000Y-112000000D03*
X137201483Y-118150503D03*
X134750000Y-118250000D03*
D15*
X123500000Y-112250000D03*
X121899976Y-113600024D03*
X124125013Y-115625013D03*
D14*
X140900002Y-121200002D03*
X135700000Y-120050000D03*
X144100000Y-117000000D03*
X144100000Y-118000000D03*
X145500000Y-113400000D03*
D15*
X148750000Y-119500000D03*
X147500000Y-119500000D03*
X150000000Y-119500000D03*
D14*
X119192788Y-114465209D03*
X139000000Y-110299978D03*
X140599998Y-111000000D03*
D15*
X137700000Y-109800000D03*
D14*
X126699994Y-119199994D03*
X129300000Y-114900000D03*
X132530027Y-110230027D03*
X133500000Y-110199980D03*
X140000000Y-114173428D03*
D15*
X145900000Y-118300000D03*
D14*
%TO.N,+3V3*%
X130800000Y-111200000D03*
D15*
X125500000Y-112250000D03*
X125625001Y-115625001D03*
D14*
X135750000Y-119000000D03*
X140600000Y-112000000D03*
D15*
X136200000Y-109800000D03*
D14*
X128800000Y-119200000D03*
X131569976Y-110230000D03*
D16*
%TO.N,/NRST*%
X130800000Y-112100000D03*
D14*
%TO.N,+5V*%
X121250000Y-115463972D03*
X113400000Y-114094998D03*
%TO.N,/SPI_SCK*%
X134000000Y-116900000D03*
X133992941Y-115192836D03*
%TD*%
D17*
%TO.N,+3V3*%
X149713284Y-105922831D02*
X149918447Y-105984773D01*
X150107668Y-106085384D01*
X150273749Y-106220837D01*
X150410350Y-106385959D01*
X150512282Y-106574478D01*
X150575653Y-106779196D01*
X150600000Y-107010845D01*
X150600000Y-111003984D01*
X150494034Y-110898018D01*
X150367100Y-110813204D01*
X150226059Y-110754783D01*
X150076331Y-110725000D01*
X149923669Y-110725000D01*
X149773941Y-110754783D01*
X149632900Y-110813204D01*
X149505966Y-110898018D01*
X149398018Y-111005966D01*
X149375000Y-111040415D01*
X149351982Y-111005966D01*
X149244034Y-110898018D01*
X149117100Y-110813204D01*
X148976059Y-110754783D01*
X148826331Y-110725000D01*
X148673669Y-110725000D01*
X148523941Y-110754783D01*
X148382900Y-110813204D01*
X148255966Y-110898018D01*
X148148018Y-111005966D01*
X148125000Y-111040415D01*
X148101982Y-111005966D01*
X147994034Y-110898018D01*
X147867100Y-110813204D01*
X147726059Y-110754783D01*
X147576331Y-110725000D01*
X147423669Y-110725000D01*
X147273941Y-110754783D01*
X147132900Y-110813204D01*
X147005966Y-110898018D01*
X146898018Y-111005966D01*
X146813204Y-111132900D01*
X146754783Y-111273941D01*
X146725000Y-111423669D01*
X146725000Y-111576331D01*
X146754783Y-111726059D01*
X146813204Y-111867100D01*
X146898018Y-111994034D01*
X147005966Y-112101982D01*
X147132900Y-112186796D01*
X147273941Y-112245217D01*
X147423669Y-112275000D01*
X147576331Y-112275000D01*
X147726059Y-112245217D01*
X147867100Y-112186796D01*
X147994034Y-112101982D01*
X148101982Y-111994034D01*
X148125000Y-111959585D01*
X148148018Y-111994034D01*
X148255966Y-112101982D01*
X148382900Y-112186796D01*
X148523941Y-112245217D01*
X148673669Y-112275000D01*
X148826331Y-112275000D01*
X148976059Y-112245217D01*
X149117100Y-112186796D01*
X149244034Y-112101982D01*
X149351982Y-111994034D01*
X149375000Y-111959585D01*
X149398018Y-111994034D01*
X149505966Y-112101982D01*
X149632900Y-112186796D01*
X149773941Y-112245217D01*
X149923669Y-112275000D01*
X150076331Y-112275000D01*
X150226059Y-112245217D01*
X150367100Y-112186796D01*
X150494034Y-112101982D01*
X150600000Y-111996016D01*
X150600001Y-119003985D01*
X150494034Y-118898018D01*
X150367100Y-118813204D01*
X150226059Y-118754783D01*
X150076331Y-118725000D01*
X149923669Y-118725000D01*
X149773941Y-118754783D01*
X149632900Y-118813204D01*
X149505966Y-118898018D01*
X149398018Y-119005966D01*
X149375000Y-119040415D01*
X149351982Y-119005966D01*
X149244034Y-118898018D01*
X149117100Y-118813204D01*
X148976059Y-118754783D01*
X148826331Y-118725000D01*
X148673669Y-118725000D01*
X148523941Y-118754783D01*
X148382900Y-118813204D01*
X148255966Y-118898018D01*
X148148018Y-119005966D01*
X148125000Y-119040415D01*
X148101982Y-119005966D01*
X147994034Y-118898018D01*
X147867100Y-118813204D01*
X147726059Y-118754783D01*
X147576331Y-118725000D01*
X147423669Y-118725000D01*
X147273941Y-118754783D01*
X147132900Y-118813204D01*
X147005966Y-118898018D01*
X146898018Y-119005966D01*
X146813204Y-119132900D01*
X146754783Y-119273941D01*
X146725000Y-119423669D01*
X146725000Y-119576331D01*
X146754783Y-119726059D01*
X146813204Y-119867100D01*
X146898018Y-119994034D01*
X147005966Y-120101982D01*
X147132900Y-120186796D01*
X147273941Y-120245217D01*
X147423669Y-120275000D01*
X147576331Y-120275000D01*
X147726059Y-120245217D01*
X147867100Y-120186796D01*
X147994034Y-120101982D01*
X148101982Y-119994034D01*
X148125000Y-119959585D01*
X148148018Y-119994034D01*
X148255966Y-120101982D01*
X148382900Y-120186796D01*
X148523941Y-120245217D01*
X148673669Y-120275000D01*
X148826331Y-120275000D01*
X148976059Y-120245217D01*
X149117100Y-120186796D01*
X149244034Y-120101982D01*
X149351982Y-119994034D01*
X149375000Y-119959585D01*
X149398018Y-119994034D01*
X149505966Y-120101982D01*
X149632900Y-120186796D01*
X149773941Y-120245217D01*
X149923669Y-120275000D01*
X150076331Y-120275000D01*
X150226059Y-120245217D01*
X150367100Y-120186796D01*
X150494034Y-120101982D01*
X150600001Y-119996015D01*
X150600001Y-123980427D01*
X150577169Y-124213284D01*
X150515227Y-124418447D01*
X150414616Y-124607668D01*
X150279166Y-124773746D01*
X150114040Y-124910350D01*
X149925522Y-125012282D01*
X149720803Y-125075653D01*
X149489155Y-125100000D01*
X110519563Y-125100000D01*
X110286716Y-125077169D01*
X110081553Y-125015227D01*
X109892332Y-124914616D01*
X109726254Y-124779166D01*
X109589650Y-124614040D01*
X109487718Y-124425522D01*
X109424347Y-124220803D01*
X109400000Y-123989155D01*
X109400000Y-120298082D01*
X109435395Y-120364302D01*
X109557235Y-120512765D01*
X109705698Y-120634605D01*
X109875079Y-120725140D01*
X110058867Y-120780892D01*
X110202108Y-120795000D01*
X111597892Y-120795000D01*
X111741133Y-120780892D01*
X111924921Y-120725140D01*
X112094302Y-120634605D01*
X112242765Y-120512765D01*
X112364605Y-120364302D01*
X112455140Y-120194921D01*
X112510892Y-120011133D01*
X112529717Y-119820000D01*
X113245283Y-119820000D01*
X113264108Y-120011133D01*
X113319860Y-120194921D01*
X113410395Y-120364302D01*
X113532235Y-120512765D01*
X113680698Y-120634605D01*
X113850079Y-120725140D01*
X114033867Y-120780892D01*
X114177108Y-120795000D01*
X115272892Y-120795000D01*
X115416133Y-120780892D01*
X115599921Y-120725140D01*
X115769302Y-120634605D01*
X115917765Y-120512765D01*
X116039605Y-120364302D01*
X116130140Y-120194921D01*
X116185892Y-120011133D01*
X116204717Y-119820000D01*
X116185892Y-119628867D01*
X116130140Y-119445079D01*
X116092686Y-119375007D01*
X116226328Y-119375007D01*
X116376056Y-119345224D01*
X116517097Y-119286803D01*
X116572774Y-119249601D01*
X116601823Y-119319732D01*
X116675693Y-119430287D01*
X116769713Y-119524307D01*
X116880268Y-119598177D01*
X117003110Y-119649060D01*
X117133518Y-119675000D01*
X117266482Y-119675000D01*
X117396890Y-119649060D01*
X117519732Y-119598177D01*
X117630287Y-119524307D01*
X117724307Y-119430287D01*
X117735309Y-119413820D01*
X118295000Y-119413820D01*
X118295000Y-119586180D01*
X118328626Y-119755228D01*
X118394585Y-119914468D01*
X118490343Y-120057780D01*
X118567563Y-120135000D01*
X118490343Y-120212220D01*
X118394585Y-120355532D01*
X118328626Y-120514772D01*
X118295000Y-120683820D01*
X118295000Y-120856180D01*
X118328626Y-121025228D01*
X118394585Y-121184468D01*
X118490343Y-121327780D01*
X118612220Y-121449657D01*
X118755532Y-121545415D01*
X118914772Y-121611374D01*
X119083820Y-121645000D01*
X119256180Y-121645000D01*
X119425228Y-121611374D01*
X119584468Y-121545415D01*
X119727780Y-121449657D01*
X119805000Y-121372437D01*
X119882220Y-121449657D01*
X120025532Y-121545415D01*
X120184772Y-121611374D01*
X120353820Y-121645000D01*
X120526180Y-121645000D01*
X120695228Y-121611374D01*
X120854468Y-121545415D01*
X120997780Y-121449657D01*
X121075000Y-121372437D01*
X121152220Y-121449657D01*
X121295532Y-121545415D01*
X121454772Y-121611374D01*
X121623820Y-121645000D01*
X121796180Y-121645000D01*
X121965228Y-121611374D01*
X122124468Y-121545415D01*
X122267780Y-121449657D01*
X122345000Y-121372437D01*
X122422220Y-121449657D01*
X122565532Y-121545415D01*
X122724772Y-121611374D01*
X122893820Y-121645000D01*
X123066180Y-121645000D01*
X123235228Y-121611374D01*
X123394468Y-121545415D01*
X123537780Y-121449657D01*
X123615000Y-121372437D01*
X123692220Y-121449657D01*
X123835532Y-121545415D01*
X123994772Y-121611374D01*
X124163820Y-121645000D01*
X124336180Y-121645000D01*
X124505228Y-121611374D01*
X124664468Y-121545415D01*
X124807780Y-121449657D01*
X124929657Y-121327780D01*
X125025415Y-121184468D01*
X125046518Y-121133520D01*
X140225002Y-121133520D01*
X140225002Y-121266484D01*
X140250942Y-121396892D01*
X140301825Y-121519734D01*
X140375695Y-121630289D01*
X140469715Y-121724309D01*
X140580270Y-121798179D01*
X140703112Y-121849062D01*
X140833520Y-121875002D01*
X140966484Y-121875002D01*
X141096892Y-121849062D01*
X141219734Y-121798179D01*
X141330289Y-121724309D01*
X141424309Y-121630289D01*
X141498179Y-121519734D01*
X141549062Y-121396892D01*
X141575002Y-121266484D01*
X141575002Y-121133520D01*
X141549062Y-121003112D01*
X141498179Y-120880270D01*
X141424309Y-120769715D01*
X141330289Y-120675695D01*
X141219734Y-120601825D01*
X141096892Y-120550942D01*
X140966484Y-120525002D01*
X140833520Y-120525002D01*
X140703112Y-120550942D01*
X140580270Y-120601825D01*
X140469715Y-120675695D01*
X140375695Y-120769715D01*
X140301825Y-120880270D01*
X140250942Y-121003112D01*
X140225002Y-121133520D01*
X125046518Y-121133520D01*
X125091374Y-121025228D01*
X125125000Y-120856180D01*
X125125000Y-120683820D01*
X125093431Y-120525112D01*
X125098911Y-120522183D01*
X125194080Y-120444080D01*
X125272183Y-120348911D01*
X125330219Y-120240334D01*
X125365957Y-120122521D01*
X125378024Y-120000000D01*
X125377797Y-119983518D01*
X135025000Y-119983518D01*
X135025000Y-120116482D01*
X135050940Y-120246890D01*
X135101823Y-120369732D01*
X135175693Y-120480287D01*
X135269713Y-120574307D01*
X135380268Y-120648177D01*
X135503110Y-120699060D01*
X135633518Y-120725000D01*
X135766482Y-120725000D01*
X135896890Y-120699060D01*
X136019732Y-120648177D01*
X136130287Y-120574307D01*
X136224307Y-120480287D01*
X136298177Y-120369732D01*
X136349060Y-120246890D01*
X136375000Y-120116482D01*
X136375000Y-119983518D01*
X136349060Y-119853110D01*
X136298177Y-119730268D01*
X136224307Y-119619713D01*
X136130287Y-119525693D01*
X136019732Y-119451823D01*
X135896890Y-119400940D01*
X135766482Y-119375000D01*
X135633518Y-119375000D01*
X135503110Y-119400940D01*
X135380268Y-119451823D01*
X135269713Y-119525693D01*
X135175693Y-119619713D01*
X135101823Y-119730268D01*
X135050940Y-119853110D01*
X135025000Y-119983518D01*
X125377797Y-119983518D01*
X125375000Y-119781250D01*
X125218750Y-119625000D01*
X124375000Y-119625000D01*
X124375000Y-119645000D01*
X124125000Y-119645000D01*
X124125000Y-119625000D01*
X124105000Y-119625000D01*
X124105000Y-119375000D01*
X124125000Y-119375000D01*
X124125000Y-118531250D01*
X124375000Y-118531250D01*
X124375000Y-119375000D01*
X125218750Y-119375000D01*
X125375000Y-119218750D01*
X125376178Y-119133512D01*
X126024994Y-119133512D01*
X126024994Y-119266476D01*
X126050934Y-119396884D01*
X126101817Y-119519726D01*
X126175687Y-119630281D01*
X126269707Y-119724301D01*
X126380262Y-119798171D01*
X126503104Y-119849054D01*
X126633512Y-119874994D01*
X126766476Y-119874994D01*
X126896884Y-119849054D01*
X127019726Y-119798171D01*
X127130281Y-119724301D01*
X127224301Y-119630281D01*
X127298171Y-119519726D01*
X127349054Y-119396884D01*
X127374994Y-119266476D01*
X127374994Y-119133512D01*
X127349054Y-119003104D01*
X127298171Y-118880262D01*
X127224301Y-118769707D01*
X127130281Y-118675687D01*
X127019726Y-118601817D01*
X126896884Y-118550934D01*
X126766476Y-118524994D01*
X126633512Y-118524994D01*
X126503104Y-118550934D01*
X126380262Y-118601817D01*
X126269707Y-118675687D01*
X126175687Y-118769707D01*
X126101817Y-118880262D01*
X126050934Y-119003104D01*
X126024994Y-119133512D01*
X125376178Y-119133512D01*
X125378024Y-119000000D01*
X125365957Y-118877479D01*
X125330219Y-118759666D01*
X125272183Y-118651089D01*
X125194080Y-118555920D01*
X125098911Y-118477817D01*
X124990334Y-118419781D01*
X124872521Y-118384043D01*
X124750000Y-118371976D01*
X124531250Y-118375000D01*
X124375000Y-118531250D01*
X124125000Y-118531250D01*
X123968750Y-118375000D01*
X123750000Y-118371976D01*
X123627479Y-118384043D01*
X123509666Y-118419781D01*
X123401089Y-118477817D01*
X123305920Y-118555920D01*
X123227817Y-118651089D01*
X123224888Y-118656569D01*
X123066180Y-118625000D01*
X122893820Y-118625000D01*
X122724772Y-118658626D01*
X122565532Y-118724585D01*
X122422220Y-118820343D01*
X122345000Y-118897563D01*
X122267780Y-118820343D01*
X122124468Y-118724585D01*
X121965228Y-118658626D01*
X121796180Y-118625000D01*
X121623820Y-118625000D01*
X121454772Y-118658626D01*
X121295532Y-118724585D01*
X121152220Y-118820343D01*
X121075000Y-118897563D01*
X120997780Y-118820343D01*
X120854468Y-118724585D01*
X120695228Y-118658626D01*
X120526180Y-118625000D01*
X120353820Y-118625000D01*
X120184772Y-118658626D01*
X120025532Y-118724585D01*
X119882220Y-118820343D01*
X119805000Y-118897563D01*
X119727780Y-118820343D01*
X119584468Y-118724585D01*
X119425228Y-118658626D01*
X119256180Y-118625000D01*
X119083820Y-118625000D01*
X118914772Y-118658626D01*
X118755532Y-118724585D01*
X118612220Y-118820343D01*
X118490343Y-118942220D01*
X118394585Y-119085532D01*
X118328626Y-119244772D01*
X118295000Y-119413820D01*
X117735309Y-119413820D01*
X117798177Y-119319732D01*
X117849060Y-119196890D01*
X117875000Y-119066482D01*
X117875000Y-118933518D01*
X117849060Y-118803110D01*
X117798177Y-118680268D01*
X117724307Y-118569713D01*
X117630287Y-118475693D01*
X117519732Y-118401823D01*
X117396890Y-118350940D01*
X117266482Y-118325000D01*
X117133518Y-118325000D01*
X117003110Y-118350940D01*
X116899199Y-118393982D01*
X116895214Y-118373948D01*
X116836793Y-118232907D01*
X116803793Y-118183518D01*
X134075000Y-118183518D01*
X134075000Y-118316482D01*
X134100940Y-118446890D01*
X134151823Y-118569732D01*
X134225693Y-118680287D01*
X134319713Y-118774307D01*
X134430268Y-118848177D01*
X134553110Y-118899060D01*
X134683518Y-118925000D01*
X134816482Y-118925000D01*
X134946890Y-118899060D01*
X135069732Y-118848177D01*
X135180287Y-118774307D01*
X135274307Y-118680287D01*
X135348177Y-118569732D01*
X135399060Y-118446890D01*
X135425000Y-118316482D01*
X135425000Y-118183518D01*
X135405209Y-118084021D01*
X136526483Y-118084021D01*
X136526483Y-118216985D01*
X136552423Y-118347393D01*
X136603306Y-118470235D01*
X136677176Y-118580790D01*
X136771196Y-118674810D01*
X136881751Y-118748680D01*
X137004593Y-118799563D01*
X137135001Y-118825503D01*
X137267965Y-118825503D01*
X137398373Y-118799563D01*
X137521215Y-118748680D01*
X137631770Y-118674810D01*
X137725790Y-118580790D01*
X137799660Y-118470235D01*
X137850543Y-118347393D01*
X137876483Y-118216985D01*
X137876483Y-118084021D01*
X137850543Y-117953613D01*
X137799660Y-117830771D01*
X137725790Y-117720216D01*
X137631770Y-117626196D01*
X137521215Y-117552326D01*
X137398373Y-117501443D01*
X137267965Y-117475503D01*
X137135001Y-117475503D01*
X137004593Y-117501443D01*
X136881751Y-117552326D01*
X136771196Y-117626196D01*
X136677176Y-117720216D01*
X136603306Y-117830771D01*
X136552423Y-117953613D01*
X136526483Y-118084021D01*
X135405209Y-118084021D01*
X135399060Y-118053110D01*
X135348177Y-117930268D01*
X135274307Y-117819713D01*
X135180287Y-117725693D01*
X135069732Y-117651823D01*
X134946890Y-117600940D01*
X134816482Y-117575000D01*
X134683518Y-117575000D01*
X134553110Y-117600940D01*
X134430268Y-117651823D01*
X134319713Y-117725693D01*
X134225693Y-117819713D01*
X134151823Y-117930268D01*
X134100940Y-118053110D01*
X134075000Y-118183518D01*
X116803793Y-118183518D01*
X116751979Y-118105973D01*
X116644031Y-117998025D01*
X116517097Y-117913211D01*
X116376056Y-117854790D01*
X116226328Y-117825007D01*
X116073666Y-117825007D01*
X115923938Y-117854790D01*
X115782897Y-117913211D01*
X115655963Y-117998025D01*
X115548015Y-118105973D01*
X115463201Y-118232907D01*
X115404780Y-118373948D01*
X115374997Y-118523676D01*
X115374997Y-118676338D01*
X115404780Y-118826066D01*
X115418802Y-118859918D01*
X115416133Y-118859108D01*
X115272892Y-118845000D01*
X114638637Y-118845000D01*
X114665233Y-118757323D01*
X114675000Y-118658159D01*
X114675000Y-118341842D01*
X114665233Y-118242678D01*
X114626636Y-118115440D01*
X114563958Y-117998176D01*
X114479606Y-117895394D01*
X114376824Y-117811042D01*
X114259561Y-117748364D01*
X114132323Y-117709767D01*
X114000000Y-117696734D01*
X113867678Y-117709767D01*
X113740440Y-117748364D01*
X113623177Y-117811042D01*
X113520395Y-117895394D01*
X113436042Y-117998176D01*
X113373364Y-118115439D01*
X113334767Y-118242677D01*
X113325000Y-118341841D01*
X113325000Y-118658158D01*
X113334767Y-118757322D01*
X113373364Y-118884560D01*
X113436042Y-119001823D01*
X113520394Y-119104605D01*
X113540102Y-119120779D01*
X113532235Y-119127235D01*
X113410395Y-119275698D01*
X113319860Y-119445079D01*
X113264108Y-119628867D01*
X113245283Y-119820000D01*
X112529717Y-119820000D01*
X112510892Y-119628867D01*
X112455140Y-119445079D01*
X112364605Y-119275698D01*
X112242765Y-119127235D01*
X112094302Y-119005395D01*
X111924921Y-118914860D01*
X111741133Y-118859108D01*
X111597892Y-118845000D01*
X110202108Y-118845000D01*
X110058867Y-118859108D01*
X109875079Y-118914860D01*
X109705698Y-119005395D01*
X109557235Y-119127235D01*
X109435395Y-119275698D01*
X109400000Y-119341918D01*
X109400000Y-115397490D01*
X120575000Y-115397490D01*
X120575000Y-115530454D01*
X120600940Y-115660862D01*
X120651823Y-115783704D01*
X120725693Y-115894259D01*
X120813420Y-115981986D01*
X120725693Y-116069713D01*
X120651823Y-116180268D01*
X120600940Y-116303110D01*
X120575000Y-116433518D01*
X120575000Y-116566482D01*
X120600940Y-116696890D01*
X120651823Y-116819732D01*
X120725693Y-116930287D01*
X120819713Y-117024307D01*
X120930268Y-117098177D01*
X121053110Y-117149060D01*
X121183518Y-117175000D01*
X121316482Y-117175000D01*
X121446890Y-117149060D01*
X121569732Y-117098177D01*
X121680287Y-117024307D01*
X121774307Y-116930287D01*
X121838965Y-116833518D01*
X133325000Y-116833518D01*
X133325000Y-116966482D01*
X133350940Y-117096890D01*
X133401823Y-117219732D01*
X133475693Y-117330287D01*
X133569713Y-117424307D01*
X133680268Y-117498177D01*
X133803110Y-117549060D01*
X133933518Y-117575000D01*
X134066482Y-117575000D01*
X134196890Y-117549060D01*
X134319732Y-117498177D01*
X134430287Y-117424307D01*
X134524307Y-117330287D01*
X134598177Y-117219732D01*
X134649060Y-117096890D01*
X134675000Y-116966482D01*
X134675000Y-116933518D01*
X143425000Y-116933518D01*
X143425000Y-117066482D01*
X143450940Y-117196890D01*
X143501823Y-117319732D01*
X143575693Y-117430287D01*
X143645406Y-117500000D01*
X143575693Y-117569713D01*
X143501823Y-117680268D01*
X143450940Y-117803110D01*
X143425000Y-117933518D01*
X143425000Y-118066482D01*
X143450940Y-118196890D01*
X143501823Y-118319732D01*
X143575693Y-118430287D01*
X143669713Y-118524307D01*
X143780268Y-118598177D01*
X143903110Y-118649060D01*
X144033518Y-118675000D01*
X144166482Y-118675000D01*
X144296890Y-118649060D01*
X144419732Y-118598177D01*
X144530287Y-118524307D01*
X144624307Y-118430287D01*
X144698177Y-118319732D01*
X144737967Y-118223669D01*
X145125000Y-118223669D01*
X145125000Y-118376331D01*
X145154783Y-118526059D01*
X145213204Y-118667100D01*
X145298018Y-118794034D01*
X145405966Y-118901982D01*
X145532900Y-118986796D01*
X145673941Y-119045217D01*
X145823669Y-119075000D01*
X145976331Y-119075000D01*
X146126059Y-119045217D01*
X146267100Y-118986796D01*
X146394034Y-118901982D01*
X146501982Y-118794034D01*
X146586796Y-118667100D01*
X146645217Y-118526059D01*
X146675000Y-118376331D01*
X146675000Y-118223669D01*
X146645217Y-118073941D01*
X146586796Y-117932900D01*
X146501982Y-117805966D01*
X146394034Y-117698018D01*
X146267100Y-117613204D01*
X146126059Y-117554783D01*
X145976331Y-117525000D01*
X145823669Y-117525000D01*
X145673941Y-117554783D01*
X145532900Y-117613204D01*
X145405966Y-117698018D01*
X145298018Y-117805966D01*
X145213204Y-117932900D01*
X145154783Y-118073941D01*
X145125000Y-118223669D01*
X144737967Y-118223669D01*
X144749060Y-118196890D01*
X144775000Y-118066482D01*
X144775000Y-117933518D01*
X144749060Y-117803110D01*
X144698177Y-117680268D01*
X144624307Y-117569713D01*
X144554594Y-117500000D01*
X144624307Y-117430287D01*
X144698177Y-117319732D01*
X144749060Y-117196890D01*
X144775000Y-117066482D01*
X144775000Y-116933518D01*
X144749060Y-116803110D01*
X144698177Y-116680268D01*
X144624307Y-116569713D01*
X144530287Y-116475693D01*
X144419732Y-116401823D01*
X144296890Y-116350940D01*
X144166482Y-116325000D01*
X144033518Y-116325000D01*
X143903110Y-116350940D01*
X143780268Y-116401823D01*
X143669713Y-116475693D01*
X143575693Y-116569713D01*
X143501823Y-116680268D01*
X143450940Y-116803110D01*
X143425000Y-116933518D01*
X134675000Y-116933518D01*
X134675000Y-116833518D01*
X134649060Y-116703110D01*
X134598177Y-116580268D01*
X134524307Y-116469713D01*
X134430287Y-116375693D01*
X134319732Y-116301823D01*
X134196890Y-116250940D01*
X134066482Y-116225000D01*
X133933518Y-116225000D01*
X133803110Y-116250940D01*
X133680268Y-116301823D01*
X133569713Y-116375693D01*
X133475693Y-116469713D01*
X133401823Y-116580268D01*
X133350940Y-116703110D01*
X133325000Y-116833518D01*
X121838965Y-116833518D01*
X121848177Y-116819732D01*
X121899060Y-116696890D01*
X121925000Y-116566482D01*
X121925000Y-116433518D01*
X121899060Y-116303110D01*
X121848177Y-116180268D01*
X121774307Y-116069713D01*
X121686580Y-115981986D01*
X121774307Y-115894259D01*
X121848177Y-115783704D01*
X121899060Y-115660862D01*
X121921374Y-115548682D01*
X123350013Y-115548682D01*
X123350013Y-115701344D01*
X123379796Y-115851072D01*
X123438217Y-115992113D01*
X123523031Y-116119047D01*
X123630979Y-116226995D01*
X123757913Y-116311809D01*
X123898954Y-116370230D01*
X124048682Y-116400013D01*
X124201344Y-116400013D01*
X124351072Y-116370230D01*
X124492113Y-116311809D01*
X124619047Y-116226995D01*
X124726995Y-116119047D01*
X124811809Y-115992113D01*
X124870230Y-115851072D01*
X124900013Y-115701344D01*
X124900013Y-115548682D01*
X124870230Y-115398954D01*
X124811809Y-115257913D01*
X124726995Y-115130979D01*
X124619047Y-115023031D01*
X124492113Y-114938217D01*
X124351072Y-114879796D01*
X124201344Y-114850013D01*
X124048682Y-114850013D01*
X123898954Y-114879796D01*
X123757913Y-114938217D01*
X123630979Y-115023031D01*
X123523031Y-115130979D01*
X123438217Y-115257913D01*
X123379796Y-115398954D01*
X123350013Y-115548682D01*
X121921374Y-115548682D01*
X121925000Y-115530454D01*
X121925000Y-115397490D01*
X121899060Y-115267082D01*
X121848177Y-115144240D01*
X121774307Y-115033685D01*
X121680287Y-114939665D01*
X121569732Y-114865795D01*
X121491809Y-114833518D01*
X128625000Y-114833518D01*
X128625000Y-114966482D01*
X128650940Y-115096890D01*
X128701823Y-115219732D01*
X128775693Y-115330287D01*
X128869713Y-115424307D01*
X128980268Y-115498177D01*
X128984669Y-115500000D01*
X128980268Y-115501823D01*
X128869713Y-115575693D01*
X128775693Y-115669713D01*
X128701823Y-115780268D01*
X128650940Y-115903110D01*
X128625000Y-116033518D01*
X128625000Y-116166482D01*
X128650940Y-116296890D01*
X128701823Y-116419732D01*
X128775693Y-116530287D01*
X128869713Y-116624307D01*
X128980268Y-116698177D01*
X129103110Y-116749060D01*
X129233518Y-116775000D01*
X129366482Y-116775000D01*
X129496890Y-116749060D01*
X129619732Y-116698177D01*
X129730287Y-116624307D01*
X129824307Y-116530287D01*
X129898177Y-116419732D01*
X129900000Y-116415331D01*
X129901823Y-116419732D01*
X129975693Y-116530287D01*
X130069713Y-116624307D01*
X130180268Y-116698177D01*
X130303110Y-116749060D01*
X130433518Y-116775000D01*
X130566482Y-116775000D01*
X130696890Y-116749060D01*
X130819732Y-116698177D01*
X130930287Y-116624307D01*
X131024307Y-116530287D01*
X131098177Y-116419732D01*
X131149060Y-116296890D01*
X131175000Y-116166482D01*
X131175000Y-116033518D01*
X131149060Y-115903110D01*
X131098177Y-115780268D01*
X131024307Y-115669713D01*
X130930287Y-115575693D01*
X130819732Y-115501823D01*
X130815331Y-115500000D01*
X130819732Y-115498177D01*
X130930287Y-115424307D01*
X131024307Y-115330287D01*
X131098177Y-115219732D01*
X131136855Y-115126354D01*
X133317941Y-115126354D01*
X133317941Y-115259318D01*
X133343881Y-115389726D01*
X133394764Y-115512568D01*
X133468634Y-115623123D01*
X133562654Y-115717143D01*
X133673209Y-115791013D01*
X133796051Y-115841896D01*
X133926459Y-115867836D01*
X134059423Y-115867836D01*
X134189831Y-115841896D01*
X134312673Y-115791013D01*
X134423228Y-115717143D01*
X134517248Y-115623123D01*
X134591118Y-115512568D01*
X134642001Y-115389726D01*
X134667941Y-115259318D01*
X134667941Y-115126354D01*
X134649475Y-115033518D01*
X135725000Y-115033518D01*
X135725000Y-115166482D01*
X135750940Y-115296890D01*
X135801823Y-115419732D01*
X135875693Y-115530287D01*
X135969713Y-115624307D01*
X136080268Y-115698177D01*
X136203110Y-115749060D01*
X136333518Y-115775000D01*
X136425000Y-115775000D01*
X136425000Y-115866482D01*
X136450940Y-115996890D01*
X136501823Y-116119732D01*
X136575693Y-116230287D01*
X136669713Y-116324307D01*
X136780268Y-116398177D01*
X136903110Y-116449060D01*
X137033518Y-116475000D01*
X137166482Y-116475000D01*
X137296890Y-116449060D01*
X137419732Y-116398177D01*
X137530287Y-116324307D01*
X137624307Y-116230287D01*
X137698177Y-116119732D01*
X137749060Y-115996890D01*
X137775000Y-115866482D01*
X137775000Y-115775000D01*
X137866482Y-115775000D01*
X137996890Y-115749060D01*
X138119732Y-115698177D01*
X138230287Y-115624307D01*
X138324307Y-115530287D01*
X138398177Y-115419732D01*
X138449060Y-115296890D01*
X138475000Y-115166482D01*
X138475000Y-115033518D01*
X138449060Y-114903110D01*
X138398177Y-114780268D01*
X138324307Y-114669713D01*
X138230287Y-114575693D01*
X138119732Y-114501823D01*
X137996890Y-114450940D01*
X137866482Y-114425000D01*
X137775000Y-114425000D01*
X137775000Y-114333518D01*
X137749060Y-114203110D01*
X137709228Y-114106946D01*
X139325000Y-114106946D01*
X139325000Y-114239910D01*
X139350940Y-114370318D01*
X139401823Y-114493160D01*
X139475693Y-114603715D01*
X139569713Y-114697735D01*
X139680268Y-114771605D01*
X139803110Y-114822488D01*
X139933518Y-114848428D01*
X140066482Y-114848428D01*
X140196890Y-114822488D01*
X140319732Y-114771605D01*
X140430287Y-114697735D01*
X140524307Y-114603715D01*
X140598177Y-114493160D01*
X140649060Y-114370318D01*
X140675000Y-114239910D01*
X140675000Y-114106946D01*
X140649060Y-113976538D01*
X140598177Y-113853696D01*
X140524307Y-113743141D01*
X140430287Y-113649121D01*
X140319732Y-113575251D01*
X140196890Y-113524368D01*
X140066482Y-113498428D01*
X139933518Y-113498428D01*
X139803110Y-113524368D01*
X139680268Y-113575251D01*
X139569713Y-113649121D01*
X139475693Y-113743141D01*
X139401823Y-113853696D01*
X139350940Y-113976538D01*
X139325000Y-114106946D01*
X137709228Y-114106946D01*
X137698177Y-114080268D01*
X137624307Y-113969713D01*
X137530287Y-113875693D01*
X137419732Y-113801823D01*
X137296890Y-113750940D01*
X137166482Y-113725000D01*
X137033518Y-113725000D01*
X136903110Y-113750940D01*
X136780268Y-113801823D01*
X136669713Y-113875693D01*
X136575693Y-113969713D01*
X136501823Y-114080268D01*
X136450940Y-114203110D01*
X136425000Y-114333518D01*
X136425000Y-114425000D01*
X136333518Y-114425000D01*
X136203110Y-114450940D01*
X136080268Y-114501823D01*
X135969713Y-114575693D01*
X135875693Y-114669713D01*
X135801823Y-114780268D01*
X135750940Y-114903110D01*
X135725000Y-115033518D01*
X134649475Y-115033518D01*
X134642001Y-114995946D01*
X134591118Y-114873104D01*
X134517248Y-114762549D01*
X134423228Y-114668529D01*
X134312673Y-114594659D01*
X134189831Y-114543776D01*
X134059423Y-114517836D01*
X133926459Y-114517836D01*
X133796051Y-114543776D01*
X133673209Y-114594659D01*
X133562654Y-114668529D01*
X133468634Y-114762549D01*
X133394764Y-114873104D01*
X133343881Y-114995946D01*
X133317941Y-115126354D01*
X131136855Y-115126354D01*
X131149060Y-115096890D01*
X131175000Y-114966482D01*
X131175000Y-114833518D01*
X131149060Y-114703110D01*
X131098177Y-114580268D01*
X131024307Y-114469713D01*
X130930287Y-114375693D01*
X130819732Y-114301823D01*
X130696890Y-114250940D01*
X130566482Y-114225000D01*
X130433518Y-114225000D01*
X130303110Y-114250940D01*
X130180268Y-114301823D01*
X130069713Y-114375693D01*
X129975693Y-114469713D01*
X129901823Y-114580268D01*
X129900000Y-114584669D01*
X129898177Y-114580268D01*
X129824307Y-114469713D01*
X129730287Y-114375693D01*
X129619732Y-114301823D01*
X129496890Y-114250940D01*
X129366482Y-114225000D01*
X129233518Y-114225000D01*
X129103110Y-114250940D01*
X128980268Y-114301823D01*
X128869713Y-114375693D01*
X128775693Y-114469713D01*
X128701823Y-114580268D01*
X128650940Y-114703110D01*
X128625000Y-114833518D01*
X121491809Y-114833518D01*
X121446890Y-114814912D01*
X121316482Y-114788972D01*
X121183518Y-114788972D01*
X121053110Y-114814912D01*
X120930268Y-114865795D01*
X120819713Y-114939665D01*
X120725693Y-115033685D01*
X120651823Y-115144240D01*
X120600940Y-115267082D01*
X120575000Y-115397490D01*
X109400000Y-115397490D01*
X109400000Y-114028516D01*
X112725000Y-114028516D01*
X112725000Y-114161480D01*
X112750940Y-114291888D01*
X112801823Y-114414730D01*
X112875693Y-114525285D01*
X112969713Y-114619305D01*
X113080268Y-114693175D01*
X113203110Y-114744058D01*
X113333518Y-114769998D01*
X113466482Y-114769998D01*
X113596890Y-114744058D01*
X113719732Y-114693175D01*
X113830287Y-114619305D01*
X113924307Y-114525285D01*
X113998177Y-114414730D01*
X114004805Y-114398727D01*
X118517788Y-114398727D01*
X118517788Y-114531691D01*
X118543728Y-114662099D01*
X118594611Y-114784941D01*
X118668481Y-114895496D01*
X118762501Y-114989516D01*
X118873056Y-115063386D01*
X118995898Y-115114269D01*
X119126306Y-115140209D01*
X119259270Y-115140209D01*
X119389678Y-115114269D01*
X119512520Y-115063386D01*
X119623075Y-114989516D01*
X119717095Y-114895496D01*
X119790965Y-114784941D01*
X119841848Y-114662099D01*
X119867788Y-114531691D01*
X119867788Y-114398727D01*
X119841848Y-114268319D01*
X119790965Y-114145477D01*
X119717095Y-114034922D01*
X119623075Y-113940902D01*
X119512520Y-113867032D01*
X119389678Y-113816149D01*
X119259270Y-113790209D01*
X119126306Y-113790209D01*
X118995898Y-113816149D01*
X118873056Y-113867032D01*
X118762501Y-113940902D01*
X118668481Y-114034922D01*
X118594611Y-114145477D01*
X118543728Y-114268319D01*
X118517788Y-114398727D01*
X114004805Y-114398727D01*
X114049060Y-114291888D01*
X114075000Y-114161480D01*
X114075000Y-114028516D01*
X114049060Y-113898108D01*
X113998177Y-113775266D01*
X113924307Y-113664711D01*
X113830287Y-113570691D01*
X113759950Y-113523693D01*
X121124976Y-113523693D01*
X121124976Y-113676355D01*
X121154759Y-113826083D01*
X121213180Y-113967124D01*
X121297994Y-114094058D01*
X121405942Y-114202006D01*
X121532876Y-114286820D01*
X121673917Y-114345241D01*
X121823645Y-114375024D01*
X121976307Y-114375024D01*
X122126035Y-114345241D01*
X122267076Y-114286820D01*
X122394010Y-114202006D01*
X122501958Y-114094058D01*
X122586772Y-113967124D01*
X122645193Y-113826083D01*
X122674976Y-113676355D01*
X122674976Y-113523693D01*
X122645193Y-113373965D01*
X122628440Y-113333518D01*
X144825000Y-113333518D01*
X144825000Y-113466482D01*
X144850940Y-113596890D01*
X144901823Y-113719732D01*
X144975693Y-113830287D01*
X145069713Y-113924307D01*
X145180268Y-113998177D01*
X145303110Y-114049060D01*
X145433518Y-114075000D01*
X145566482Y-114075000D01*
X145696890Y-114049060D01*
X145819732Y-113998177D01*
X145930287Y-113924307D01*
X146024307Y-113830287D01*
X146098177Y-113719732D01*
X146149060Y-113596890D01*
X146175000Y-113466482D01*
X146175000Y-113333518D01*
X146149060Y-113203110D01*
X146098177Y-113080268D01*
X146024307Y-112969713D01*
X145930287Y-112875693D01*
X145819732Y-112801823D01*
X145696890Y-112750940D01*
X145566482Y-112725000D01*
X145433518Y-112725000D01*
X145303110Y-112750940D01*
X145180268Y-112801823D01*
X145069713Y-112875693D01*
X144975693Y-112969713D01*
X144901823Y-113080268D01*
X144850940Y-113203110D01*
X144825000Y-113333518D01*
X122628440Y-113333518D01*
X122586772Y-113232924D01*
X122501958Y-113105990D01*
X122394010Y-112998042D01*
X122267076Y-112913228D01*
X122126035Y-112854807D01*
X121976307Y-112825024D01*
X121823645Y-112825024D01*
X121673917Y-112854807D01*
X121532876Y-112913228D01*
X121405942Y-112998042D01*
X121297994Y-113105990D01*
X121213180Y-113232924D01*
X121154759Y-113373965D01*
X121124976Y-113523693D01*
X113759950Y-113523693D01*
X113719732Y-113496821D01*
X113596890Y-113445938D01*
X113466482Y-113419998D01*
X113333518Y-113419998D01*
X113203110Y-113445938D01*
X113080268Y-113496821D01*
X112969713Y-113570691D01*
X112875693Y-113664711D01*
X112801823Y-113775266D01*
X112750940Y-113898108D01*
X112725000Y-114028516D01*
X109400000Y-114028516D01*
X109400000Y-111658082D01*
X109435395Y-111724302D01*
X109557235Y-111872765D01*
X109705698Y-111994605D01*
X109875079Y-112085140D01*
X110058867Y-112140892D01*
X110202108Y-112155000D01*
X111597892Y-112155000D01*
X111741133Y-112140892D01*
X111924921Y-112085140D01*
X112094302Y-111994605D01*
X112242765Y-111872765D01*
X112364605Y-111724302D01*
X112455140Y-111554921D01*
X112510892Y-111371133D01*
X112529717Y-111180000D01*
X113245283Y-111180000D01*
X113264108Y-111371133D01*
X113319860Y-111554921D01*
X113410395Y-111724302D01*
X113532235Y-111872765D01*
X113618187Y-111943304D01*
X113569713Y-111975693D01*
X113475693Y-112069713D01*
X113401823Y-112180268D01*
X113350940Y-112303110D01*
X113325000Y-112433518D01*
X113325000Y-112566482D01*
X113350940Y-112696890D01*
X113401823Y-112819732D01*
X113475693Y-112930287D01*
X113569713Y-113024307D01*
X113680268Y-113098177D01*
X113803110Y-113149060D01*
X113933518Y-113175000D01*
X114066482Y-113175000D01*
X114196890Y-113149060D01*
X114319732Y-113098177D01*
X114430287Y-113024307D01*
X114524307Y-112930287D01*
X114598177Y-112819732D01*
X114649060Y-112696890D01*
X114675000Y-112566482D01*
X114675000Y-112433518D01*
X114649060Y-112303110D01*
X114598177Y-112180268D01*
X114581294Y-112155000D01*
X115088405Y-112155000D01*
X115087618Y-112158954D01*
X115087618Y-112311616D01*
X115117401Y-112461344D01*
X115175822Y-112602385D01*
X115260636Y-112729319D01*
X115368584Y-112837267D01*
X115495518Y-112922081D01*
X115636559Y-112980502D01*
X115786287Y-113010285D01*
X115938949Y-113010285D01*
X116088677Y-112980502D01*
X116229718Y-112922081D01*
X116356652Y-112837267D01*
X116464600Y-112729319D01*
X116549414Y-112602385D01*
X116607835Y-112461344D01*
X116637618Y-112311616D01*
X116637618Y-112173669D01*
X122725000Y-112173669D01*
X122725000Y-112326331D01*
X122754783Y-112476059D01*
X122813204Y-112617100D01*
X122898018Y-112744034D01*
X123005966Y-112851982D01*
X123132900Y-112936796D01*
X123273941Y-112995217D01*
X123423669Y-113025000D01*
X123576331Y-113025000D01*
X123726059Y-112995217D01*
X123867100Y-112936796D01*
X123994034Y-112851982D01*
X124101982Y-112744034D01*
X124186796Y-112617100D01*
X124245217Y-112476059D01*
X124275000Y-112326331D01*
X124275000Y-112173669D01*
X124248102Y-112038443D01*
X130175000Y-112038443D01*
X130175000Y-112161557D01*
X130199019Y-112282306D01*
X130246132Y-112396048D01*
X130314531Y-112498414D01*
X130401586Y-112585469D01*
X130503952Y-112653868D01*
X130617694Y-112700981D01*
X130738443Y-112725000D01*
X130861557Y-112725000D01*
X130982306Y-112700981D01*
X131096048Y-112653868D01*
X131198414Y-112585469D01*
X131285469Y-112498414D01*
X131353868Y-112396048D01*
X131400981Y-112282306D01*
X131425000Y-112161557D01*
X131425000Y-112038443D01*
X131404129Y-111933518D01*
X133825000Y-111933518D01*
X133825000Y-112066482D01*
X133850940Y-112196890D01*
X133901823Y-112319732D01*
X133975693Y-112430287D01*
X134069713Y-112524307D01*
X134180268Y-112598177D01*
X134303110Y-112649060D01*
X134433518Y-112675000D01*
X134566482Y-112675000D01*
X134696890Y-112649060D01*
X134819732Y-112598177D01*
X134930287Y-112524307D01*
X135024307Y-112430287D01*
X135098177Y-112319732D01*
X135149060Y-112196890D01*
X135175000Y-112066482D01*
X135175000Y-111933518D01*
X135149060Y-111803110D01*
X135098177Y-111680268D01*
X135024307Y-111569713D01*
X134930287Y-111475693D01*
X134819732Y-111401823D01*
X134696890Y-111350940D01*
X134566482Y-111325000D01*
X134433518Y-111325000D01*
X134303110Y-111350940D01*
X134180268Y-111401823D01*
X134069713Y-111475693D01*
X133975693Y-111569713D01*
X133901823Y-111680268D01*
X133850940Y-111803110D01*
X133825000Y-111933518D01*
X131404129Y-111933518D01*
X131400981Y-111917694D01*
X131353868Y-111803952D01*
X131285469Y-111701586D01*
X131198414Y-111614531D01*
X131096048Y-111546132D01*
X130982306Y-111499019D01*
X130861557Y-111475000D01*
X130738443Y-111475000D01*
X130617694Y-111499019D01*
X130503952Y-111546132D01*
X130401586Y-111614531D01*
X130314531Y-111701586D01*
X130246132Y-111803952D01*
X130199019Y-111917694D01*
X130175000Y-112038443D01*
X124248102Y-112038443D01*
X124245217Y-112023941D01*
X124186796Y-111882900D01*
X124101982Y-111755966D01*
X123994034Y-111648018D01*
X123867100Y-111563204D01*
X123726059Y-111504783D01*
X123576331Y-111475000D01*
X123423669Y-111475000D01*
X123273941Y-111504783D01*
X123132900Y-111563204D01*
X123005966Y-111648018D01*
X122898018Y-111755966D01*
X122813204Y-111882900D01*
X122754783Y-112023941D01*
X122725000Y-112173669D01*
X116637618Y-112173669D01*
X116637618Y-112158954D01*
X116607835Y-112009226D01*
X116549414Y-111868185D01*
X116464600Y-111741251D01*
X116356652Y-111633303D01*
X116229718Y-111548489D01*
X116142989Y-111512565D01*
X116185892Y-111371133D01*
X116204717Y-111180000D01*
X116185892Y-110988867D01*
X116130140Y-110805079D01*
X116039605Y-110635698D01*
X115917765Y-110487235D01*
X115769302Y-110365395D01*
X115599921Y-110274860D01*
X115416133Y-110219108D01*
X115272892Y-110205000D01*
X114177108Y-110205000D01*
X114033867Y-110219108D01*
X113850079Y-110274860D01*
X113680698Y-110365395D01*
X113532235Y-110487235D01*
X113410395Y-110635698D01*
X113319860Y-110805079D01*
X113264108Y-110988867D01*
X113245283Y-111180000D01*
X112529717Y-111180000D01*
X112510892Y-110988867D01*
X112455140Y-110805079D01*
X112364605Y-110635698D01*
X112242765Y-110487235D01*
X112094302Y-110365395D01*
X111924921Y-110274860D01*
X111741133Y-110219108D01*
X111597892Y-110205000D01*
X110202108Y-110205000D01*
X110058867Y-110219108D01*
X109875079Y-110274860D01*
X109705698Y-110365395D01*
X109557235Y-110487235D01*
X109435395Y-110635698D01*
X109400000Y-110701918D01*
X109400000Y-109733518D01*
X123525000Y-109733518D01*
X123525000Y-109866482D01*
X123550940Y-109996890D01*
X123601823Y-110119732D01*
X123675693Y-110230287D01*
X123769713Y-110324307D01*
X123880268Y-110398177D01*
X124003110Y-110449060D01*
X124133518Y-110475000D01*
X124266482Y-110475000D01*
X124396890Y-110449060D01*
X124519732Y-110398177D01*
X124630287Y-110324307D01*
X124724307Y-110230287D01*
X124788970Y-110133510D01*
X129225000Y-110133510D01*
X129225000Y-110266474D01*
X129250940Y-110396882D01*
X129301823Y-110519724D01*
X129375693Y-110630279D01*
X129469713Y-110724299D01*
X129580268Y-110798169D01*
X129703110Y-110849052D01*
X129833518Y-110874992D01*
X129966482Y-110874992D01*
X130096890Y-110849052D01*
X130219732Y-110798169D01*
X130330287Y-110724299D01*
X130424307Y-110630279D01*
X130498177Y-110519724D01*
X130549060Y-110396882D01*
X130575000Y-110266474D01*
X130575000Y-110133510D01*
X130549060Y-110003102D01*
X130498177Y-109880260D01*
X130424307Y-109769705D01*
X130330287Y-109675685D01*
X130219732Y-109601815D01*
X130096890Y-109550932D01*
X129966482Y-109524992D01*
X129833518Y-109524992D01*
X129703110Y-109550932D01*
X129580268Y-109601815D01*
X129469713Y-109675685D01*
X129375693Y-109769705D01*
X129301823Y-109880260D01*
X129250940Y-110003102D01*
X129225000Y-110133510D01*
X124788970Y-110133510D01*
X124798177Y-110119732D01*
X124849060Y-109996890D01*
X124875000Y-109866482D01*
X124875000Y-109733518D01*
X124849060Y-109603110D01*
X124798177Y-109480268D01*
X124766940Y-109433518D01*
X131625030Y-109433518D01*
X131625030Y-109566482D01*
X131650970Y-109696890D01*
X131701853Y-109819732D01*
X131775723Y-109930287D01*
X131869743Y-110024307D01*
X131881399Y-110032095D01*
X131880967Y-110033137D01*
X131855027Y-110163545D01*
X131855027Y-110296509D01*
X131880967Y-110426917D01*
X131931850Y-110549759D01*
X132005720Y-110660314D01*
X132099740Y-110754334D01*
X132210295Y-110828204D01*
X132333137Y-110879087D01*
X132463545Y-110905027D01*
X132596509Y-110905027D01*
X132726917Y-110879087D01*
X132849759Y-110828204D01*
X132960314Y-110754334D01*
X133030037Y-110684611D01*
X133069713Y-110724287D01*
X133180268Y-110798157D01*
X133303110Y-110849040D01*
X133433518Y-110874980D01*
X133566482Y-110874980D01*
X133696890Y-110849040D01*
X133819732Y-110798157D01*
X133930287Y-110724287D01*
X134024307Y-110630267D01*
X134098177Y-110519712D01*
X134149060Y-110396870D01*
X134175000Y-110266462D01*
X134175000Y-110133498D01*
X134149060Y-110003090D01*
X134098177Y-109880248D01*
X134024307Y-109769693D01*
X133978283Y-109723669D01*
X136925000Y-109723669D01*
X136925000Y-109876331D01*
X136954783Y-110026059D01*
X137013204Y-110167100D01*
X137098018Y-110294034D01*
X137205966Y-110401982D01*
X137332900Y-110486796D01*
X137473941Y-110545217D01*
X137623669Y-110575000D01*
X137776331Y-110575000D01*
X137926059Y-110545217D01*
X138067100Y-110486796D01*
X138194034Y-110401982D01*
X138301982Y-110294034D01*
X138325000Y-110259585D01*
X138325000Y-110366460D01*
X138350940Y-110496868D01*
X138401823Y-110619710D01*
X138475693Y-110730265D01*
X138569713Y-110824285D01*
X138680268Y-110898155D01*
X138803110Y-110949038D01*
X138933518Y-110974978D01*
X139066482Y-110974978D01*
X139196890Y-110949038D01*
X139234358Y-110933518D01*
X139924998Y-110933518D01*
X139924998Y-111066482D01*
X139950938Y-111196890D01*
X140001821Y-111319732D01*
X140075691Y-111430287D01*
X140169711Y-111524307D01*
X140280266Y-111598177D01*
X140403108Y-111649060D01*
X140533516Y-111675000D01*
X140666480Y-111675000D01*
X140796888Y-111649060D01*
X140919730Y-111598177D01*
X141030285Y-111524307D01*
X141124305Y-111430287D01*
X141198175Y-111319732D01*
X141249058Y-111196890D01*
X141274998Y-111066482D01*
X141274998Y-110933518D01*
X141249058Y-110803110D01*
X141198175Y-110680268D01*
X141124305Y-110569713D01*
X141030285Y-110475693D01*
X140919730Y-110401823D01*
X140796888Y-110350940D01*
X140666480Y-110325000D01*
X140533516Y-110325000D01*
X140403108Y-110350940D01*
X140280266Y-110401823D01*
X140169711Y-110475693D01*
X140075691Y-110569713D01*
X140001821Y-110680268D01*
X139950938Y-110803110D01*
X139924998Y-110933518D01*
X139234358Y-110933518D01*
X139319732Y-110898155D01*
X139430287Y-110824285D01*
X139524307Y-110730265D01*
X139598177Y-110619710D01*
X139649060Y-110496868D01*
X139675000Y-110366460D01*
X139675000Y-110233496D01*
X139649060Y-110103088D01*
X139598177Y-109980246D01*
X139524307Y-109869691D01*
X139430287Y-109775671D01*
X139319732Y-109701801D01*
X139196890Y-109650918D01*
X139066482Y-109624978D01*
X138933518Y-109624978D01*
X138803110Y-109650918D01*
X138680268Y-109701801D01*
X138569713Y-109775671D01*
X138475693Y-109869691D01*
X138475000Y-109870728D01*
X138475000Y-109723669D01*
X138445217Y-109573941D01*
X138386796Y-109432900D01*
X138301982Y-109305966D01*
X138194034Y-109198018D01*
X138067100Y-109113204D01*
X137926059Y-109054783D01*
X137776331Y-109025000D01*
X137623669Y-109025000D01*
X137473941Y-109054783D01*
X137332900Y-109113204D01*
X137205966Y-109198018D01*
X137098018Y-109305966D01*
X137013204Y-109432900D01*
X136954783Y-109573941D01*
X136925000Y-109723669D01*
X133978283Y-109723669D01*
X133930287Y-109675673D01*
X133819732Y-109601803D01*
X133696890Y-109550920D01*
X133566482Y-109524980D01*
X133433518Y-109524980D01*
X133303110Y-109550920D01*
X133180268Y-109601803D01*
X133069713Y-109675673D01*
X132999990Y-109745396D01*
X132960314Y-109705720D01*
X132948658Y-109697932D01*
X132949090Y-109696890D01*
X132975030Y-109566482D01*
X132975030Y-109433518D01*
X132949090Y-109303110D01*
X132898207Y-109180268D01*
X132824337Y-109069713D01*
X132730317Y-108975693D01*
X132619762Y-108901823D01*
X132496920Y-108850940D01*
X132366512Y-108825000D01*
X132233548Y-108825000D01*
X132103140Y-108850940D01*
X131980298Y-108901823D01*
X131869743Y-108975693D01*
X131775723Y-109069713D01*
X131701853Y-109180268D01*
X131650970Y-109303110D01*
X131625030Y-109433518D01*
X124766940Y-109433518D01*
X124724307Y-109369713D01*
X124630287Y-109275693D01*
X124519732Y-109201823D01*
X124396890Y-109150940D01*
X124266482Y-109125000D01*
X124133518Y-109125000D01*
X124003110Y-109150940D01*
X123880268Y-109201823D01*
X123769713Y-109275693D01*
X123675693Y-109369713D01*
X123601823Y-109480268D01*
X123550940Y-109603110D01*
X123525000Y-109733518D01*
X109400000Y-109733518D01*
X109400000Y-107019563D01*
X109422831Y-106786716D01*
X109484773Y-106581553D01*
X109585384Y-106392332D01*
X109720837Y-106226251D01*
X109885959Y-106089650D01*
X110074478Y-105987718D01*
X110279196Y-105924347D01*
X110510845Y-105900000D01*
X149480437Y-105900000D01*
X149713284Y-105922831D01*
%TA.AperFunction,Conductor*%
D18*
G36*
X149713284Y-105922831D02*
G01*
X149918447Y-105984773D01*
X150107668Y-106085384D01*
X150273749Y-106220837D01*
X150410350Y-106385959D01*
X150512282Y-106574478D01*
X150575653Y-106779196D01*
X150600000Y-107010845D01*
X150600000Y-111003984D01*
X150494034Y-110898018D01*
X150367100Y-110813204D01*
X150226059Y-110754783D01*
X150076331Y-110725000D01*
X149923669Y-110725000D01*
X149773941Y-110754783D01*
X149632900Y-110813204D01*
X149505966Y-110898018D01*
X149398018Y-111005966D01*
X149375000Y-111040415D01*
X149351982Y-111005966D01*
X149244034Y-110898018D01*
X149117100Y-110813204D01*
X148976059Y-110754783D01*
X148826331Y-110725000D01*
X148673669Y-110725000D01*
X148523941Y-110754783D01*
X148382900Y-110813204D01*
X148255966Y-110898018D01*
X148148018Y-111005966D01*
X148125000Y-111040415D01*
X148101982Y-111005966D01*
X147994034Y-110898018D01*
X147867100Y-110813204D01*
X147726059Y-110754783D01*
X147576331Y-110725000D01*
X147423669Y-110725000D01*
X147273941Y-110754783D01*
X147132900Y-110813204D01*
X147005966Y-110898018D01*
X146898018Y-111005966D01*
X146813204Y-111132900D01*
X146754783Y-111273941D01*
X146725000Y-111423669D01*
X146725000Y-111576331D01*
X146754783Y-111726059D01*
X146813204Y-111867100D01*
X146898018Y-111994034D01*
X147005966Y-112101982D01*
X147132900Y-112186796D01*
X147273941Y-112245217D01*
X147423669Y-112275000D01*
X147576331Y-112275000D01*
X147726059Y-112245217D01*
X147867100Y-112186796D01*
X147994034Y-112101982D01*
X148101982Y-111994034D01*
X148125000Y-111959585D01*
X148148018Y-111994034D01*
X148255966Y-112101982D01*
X148382900Y-112186796D01*
X148523941Y-112245217D01*
X148673669Y-112275000D01*
X148826331Y-112275000D01*
X148976059Y-112245217D01*
X149117100Y-112186796D01*
X149244034Y-112101982D01*
X149351982Y-111994034D01*
X149375000Y-111959585D01*
X149398018Y-111994034D01*
X149505966Y-112101982D01*
X149632900Y-112186796D01*
X149773941Y-112245217D01*
X149923669Y-112275000D01*
X150076331Y-112275000D01*
X150226059Y-112245217D01*
X150367100Y-112186796D01*
X150494034Y-112101982D01*
X150600000Y-111996016D01*
X150600001Y-119003985D01*
X150494034Y-118898018D01*
X150367100Y-118813204D01*
X150226059Y-118754783D01*
X150076331Y-118725000D01*
X149923669Y-118725000D01*
X149773941Y-118754783D01*
X149632900Y-118813204D01*
X149505966Y-118898018D01*
X149398018Y-119005966D01*
X149375000Y-119040415D01*
X149351982Y-119005966D01*
X149244034Y-118898018D01*
X149117100Y-118813204D01*
X148976059Y-118754783D01*
X148826331Y-118725000D01*
X148673669Y-118725000D01*
X148523941Y-118754783D01*
X148382900Y-118813204D01*
X148255966Y-118898018D01*
X148148018Y-119005966D01*
X148125000Y-119040415D01*
X148101982Y-119005966D01*
X147994034Y-118898018D01*
X147867100Y-118813204D01*
X147726059Y-118754783D01*
X147576331Y-118725000D01*
X147423669Y-118725000D01*
X147273941Y-118754783D01*
X147132900Y-118813204D01*
X147005966Y-118898018D01*
X146898018Y-119005966D01*
X146813204Y-119132900D01*
X146754783Y-119273941D01*
X146725000Y-119423669D01*
X146725000Y-119576331D01*
X146754783Y-119726059D01*
X146813204Y-119867100D01*
X146898018Y-119994034D01*
X147005966Y-120101982D01*
X147132900Y-120186796D01*
X147273941Y-120245217D01*
X147423669Y-120275000D01*
X147576331Y-120275000D01*
X147726059Y-120245217D01*
X147867100Y-120186796D01*
X147994034Y-120101982D01*
X148101982Y-119994034D01*
X148125000Y-119959585D01*
X148148018Y-119994034D01*
X148255966Y-120101982D01*
X148382900Y-120186796D01*
X148523941Y-120245217D01*
X148673669Y-120275000D01*
X148826331Y-120275000D01*
X148976059Y-120245217D01*
X149117100Y-120186796D01*
X149244034Y-120101982D01*
X149351982Y-119994034D01*
X149375000Y-119959585D01*
X149398018Y-119994034D01*
X149505966Y-120101982D01*
X149632900Y-120186796D01*
X149773941Y-120245217D01*
X149923669Y-120275000D01*
X150076331Y-120275000D01*
X150226059Y-120245217D01*
X150367100Y-120186796D01*
X150494034Y-120101982D01*
X150600001Y-119996015D01*
X150600001Y-123980427D01*
X150577169Y-124213284D01*
X150515227Y-124418447D01*
X150414616Y-124607668D01*
X150279166Y-124773746D01*
X150114040Y-124910350D01*
X149925522Y-125012282D01*
X149720803Y-125075653D01*
X149489155Y-125100000D01*
X110519563Y-125100000D01*
X110286716Y-125077169D01*
X110081553Y-125015227D01*
X109892332Y-124914616D01*
X109726254Y-124779166D01*
X109589650Y-124614040D01*
X109487718Y-124425522D01*
X109424347Y-124220803D01*
X109400000Y-123989155D01*
X109400000Y-120298082D01*
X109435395Y-120364302D01*
X109557235Y-120512765D01*
X109705698Y-120634605D01*
X109875079Y-120725140D01*
X110058867Y-120780892D01*
X110202108Y-120795000D01*
X111597892Y-120795000D01*
X111741133Y-120780892D01*
X111924921Y-120725140D01*
X112094302Y-120634605D01*
X112242765Y-120512765D01*
X112364605Y-120364302D01*
X112455140Y-120194921D01*
X112510892Y-120011133D01*
X112529717Y-119820000D01*
X113245283Y-119820000D01*
X113264108Y-120011133D01*
X113319860Y-120194921D01*
X113410395Y-120364302D01*
X113532235Y-120512765D01*
X113680698Y-120634605D01*
X113850079Y-120725140D01*
X114033867Y-120780892D01*
X114177108Y-120795000D01*
X115272892Y-120795000D01*
X115416133Y-120780892D01*
X115599921Y-120725140D01*
X115769302Y-120634605D01*
X115917765Y-120512765D01*
X116039605Y-120364302D01*
X116130140Y-120194921D01*
X116185892Y-120011133D01*
X116204717Y-119820000D01*
X116185892Y-119628867D01*
X116130140Y-119445079D01*
X116092686Y-119375007D01*
X116226328Y-119375007D01*
X116376056Y-119345224D01*
X116517097Y-119286803D01*
X116572774Y-119249601D01*
X116601823Y-119319732D01*
X116675693Y-119430287D01*
X116769713Y-119524307D01*
X116880268Y-119598177D01*
X117003110Y-119649060D01*
X117133518Y-119675000D01*
X117266482Y-119675000D01*
X117396890Y-119649060D01*
X117519732Y-119598177D01*
X117630287Y-119524307D01*
X117724307Y-119430287D01*
X117735309Y-119413820D01*
X118295000Y-119413820D01*
X118295000Y-119586180D01*
X118328626Y-119755228D01*
X118394585Y-119914468D01*
X118490343Y-120057780D01*
X118567563Y-120135000D01*
X118490343Y-120212220D01*
X118394585Y-120355532D01*
X118328626Y-120514772D01*
X118295000Y-120683820D01*
X118295000Y-120856180D01*
X118328626Y-121025228D01*
X118394585Y-121184468D01*
X118490343Y-121327780D01*
X118612220Y-121449657D01*
X118755532Y-121545415D01*
X118914772Y-121611374D01*
X119083820Y-121645000D01*
X119256180Y-121645000D01*
X119425228Y-121611374D01*
X119584468Y-121545415D01*
X119727780Y-121449657D01*
X119805000Y-121372437D01*
X119882220Y-121449657D01*
X120025532Y-121545415D01*
X120184772Y-121611374D01*
X120353820Y-121645000D01*
X120526180Y-121645000D01*
X120695228Y-121611374D01*
X120854468Y-121545415D01*
X120997780Y-121449657D01*
X121075000Y-121372437D01*
X121152220Y-121449657D01*
X121295532Y-121545415D01*
X121454772Y-121611374D01*
X121623820Y-121645000D01*
X121796180Y-121645000D01*
X121965228Y-121611374D01*
X122124468Y-121545415D01*
X122267780Y-121449657D01*
X122345000Y-121372437D01*
X122422220Y-121449657D01*
X122565532Y-121545415D01*
X122724772Y-121611374D01*
X122893820Y-121645000D01*
X123066180Y-121645000D01*
X123235228Y-121611374D01*
X123394468Y-121545415D01*
X123537780Y-121449657D01*
X123615000Y-121372437D01*
X123692220Y-121449657D01*
X123835532Y-121545415D01*
X123994772Y-121611374D01*
X124163820Y-121645000D01*
X124336180Y-121645000D01*
X124505228Y-121611374D01*
X124664468Y-121545415D01*
X124807780Y-121449657D01*
X124929657Y-121327780D01*
X125025415Y-121184468D01*
X125046518Y-121133520D01*
X140225002Y-121133520D01*
X140225002Y-121266484D01*
X140250942Y-121396892D01*
X140301825Y-121519734D01*
X140375695Y-121630289D01*
X140469715Y-121724309D01*
X140580270Y-121798179D01*
X140703112Y-121849062D01*
X140833520Y-121875002D01*
X140966484Y-121875002D01*
X141096892Y-121849062D01*
X141219734Y-121798179D01*
X141330289Y-121724309D01*
X141424309Y-121630289D01*
X141498179Y-121519734D01*
X141549062Y-121396892D01*
X141575002Y-121266484D01*
X141575002Y-121133520D01*
X141549062Y-121003112D01*
X141498179Y-120880270D01*
X141424309Y-120769715D01*
X141330289Y-120675695D01*
X141219734Y-120601825D01*
X141096892Y-120550942D01*
X140966484Y-120525002D01*
X140833520Y-120525002D01*
X140703112Y-120550942D01*
X140580270Y-120601825D01*
X140469715Y-120675695D01*
X140375695Y-120769715D01*
X140301825Y-120880270D01*
X140250942Y-121003112D01*
X140225002Y-121133520D01*
X125046518Y-121133520D01*
X125091374Y-121025228D01*
X125125000Y-120856180D01*
X125125000Y-120683820D01*
X125093431Y-120525112D01*
X125098911Y-120522183D01*
X125194080Y-120444080D01*
X125272183Y-120348911D01*
X125330219Y-120240334D01*
X125365957Y-120122521D01*
X125378024Y-120000000D01*
X125377797Y-119983518D01*
X135025000Y-119983518D01*
X135025000Y-120116482D01*
X135050940Y-120246890D01*
X135101823Y-120369732D01*
X135175693Y-120480287D01*
X135269713Y-120574307D01*
X135380268Y-120648177D01*
X135503110Y-120699060D01*
X135633518Y-120725000D01*
X135766482Y-120725000D01*
X135896890Y-120699060D01*
X136019732Y-120648177D01*
X136130287Y-120574307D01*
X136224307Y-120480287D01*
X136298177Y-120369732D01*
X136349060Y-120246890D01*
X136375000Y-120116482D01*
X136375000Y-119983518D01*
X136349060Y-119853110D01*
X136298177Y-119730268D01*
X136224307Y-119619713D01*
X136130287Y-119525693D01*
X136019732Y-119451823D01*
X135896890Y-119400940D01*
X135766482Y-119375000D01*
X135633518Y-119375000D01*
X135503110Y-119400940D01*
X135380268Y-119451823D01*
X135269713Y-119525693D01*
X135175693Y-119619713D01*
X135101823Y-119730268D01*
X135050940Y-119853110D01*
X135025000Y-119983518D01*
X125377797Y-119983518D01*
X125375000Y-119781250D01*
X125218750Y-119625000D01*
X124375000Y-119625000D01*
X124375000Y-119645000D01*
X124125000Y-119645000D01*
X124125000Y-119625000D01*
X124105000Y-119625000D01*
X124105000Y-119375000D01*
X124125000Y-119375000D01*
X124125000Y-118531250D01*
X124375000Y-118531250D01*
X124375000Y-119375000D01*
X125218750Y-119375000D01*
X125375000Y-119218750D01*
X125376178Y-119133512D01*
X126024994Y-119133512D01*
X126024994Y-119266476D01*
X126050934Y-119396884D01*
X126101817Y-119519726D01*
X126175687Y-119630281D01*
X126269707Y-119724301D01*
X126380262Y-119798171D01*
X126503104Y-119849054D01*
X126633512Y-119874994D01*
X126766476Y-119874994D01*
X126896884Y-119849054D01*
X127019726Y-119798171D01*
X127130281Y-119724301D01*
X127224301Y-119630281D01*
X127298171Y-119519726D01*
X127349054Y-119396884D01*
X127374994Y-119266476D01*
X127374994Y-119133512D01*
X127349054Y-119003104D01*
X127298171Y-118880262D01*
X127224301Y-118769707D01*
X127130281Y-118675687D01*
X127019726Y-118601817D01*
X126896884Y-118550934D01*
X126766476Y-118524994D01*
X126633512Y-118524994D01*
X126503104Y-118550934D01*
X126380262Y-118601817D01*
X126269707Y-118675687D01*
X126175687Y-118769707D01*
X126101817Y-118880262D01*
X126050934Y-119003104D01*
X126024994Y-119133512D01*
X125376178Y-119133512D01*
X125378024Y-119000000D01*
X125365957Y-118877479D01*
X125330219Y-118759666D01*
X125272183Y-118651089D01*
X125194080Y-118555920D01*
X125098911Y-118477817D01*
X124990334Y-118419781D01*
X124872521Y-118384043D01*
X124750000Y-118371976D01*
X124531250Y-118375000D01*
X124375000Y-118531250D01*
X124125000Y-118531250D01*
X123968750Y-118375000D01*
X123750000Y-118371976D01*
X123627479Y-118384043D01*
X123509666Y-118419781D01*
X123401089Y-118477817D01*
X123305920Y-118555920D01*
X123227817Y-118651089D01*
X123224888Y-118656569D01*
X123066180Y-118625000D01*
X122893820Y-118625000D01*
X122724772Y-118658626D01*
X122565532Y-118724585D01*
X122422220Y-118820343D01*
X122345000Y-118897563D01*
X122267780Y-118820343D01*
X122124468Y-118724585D01*
X121965228Y-118658626D01*
X121796180Y-118625000D01*
X121623820Y-118625000D01*
X121454772Y-118658626D01*
X121295532Y-118724585D01*
X121152220Y-118820343D01*
X121075000Y-118897563D01*
X120997780Y-118820343D01*
X120854468Y-118724585D01*
X120695228Y-118658626D01*
X120526180Y-118625000D01*
X120353820Y-118625000D01*
X120184772Y-118658626D01*
X120025532Y-118724585D01*
X119882220Y-118820343D01*
X119805000Y-118897563D01*
X119727780Y-118820343D01*
X119584468Y-118724585D01*
X119425228Y-118658626D01*
X119256180Y-118625000D01*
X119083820Y-118625000D01*
X118914772Y-118658626D01*
X118755532Y-118724585D01*
X118612220Y-118820343D01*
X118490343Y-118942220D01*
X118394585Y-119085532D01*
X118328626Y-119244772D01*
X118295000Y-119413820D01*
X117735309Y-119413820D01*
X117798177Y-119319732D01*
X117849060Y-119196890D01*
X117875000Y-119066482D01*
X117875000Y-118933518D01*
X117849060Y-118803110D01*
X117798177Y-118680268D01*
X117724307Y-118569713D01*
X117630287Y-118475693D01*
X117519732Y-118401823D01*
X117396890Y-118350940D01*
X117266482Y-118325000D01*
X117133518Y-118325000D01*
X117003110Y-118350940D01*
X116899199Y-118393982D01*
X116895214Y-118373948D01*
X116836793Y-118232907D01*
X116803793Y-118183518D01*
X134075000Y-118183518D01*
X134075000Y-118316482D01*
X134100940Y-118446890D01*
X134151823Y-118569732D01*
X134225693Y-118680287D01*
X134319713Y-118774307D01*
X134430268Y-118848177D01*
X134553110Y-118899060D01*
X134683518Y-118925000D01*
X134816482Y-118925000D01*
X134946890Y-118899060D01*
X135069732Y-118848177D01*
X135180287Y-118774307D01*
X135274307Y-118680287D01*
X135348177Y-118569732D01*
X135399060Y-118446890D01*
X135425000Y-118316482D01*
X135425000Y-118183518D01*
X135405209Y-118084021D01*
X136526483Y-118084021D01*
X136526483Y-118216985D01*
X136552423Y-118347393D01*
X136603306Y-118470235D01*
X136677176Y-118580790D01*
X136771196Y-118674810D01*
X136881751Y-118748680D01*
X137004593Y-118799563D01*
X137135001Y-118825503D01*
X137267965Y-118825503D01*
X137398373Y-118799563D01*
X137521215Y-118748680D01*
X137631770Y-118674810D01*
X137725790Y-118580790D01*
X137799660Y-118470235D01*
X137850543Y-118347393D01*
X137876483Y-118216985D01*
X137876483Y-118084021D01*
X137850543Y-117953613D01*
X137799660Y-117830771D01*
X137725790Y-117720216D01*
X137631770Y-117626196D01*
X137521215Y-117552326D01*
X137398373Y-117501443D01*
X137267965Y-117475503D01*
X137135001Y-117475503D01*
X137004593Y-117501443D01*
X136881751Y-117552326D01*
X136771196Y-117626196D01*
X136677176Y-117720216D01*
X136603306Y-117830771D01*
X136552423Y-117953613D01*
X136526483Y-118084021D01*
X135405209Y-118084021D01*
X135399060Y-118053110D01*
X135348177Y-117930268D01*
X135274307Y-117819713D01*
X135180287Y-117725693D01*
X135069732Y-117651823D01*
X134946890Y-117600940D01*
X134816482Y-117575000D01*
X134683518Y-117575000D01*
X134553110Y-117600940D01*
X134430268Y-117651823D01*
X134319713Y-117725693D01*
X134225693Y-117819713D01*
X134151823Y-117930268D01*
X134100940Y-118053110D01*
X134075000Y-118183518D01*
X116803793Y-118183518D01*
X116751979Y-118105973D01*
X116644031Y-117998025D01*
X116517097Y-117913211D01*
X116376056Y-117854790D01*
X116226328Y-117825007D01*
X116073666Y-117825007D01*
X115923938Y-117854790D01*
X115782897Y-117913211D01*
X115655963Y-117998025D01*
X115548015Y-118105973D01*
X115463201Y-118232907D01*
X115404780Y-118373948D01*
X115374997Y-118523676D01*
X115374997Y-118676338D01*
X115404780Y-118826066D01*
X115418802Y-118859918D01*
X115416133Y-118859108D01*
X115272892Y-118845000D01*
X114638637Y-118845000D01*
X114665233Y-118757323D01*
X114675000Y-118658159D01*
X114675000Y-118341842D01*
X114665233Y-118242678D01*
X114626636Y-118115440D01*
X114563958Y-117998176D01*
X114479606Y-117895394D01*
X114376824Y-117811042D01*
X114259561Y-117748364D01*
X114132323Y-117709767D01*
X114000000Y-117696734D01*
X113867678Y-117709767D01*
X113740440Y-117748364D01*
X113623177Y-117811042D01*
X113520395Y-117895394D01*
X113436042Y-117998176D01*
X113373364Y-118115439D01*
X113334767Y-118242677D01*
X113325000Y-118341841D01*
X113325000Y-118658158D01*
X113334767Y-118757322D01*
X113373364Y-118884560D01*
X113436042Y-119001823D01*
X113520394Y-119104605D01*
X113540102Y-119120779D01*
X113532235Y-119127235D01*
X113410395Y-119275698D01*
X113319860Y-119445079D01*
X113264108Y-119628867D01*
X113245283Y-119820000D01*
X112529717Y-119820000D01*
X112510892Y-119628867D01*
X112455140Y-119445079D01*
X112364605Y-119275698D01*
X112242765Y-119127235D01*
X112094302Y-119005395D01*
X111924921Y-118914860D01*
X111741133Y-118859108D01*
X111597892Y-118845000D01*
X110202108Y-118845000D01*
X110058867Y-118859108D01*
X109875079Y-118914860D01*
X109705698Y-119005395D01*
X109557235Y-119127235D01*
X109435395Y-119275698D01*
X109400000Y-119341918D01*
X109400000Y-115397490D01*
X120575000Y-115397490D01*
X120575000Y-115530454D01*
X120600940Y-115660862D01*
X120651823Y-115783704D01*
X120725693Y-115894259D01*
X120813420Y-115981986D01*
X120725693Y-116069713D01*
X120651823Y-116180268D01*
X120600940Y-116303110D01*
X120575000Y-116433518D01*
X120575000Y-116566482D01*
X120600940Y-116696890D01*
X120651823Y-116819732D01*
X120725693Y-116930287D01*
X120819713Y-117024307D01*
X120930268Y-117098177D01*
X121053110Y-117149060D01*
X121183518Y-117175000D01*
X121316482Y-117175000D01*
X121446890Y-117149060D01*
X121569732Y-117098177D01*
X121680287Y-117024307D01*
X121774307Y-116930287D01*
X121838965Y-116833518D01*
X133325000Y-116833518D01*
X133325000Y-116966482D01*
X133350940Y-117096890D01*
X133401823Y-117219732D01*
X133475693Y-117330287D01*
X133569713Y-117424307D01*
X133680268Y-117498177D01*
X133803110Y-117549060D01*
X133933518Y-117575000D01*
X134066482Y-117575000D01*
X134196890Y-117549060D01*
X134319732Y-117498177D01*
X134430287Y-117424307D01*
X134524307Y-117330287D01*
X134598177Y-117219732D01*
X134649060Y-117096890D01*
X134675000Y-116966482D01*
X134675000Y-116933518D01*
X143425000Y-116933518D01*
X143425000Y-117066482D01*
X143450940Y-117196890D01*
X143501823Y-117319732D01*
X143575693Y-117430287D01*
X143645406Y-117500000D01*
X143575693Y-117569713D01*
X143501823Y-117680268D01*
X143450940Y-117803110D01*
X143425000Y-117933518D01*
X143425000Y-118066482D01*
X143450940Y-118196890D01*
X143501823Y-118319732D01*
X143575693Y-118430287D01*
X143669713Y-118524307D01*
X143780268Y-118598177D01*
X143903110Y-118649060D01*
X144033518Y-118675000D01*
X144166482Y-118675000D01*
X144296890Y-118649060D01*
X144419732Y-118598177D01*
X144530287Y-118524307D01*
X144624307Y-118430287D01*
X144698177Y-118319732D01*
X144737967Y-118223669D01*
X145125000Y-118223669D01*
X145125000Y-118376331D01*
X145154783Y-118526059D01*
X145213204Y-118667100D01*
X145298018Y-118794034D01*
X145405966Y-118901982D01*
X145532900Y-118986796D01*
X145673941Y-119045217D01*
X145823669Y-119075000D01*
X145976331Y-119075000D01*
X146126059Y-119045217D01*
X146267100Y-118986796D01*
X146394034Y-118901982D01*
X146501982Y-118794034D01*
X146586796Y-118667100D01*
X146645217Y-118526059D01*
X146675000Y-118376331D01*
X146675000Y-118223669D01*
X146645217Y-118073941D01*
X146586796Y-117932900D01*
X146501982Y-117805966D01*
X146394034Y-117698018D01*
X146267100Y-117613204D01*
X146126059Y-117554783D01*
X145976331Y-117525000D01*
X145823669Y-117525000D01*
X145673941Y-117554783D01*
X145532900Y-117613204D01*
X145405966Y-117698018D01*
X145298018Y-117805966D01*
X145213204Y-117932900D01*
X145154783Y-118073941D01*
X145125000Y-118223669D01*
X144737967Y-118223669D01*
X144749060Y-118196890D01*
X144775000Y-118066482D01*
X144775000Y-117933518D01*
X144749060Y-117803110D01*
X144698177Y-117680268D01*
X144624307Y-117569713D01*
X144554594Y-117500000D01*
X144624307Y-117430287D01*
X144698177Y-117319732D01*
X144749060Y-117196890D01*
X144775000Y-117066482D01*
X144775000Y-116933518D01*
X144749060Y-116803110D01*
X144698177Y-116680268D01*
X144624307Y-116569713D01*
X144530287Y-116475693D01*
X144419732Y-116401823D01*
X144296890Y-116350940D01*
X144166482Y-116325000D01*
X144033518Y-116325000D01*
X143903110Y-116350940D01*
X143780268Y-116401823D01*
X143669713Y-116475693D01*
X143575693Y-116569713D01*
X143501823Y-116680268D01*
X143450940Y-116803110D01*
X143425000Y-116933518D01*
X134675000Y-116933518D01*
X134675000Y-116833518D01*
X134649060Y-116703110D01*
X134598177Y-116580268D01*
X134524307Y-116469713D01*
X134430287Y-116375693D01*
X134319732Y-116301823D01*
X134196890Y-116250940D01*
X134066482Y-116225000D01*
X133933518Y-116225000D01*
X133803110Y-116250940D01*
X133680268Y-116301823D01*
X133569713Y-116375693D01*
X133475693Y-116469713D01*
X133401823Y-116580268D01*
X133350940Y-116703110D01*
X133325000Y-116833518D01*
X121838965Y-116833518D01*
X121848177Y-116819732D01*
X121899060Y-116696890D01*
X121925000Y-116566482D01*
X121925000Y-116433518D01*
X121899060Y-116303110D01*
X121848177Y-116180268D01*
X121774307Y-116069713D01*
X121686580Y-115981986D01*
X121774307Y-115894259D01*
X121848177Y-115783704D01*
X121899060Y-115660862D01*
X121921374Y-115548682D01*
X123350013Y-115548682D01*
X123350013Y-115701344D01*
X123379796Y-115851072D01*
X123438217Y-115992113D01*
X123523031Y-116119047D01*
X123630979Y-116226995D01*
X123757913Y-116311809D01*
X123898954Y-116370230D01*
X124048682Y-116400013D01*
X124201344Y-116400013D01*
X124351072Y-116370230D01*
X124492113Y-116311809D01*
X124619047Y-116226995D01*
X124726995Y-116119047D01*
X124811809Y-115992113D01*
X124870230Y-115851072D01*
X124900013Y-115701344D01*
X124900013Y-115548682D01*
X124870230Y-115398954D01*
X124811809Y-115257913D01*
X124726995Y-115130979D01*
X124619047Y-115023031D01*
X124492113Y-114938217D01*
X124351072Y-114879796D01*
X124201344Y-114850013D01*
X124048682Y-114850013D01*
X123898954Y-114879796D01*
X123757913Y-114938217D01*
X123630979Y-115023031D01*
X123523031Y-115130979D01*
X123438217Y-115257913D01*
X123379796Y-115398954D01*
X123350013Y-115548682D01*
X121921374Y-115548682D01*
X121925000Y-115530454D01*
X121925000Y-115397490D01*
X121899060Y-115267082D01*
X121848177Y-115144240D01*
X121774307Y-115033685D01*
X121680287Y-114939665D01*
X121569732Y-114865795D01*
X121491809Y-114833518D01*
X128625000Y-114833518D01*
X128625000Y-114966482D01*
X128650940Y-115096890D01*
X128701823Y-115219732D01*
X128775693Y-115330287D01*
X128869713Y-115424307D01*
X128980268Y-115498177D01*
X128984669Y-115500000D01*
X128980268Y-115501823D01*
X128869713Y-115575693D01*
X128775693Y-115669713D01*
X128701823Y-115780268D01*
X128650940Y-115903110D01*
X128625000Y-116033518D01*
X128625000Y-116166482D01*
X128650940Y-116296890D01*
X128701823Y-116419732D01*
X128775693Y-116530287D01*
X128869713Y-116624307D01*
X128980268Y-116698177D01*
X129103110Y-116749060D01*
X129233518Y-116775000D01*
X129366482Y-116775000D01*
X129496890Y-116749060D01*
X129619732Y-116698177D01*
X129730287Y-116624307D01*
X129824307Y-116530287D01*
X129898177Y-116419732D01*
X129900000Y-116415331D01*
X129901823Y-116419732D01*
X129975693Y-116530287D01*
X130069713Y-116624307D01*
X130180268Y-116698177D01*
X130303110Y-116749060D01*
X130433518Y-116775000D01*
X130566482Y-116775000D01*
X130696890Y-116749060D01*
X130819732Y-116698177D01*
X130930287Y-116624307D01*
X131024307Y-116530287D01*
X131098177Y-116419732D01*
X131149060Y-116296890D01*
X131175000Y-116166482D01*
X131175000Y-116033518D01*
X131149060Y-115903110D01*
X131098177Y-115780268D01*
X131024307Y-115669713D01*
X130930287Y-115575693D01*
X130819732Y-115501823D01*
X130815331Y-115500000D01*
X130819732Y-115498177D01*
X130930287Y-115424307D01*
X131024307Y-115330287D01*
X131098177Y-115219732D01*
X131136855Y-115126354D01*
X133317941Y-115126354D01*
X133317941Y-115259318D01*
X133343881Y-115389726D01*
X133394764Y-115512568D01*
X133468634Y-115623123D01*
X133562654Y-115717143D01*
X133673209Y-115791013D01*
X133796051Y-115841896D01*
X133926459Y-115867836D01*
X134059423Y-115867836D01*
X134189831Y-115841896D01*
X134312673Y-115791013D01*
X134423228Y-115717143D01*
X134517248Y-115623123D01*
X134591118Y-115512568D01*
X134642001Y-115389726D01*
X134667941Y-115259318D01*
X134667941Y-115126354D01*
X134649475Y-115033518D01*
X135725000Y-115033518D01*
X135725000Y-115166482D01*
X135750940Y-115296890D01*
X135801823Y-115419732D01*
X135875693Y-115530287D01*
X135969713Y-115624307D01*
X136080268Y-115698177D01*
X136203110Y-115749060D01*
X136333518Y-115775000D01*
X136425000Y-115775000D01*
X136425000Y-115866482D01*
X136450940Y-115996890D01*
X136501823Y-116119732D01*
X136575693Y-116230287D01*
X136669713Y-116324307D01*
X136780268Y-116398177D01*
X136903110Y-116449060D01*
X137033518Y-116475000D01*
X137166482Y-116475000D01*
X137296890Y-116449060D01*
X137419732Y-116398177D01*
X137530287Y-116324307D01*
X137624307Y-116230287D01*
X137698177Y-116119732D01*
X137749060Y-115996890D01*
X137775000Y-115866482D01*
X137775000Y-115775000D01*
X137866482Y-115775000D01*
X137996890Y-115749060D01*
X138119732Y-115698177D01*
X138230287Y-115624307D01*
X138324307Y-115530287D01*
X138398177Y-115419732D01*
X138449060Y-115296890D01*
X138475000Y-115166482D01*
X138475000Y-115033518D01*
X138449060Y-114903110D01*
X138398177Y-114780268D01*
X138324307Y-114669713D01*
X138230287Y-114575693D01*
X138119732Y-114501823D01*
X137996890Y-114450940D01*
X137866482Y-114425000D01*
X137775000Y-114425000D01*
X137775000Y-114333518D01*
X137749060Y-114203110D01*
X137709228Y-114106946D01*
X139325000Y-114106946D01*
X139325000Y-114239910D01*
X139350940Y-114370318D01*
X139401823Y-114493160D01*
X139475693Y-114603715D01*
X139569713Y-114697735D01*
X139680268Y-114771605D01*
X139803110Y-114822488D01*
X139933518Y-114848428D01*
X140066482Y-114848428D01*
X140196890Y-114822488D01*
X140319732Y-114771605D01*
X140430287Y-114697735D01*
X140524307Y-114603715D01*
X140598177Y-114493160D01*
X140649060Y-114370318D01*
X140675000Y-114239910D01*
X140675000Y-114106946D01*
X140649060Y-113976538D01*
X140598177Y-113853696D01*
X140524307Y-113743141D01*
X140430287Y-113649121D01*
X140319732Y-113575251D01*
X140196890Y-113524368D01*
X140066482Y-113498428D01*
X139933518Y-113498428D01*
X139803110Y-113524368D01*
X139680268Y-113575251D01*
X139569713Y-113649121D01*
X139475693Y-113743141D01*
X139401823Y-113853696D01*
X139350940Y-113976538D01*
X139325000Y-114106946D01*
X137709228Y-114106946D01*
X137698177Y-114080268D01*
X137624307Y-113969713D01*
X137530287Y-113875693D01*
X137419732Y-113801823D01*
X137296890Y-113750940D01*
X137166482Y-113725000D01*
X137033518Y-113725000D01*
X136903110Y-113750940D01*
X136780268Y-113801823D01*
X136669713Y-113875693D01*
X136575693Y-113969713D01*
X136501823Y-114080268D01*
X136450940Y-114203110D01*
X136425000Y-114333518D01*
X136425000Y-114425000D01*
X136333518Y-114425000D01*
X136203110Y-114450940D01*
X136080268Y-114501823D01*
X135969713Y-114575693D01*
X135875693Y-114669713D01*
X135801823Y-114780268D01*
X135750940Y-114903110D01*
X135725000Y-115033518D01*
X134649475Y-115033518D01*
X134642001Y-114995946D01*
X134591118Y-114873104D01*
X134517248Y-114762549D01*
X134423228Y-114668529D01*
X134312673Y-114594659D01*
X134189831Y-114543776D01*
X134059423Y-114517836D01*
X133926459Y-114517836D01*
X133796051Y-114543776D01*
X133673209Y-114594659D01*
X133562654Y-114668529D01*
X133468634Y-114762549D01*
X133394764Y-114873104D01*
X133343881Y-114995946D01*
X133317941Y-115126354D01*
X131136855Y-115126354D01*
X131149060Y-115096890D01*
X131175000Y-114966482D01*
X131175000Y-114833518D01*
X131149060Y-114703110D01*
X131098177Y-114580268D01*
X131024307Y-114469713D01*
X130930287Y-114375693D01*
X130819732Y-114301823D01*
X130696890Y-114250940D01*
X130566482Y-114225000D01*
X130433518Y-114225000D01*
X130303110Y-114250940D01*
X130180268Y-114301823D01*
X130069713Y-114375693D01*
X129975693Y-114469713D01*
X129901823Y-114580268D01*
X129900000Y-114584669D01*
X129898177Y-114580268D01*
X129824307Y-114469713D01*
X129730287Y-114375693D01*
X129619732Y-114301823D01*
X129496890Y-114250940D01*
X129366482Y-114225000D01*
X129233518Y-114225000D01*
X129103110Y-114250940D01*
X128980268Y-114301823D01*
X128869713Y-114375693D01*
X128775693Y-114469713D01*
X128701823Y-114580268D01*
X128650940Y-114703110D01*
X128625000Y-114833518D01*
X121491809Y-114833518D01*
X121446890Y-114814912D01*
X121316482Y-114788972D01*
X121183518Y-114788972D01*
X121053110Y-114814912D01*
X120930268Y-114865795D01*
X120819713Y-114939665D01*
X120725693Y-115033685D01*
X120651823Y-115144240D01*
X120600940Y-115267082D01*
X120575000Y-115397490D01*
X109400000Y-115397490D01*
X109400000Y-114028516D01*
X112725000Y-114028516D01*
X112725000Y-114161480D01*
X112750940Y-114291888D01*
X112801823Y-114414730D01*
X112875693Y-114525285D01*
X112969713Y-114619305D01*
X113080268Y-114693175D01*
X113203110Y-114744058D01*
X113333518Y-114769998D01*
X113466482Y-114769998D01*
X113596890Y-114744058D01*
X113719732Y-114693175D01*
X113830287Y-114619305D01*
X113924307Y-114525285D01*
X113998177Y-114414730D01*
X114004805Y-114398727D01*
X118517788Y-114398727D01*
X118517788Y-114531691D01*
X118543728Y-114662099D01*
X118594611Y-114784941D01*
X118668481Y-114895496D01*
X118762501Y-114989516D01*
X118873056Y-115063386D01*
X118995898Y-115114269D01*
X119126306Y-115140209D01*
X119259270Y-115140209D01*
X119389678Y-115114269D01*
X119512520Y-115063386D01*
X119623075Y-114989516D01*
X119717095Y-114895496D01*
X119790965Y-114784941D01*
X119841848Y-114662099D01*
X119867788Y-114531691D01*
X119867788Y-114398727D01*
X119841848Y-114268319D01*
X119790965Y-114145477D01*
X119717095Y-114034922D01*
X119623075Y-113940902D01*
X119512520Y-113867032D01*
X119389678Y-113816149D01*
X119259270Y-113790209D01*
X119126306Y-113790209D01*
X118995898Y-113816149D01*
X118873056Y-113867032D01*
X118762501Y-113940902D01*
X118668481Y-114034922D01*
X118594611Y-114145477D01*
X118543728Y-114268319D01*
X118517788Y-114398727D01*
X114004805Y-114398727D01*
X114049060Y-114291888D01*
X114075000Y-114161480D01*
X114075000Y-114028516D01*
X114049060Y-113898108D01*
X113998177Y-113775266D01*
X113924307Y-113664711D01*
X113830287Y-113570691D01*
X113759950Y-113523693D01*
X121124976Y-113523693D01*
X121124976Y-113676355D01*
X121154759Y-113826083D01*
X121213180Y-113967124D01*
X121297994Y-114094058D01*
X121405942Y-114202006D01*
X121532876Y-114286820D01*
X121673917Y-114345241D01*
X121823645Y-114375024D01*
X121976307Y-114375024D01*
X122126035Y-114345241D01*
X122267076Y-114286820D01*
X122394010Y-114202006D01*
X122501958Y-114094058D01*
X122586772Y-113967124D01*
X122645193Y-113826083D01*
X122674976Y-113676355D01*
X122674976Y-113523693D01*
X122645193Y-113373965D01*
X122628440Y-113333518D01*
X144825000Y-113333518D01*
X144825000Y-113466482D01*
X144850940Y-113596890D01*
X144901823Y-113719732D01*
X144975693Y-113830287D01*
X145069713Y-113924307D01*
X145180268Y-113998177D01*
X145303110Y-114049060D01*
X145433518Y-114075000D01*
X145566482Y-114075000D01*
X145696890Y-114049060D01*
X145819732Y-113998177D01*
X145930287Y-113924307D01*
X146024307Y-113830287D01*
X146098177Y-113719732D01*
X146149060Y-113596890D01*
X146175000Y-113466482D01*
X146175000Y-113333518D01*
X146149060Y-113203110D01*
X146098177Y-113080268D01*
X146024307Y-112969713D01*
X145930287Y-112875693D01*
X145819732Y-112801823D01*
X145696890Y-112750940D01*
X145566482Y-112725000D01*
X145433518Y-112725000D01*
X145303110Y-112750940D01*
X145180268Y-112801823D01*
X145069713Y-112875693D01*
X144975693Y-112969713D01*
X144901823Y-113080268D01*
X144850940Y-113203110D01*
X144825000Y-113333518D01*
X122628440Y-113333518D01*
X122586772Y-113232924D01*
X122501958Y-113105990D01*
X122394010Y-112998042D01*
X122267076Y-112913228D01*
X122126035Y-112854807D01*
X121976307Y-112825024D01*
X121823645Y-112825024D01*
X121673917Y-112854807D01*
X121532876Y-112913228D01*
X121405942Y-112998042D01*
X121297994Y-113105990D01*
X121213180Y-113232924D01*
X121154759Y-113373965D01*
X121124976Y-113523693D01*
X113759950Y-113523693D01*
X113719732Y-113496821D01*
X113596890Y-113445938D01*
X113466482Y-113419998D01*
X113333518Y-113419998D01*
X113203110Y-113445938D01*
X113080268Y-113496821D01*
X112969713Y-113570691D01*
X112875693Y-113664711D01*
X112801823Y-113775266D01*
X112750940Y-113898108D01*
X112725000Y-114028516D01*
X109400000Y-114028516D01*
X109400000Y-111658082D01*
X109435395Y-111724302D01*
X109557235Y-111872765D01*
X109705698Y-111994605D01*
X109875079Y-112085140D01*
X110058867Y-112140892D01*
X110202108Y-112155000D01*
X111597892Y-112155000D01*
X111741133Y-112140892D01*
X111924921Y-112085140D01*
X112094302Y-111994605D01*
X112242765Y-111872765D01*
X112364605Y-111724302D01*
X112455140Y-111554921D01*
X112510892Y-111371133D01*
X112529717Y-111180000D01*
X113245283Y-111180000D01*
X113264108Y-111371133D01*
X113319860Y-111554921D01*
X113410395Y-111724302D01*
X113532235Y-111872765D01*
X113618187Y-111943304D01*
X113569713Y-111975693D01*
X113475693Y-112069713D01*
X113401823Y-112180268D01*
X113350940Y-112303110D01*
X113325000Y-112433518D01*
X113325000Y-112566482D01*
X113350940Y-112696890D01*
X113401823Y-112819732D01*
X113475693Y-112930287D01*
X113569713Y-113024307D01*
X113680268Y-113098177D01*
X113803110Y-113149060D01*
X113933518Y-113175000D01*
X114066482Y-113175000D01*
X114196890Y-113149060D01*
X114319732Y-113098177D01*
X114430287Y-113024307D01*
X114524307Y-112930287D01*
X114598177Y-112819732D01*
X114649060Y-112696890D01*
X114675000Y-112566482D01*
X114675000Y-112433518D01*
X114649060Y-112303110D01*
X114598177Y-112180268D01*
X114581294Y-112155000D01*
X115088405Y-112155000D01*
X115087618Y-112158954D01*
X115087618Y-112311616D01*
X115117401Y-112461344D01*
X115175822Y-112602385D01*
X115260636Y-112729319D01*
X115368584Y-112837267D01*
X115495518Y-112922081D01*
X115636559Y-112980502D01*
X115786287Y-113010285D01*
X115938949Y-113010285D01*
X116088677Y-112980502D01*
X116229718Y-112922081D01*
X116356652Y-112837267D01*
X116464600Y-112729319D01*
X116549414Y-112602385D01*
X116607835Y-112461344D01*
X116637618Y-112311616D01*
X116637618Y-112173669D01*
X122725000Y-112173669D01*
X122725000Y-112326331D01*
X122754783Y-112476059D01*
X122813204Y-112617100D01*
X122898018Y-112744034D01*
X123005966Y-112851982D01*
X123132900Y-112936796D01*
X123273941Y-112995217D01*
X123423669Y-113025000D01*
X123576331Y-113025000D01*
X123726059Y-112995217D01*
X123867100Y-112936796D01*
X123994034Y-112851982D01*
X124101982Y-112744034D01*
X124186796Y-112617100D01*
X124245217Y-112476059D01*
X124275000Y-112326331D01*
X124275000Y-112173669D01*
X124248102Y-112038443D01*
X130175000Y-112038443D01*
X130175000Y-112161557D01*
X130199019Y-112282306D01*
X130246132Y-112396048D01*
X130314531Y-112498414D01*
X130401586Y-112585469D01*
X130503952Y-112653868D01*
X130617694Y-112700981D01*
X130738443Y-112725000D01*
X130861557Y-112725000D01*
X130982306Y-112700981D01*
X131096048Y-112653868D01*
X131198414Y-112585469D01*
X131285469Y-112498414D01*
X131353868Y-112396048D01*
X131400981Y-112282306D01*
X131425000Y-112161557D01*
X131425000Y-112038443D01*
X131404129Y-111933518D01*
X133825000Y-111933518D01*
X133825000Y-112066482D01*
X133850940Y-112196890D01*
X133901823Y-112319732D01*
X133975693Y-112430287D01*
X134069713Y-112524307D01*
X134180268Y-112598177D01*
X134303110Y-112649060D01*
X134433518Y-112675000D01*
X134566482Y-112675000D01*
X134696890Y-112649060D01*
X134819732Y-112598177D01*
X134930287Y-112524307D01*
X135024307Y-112430287D01*
X135098177Y-112319732D01*
X135149060Y-112196890D01*
X135175000Y-112066482D01*
X135175000Y-111933518D01*
X135149060Y-111803110D01*
X135098177Y-111680268D01*
X135024307Y-111569713D01*
X134930287Y-111475693D01*
X134819732Y-111401823D01*
X134696890Y-111350940D01*
X134566482Y-111325000D01*
X134433518Y-111325000D01*
X134303110Y-111350940D01*
X134180268Y-111401823D01*
X134069713Y-111475693D01*
X133975693Y-111569713D01*
X133901823Y-111680268D01*
X133850940Y-111803110D01*
X133825000Y-111933518D01*
X131404129Y-111933518D01*
X131400981Y-111917694D01*
X131353868Y-111803952D01*
X131285469Y-111701586D01*
X131198414Y-111614531D01*
X131096048Y-111546132D01*
X130982306Y-111499019D01*
X130861557Y-111475000D01*
X130738443Y-111475000D01*
X130617694Y-111499019D01*
X130503952Y-111546132D01*
X130401586Y-111614531D01*
X130314531Y-111701586D01*
X130246132Y-111803952D01*
X130199019Y-111917694D01*
X130175000Y-112038443D01*
X124248102Y-112038443D01*
X124245217Y-112023941D01*
X124186796Y-111882900D01*
X124101982Y-111755966D01*
X123994034Y-111648018D01*
X123867100Y-111563204D01*
X123726059Y-111504783D01*
X123576331Y-111475000D01*
X123423669Y-111475000D01*
X123273941Y-111504783D01*
X123132900Y-111563204D01*
X123005966Y-111648018D01*
X122898018Y-111755966D01*
X122813204Y-111882900D01*
X122754783Y-112023941D01*
X122725000Y-112173669D01*
X116637618Y-112173669D01*
X116637618Y-112158954D01*
X116607835Y-112009226D01*
X116549414Y-111868185D01*
X116464600Y-111741251D01*
X116356652Y-111633303D01*
X116229718Y-111548489D01*
X116142989Y-111512565D01*
X116185892Y-111371133D01*
X116204717Y-111180000D01*
X116185892Y-110988867D01*
X116130140Y-110805079D01*
X116039605Y-110635698D01*
X115917765Y-110487235D01*
X115769302Y-110365395D01*
X115599921Y-110274860D01*
X115416133Y-110219108D01*
X115272892Y-110205000D01*
X114177108Y-110205000D01*
X114033867Y-110219108D01*
X113850079Y-110274860D01*
X113680698Y-110365395D01*
X113532235Y-110487235D01*
X113410395Y-110635698D01*
X113319860Y-110805079D01*
X113264108Y-110988867D01*
X113245283Y-111180000D01*
X112529717Y-111180000D01*
X112510892Y-110988867D01*
X112455140Y-110805079D01*
X112364605Y-110635698D01*
X112242765Y-110487235D01*
X112094302Y-110365395D01*
X111924921Y-110274860D01*
X111741133Y-110219108D01*
X111597892Y-110205000D01*
X110202108Y-110205000D01*
X110058867Y-110219108D01*
X109875079Y-110274860D01*
X109705698Y-110365395D01*
X109557235Y-110487235D01*
X109435395Y-110635698D01*
X109400000Y-110701918D01*
X109400000Y-109733518D01*
X123525000Y-109733518D01*
X123525000Y-109866482D01*
X123550940Y-109996890D01*
X123601823Y-110119732D01*
X123675693Y-110230287D01*
X123769713Y-110324307D01*
X123880268Y-110398177D01*
X124003110Y-110449060D01*
X124133518Y-110475000D01*
X124266482Y-110475000D01*
X124396890Y-110449060D01*
X124519732Y-110398177D01*
X124630287Y-110324307D01*
X124724307Y-110230287D01*
X124788970Y-110133510D01*
X129225000Y-110133510D01*
X129225000Y-110266474D01*
X129250940Y-110396882D01*
X129301823Y-110519724D01*
X129375693Y-110630279D01*
X129469713Y-110724299D01*
X129580268Y-110798169D01*
X129703110Y-110849052D01*
X129833518Y-110874992D01*
X129966482Y-110874992D01*
X130096890Y-110849052D01*
X130219732Y-110798169D01*
X130330287Y-110724299D01*
X130424307Y-110630279D01*
X130498177Y-110519724D01*
X130549060Y-110396882D01*
X130575000Y-110266474D01*
X130575000Y-110133510D01*
X130549060Y-110003102D01*
X130498177Y-109880260D01*
X130424307Y-109769705D01*
X130330287Y-109675685D01*
X130219732Y-109601815D01*
X130096890Y-109550932D01*
X129966482Y-109524992D01*
X129833518Y-109524992D01*
X129703110Y-109550932D01*
X129580268Y-109601815D01*
X129469713Y-109675685D01*
X129375693Y-109769705D01*
X129301823Y-109880260D01*
X129250940Y-110003102D01*
X129225000Y-110133510D01*
X124788970Y-110133510D01*
X124798177Y-110119732D01*
X124849060Y-109996890D01*
X124875000Y-109866482D01*
X124875000Y-109733518D01*
X124849060Y-109603110D01*
X124798177Y-109480268D01*
X124766940Y-109433518D01*
X131625030Y-109433518D01*
X131625030Y-109566482D01*
X131650970Y-109696890D01*
X131701853Y-109819732D01*
X131775723Y-109930287D01*
X131869743Y-110024307D01*
X131881399Y-110032095D01*
X131880967Y-110033137D01*
X131855027Y-110163545D01*
X131855027Y-110296509D01*
X131880967Y-110426917D01*
X131931850Y-110549759D01*
X132005720Y-110660314D01*
X132099740Y-110754334D01*
X132210295Y-110828204D01*
X132333137Y-110879087D01*
X132463545Y-110905027D01*
X132596509Y-110905027D01*
X132726917Y-110879087D01*
X132849759Y-110828204D01*
X132960314Y-110754334D01*
X133030037Y-110684611D01*
X133069713Y-110724287D01*
X133180268Y-110798157D01*
X133303110Y-110849040D01*
X133433518Y-110874980D01*
X133566482Y-110874980D01*
X133696890Y-110849040D01*
X133819732Y-110798157D01*
X133930287Y-110724287D01*
X134024307Y-110630267D01*
X134098177Y-110519712D01*
X134149060Y-110396870D01*
X134175000Y-110266462D01*
X134175000Y-110133498D01*
X134149060Y-110003090D01*
X134098177Y-109880248D01*
X134024307Y-109769693D01*
X133978283Y-109723669D01*
X136925000Y-109723669D01*
X136925000Y-109876331D01*
X136954783Y-110026059D01*
X137013204Y-110167100D01*
X137098018Y-110294034D01*
X137205966Y-110401982D01*
X137332900Y-110486796D01*
X137473941Y-110545217D01*
X137623669Y-110575000D01*
X137776331Y-110575000D01*
X137926059Y-110545217D01*
X138067100Y-110486796D01*
X138194034Y-110401982D01*
X138301982Y-110294034D01*
X138325000Y-110259585D01*
X138325000Y-110366460D01*
X138350940Y-110496868D01*
X138401823Y-110619710D01*
X138475693Y-110730265D01*
X138569713Y-110824285D01*
X138680268Y-110898155D01*
X138803110Y-110949038D01*
X138933518Y-110974978D01*
X139066482Y-110974978D01*
X139196890Y-110949038D01*
X139234358Y-110933518D01*
X139924998Y-110933518D01*
X139924998Y-111066482D01*
X139950938Y-111196890D01*
X140001821Y-111319732D01*
X140075691Y-111430287D01*
X140169711Y-111524307D01*
X140280266Y-111598177D01*
X140403108Y-111649060D01*
X140533516Y-111675000D01*
X140666480Y-111675000D01*
X140796888Y-111649060D01*
X140919730Y-111598177D01*
X141030285Y-111524307D01*
X141124305Y-111430287D01*
X141198175Y-111319732D01*
X141249058Y-111196890D01*
X141274998Y-111066482D01*
X141274998Y-110933518D01*
X141249058Y-110803110D01*
X141198175Y-110680268D01*
X141124305Y-110569713D01*
X141030285Y-110475693D01*
X140919730Y-110401823D01*
X140796888Y-110350940D01*
X140666480Y-110325000D01*
X140533516Y-110325000D01*
X140403108Y-110350940D01*
X140280266Y-110401823D01*
X140169711Y-110475693D01*
X140075691Y-110569713D01*
X140001821Y-110680268D01*
X139950938Y-110803110D01*
X139924998Y-110933518D01*
X139234358Y-110933518D01*
X139319732Y-110898155D01*
X139430287Y-110824285D01*
X139524307Y-110730265D01*
X139598177Y-110619710D01*
X139649060Y-110496868D01*
X139675000Y-110366460D01*
X139675000Y-110233496D01*
X139649060Y-110103088D01*
X139598177Y-109980246D01*
X139524307Y-109869691D01*
X139430287Y-109775671D01*
X139319732Y-109701801D01*
X139196890Y-109650918D01*
X139066482Y-109624978D01*
X138933518Y-109624978D01*
X138803110Y-109650918D01*
X138680268Y-109701801D01*
X138569713Y-109775671D01*
X138475693Y-109869691D01*
X138475000Y-109870728D01*
X138475000Y-109723669D01*
X138445217Y-109573941D01*
X138386796Y-109432900D01*
X138301982Y-109305966D01*
X138194034Y-109198018D01*
X138067100Y-109113204D01*
X137926059Y-109054783D01*
X137776331Y-109025000D01*
X137623669Y-109025000D01*
X137473941Y-109054783D01*
X137332900Y-109113204D01*
X137205966Y-109198018D01*
X137098018Y-109305966D01*
X137013204Y-109432900D01*
X136954783Y-109573941D01*
X136925000Y-109723669D01*
X133978283Y-109723669D01*
X133930287Y-109675673D01*
X133819732Y-109601803D01*
X133696890Y-109550920D01*
X133566482Y-109524980D01*
X133433518Y-109524980D01*
X133303110Y-109550920D01*
X133180268Y-109601803D01*
X133069713Y-109675673D01*
X132999990Y-109745396D01*
X132960314Y-109705720D01*
X132948658Y-109697932D01*
X132949090Y-109696890D01*
X132975030Y-109566482D01*
X132975030Y-109433518D01*
X132949090Y-109303110D01*
X132898207Y-109180268D01*
X132824337Y-109069713D01*
X132730317Y-108975693D01*
X132619762Y-108901823D01*
X132496920Y-108850940D01*
X132366512Y-108825000D01*
X132233548Y-108825000D01*
X132103140Y-108850940D01*
X131980298Y-108901823D01*
X131869743Y-108975693D01*
X131775723Y-109069713D01*
X131701853Y-109180268D01*
X131650970Y-109303110D01*
X131625030Y-109433518D01*
X124766940Y-109433518D01*
X124724307Y-109369713D01*
X124630287Y-109275693D01*
X124519732Y-109201823D01*
X124396890Y-109150940D01*
X124266482Y-109125000D01*
X124133518Y-109125000D01*
X124003110Y-109150940D01*
X123880268Y-109201823D01*
X123769713Y-109275693D01*
X123675693Y-109369713D01*
X123601823Y-109480268D01*
X123550940Y-109603110D01*
X123525000Y-109733518D01*
X109400000Y-109733518D01*
X109400000Y-107019563D01*
X109422831Y-106786716D01*
X109484773Y-106581553D01*
X109585384Y-106392332D01*
X109720837Y-106226251D01*
X109885959Y-106089650D01*
X110074478Y-105987718D01*
X110279196Y-105924347D01*
X110510845Y-105900000D01*
X149480437Y-105900000D01*
X149713284Y-105922831D01*
G37*
%TD.AperFunction*%
%TD*%
M02*
