%TF.GenerationSoftware,KiCad,Pcbnew,(5.1.8)-1*%
%TF.CreationDate,2020-12-12T20:42:25+01:00*%
%TF.ProjectId,NRF24Stick,4e524632-3453-4746-9963-6b2e6b696361,rev?*%
%TF.SameCoordinates,Original*%
%TF.FileFunction,Copper,L4,Bot*%
%TF.FilePolarity,Positive*%
%FSLAX46Y46*%
G04 Gerber Fmt 4.6, Leading zero omitted, Abs format (unit mm)*
G04 Created by KiCad (PCBNEW (5.1.8)-1) date 2020-12-12 20:42:25*
%MOMM*%
%LPD*%
G01*
G04 APERTURE LIST*
%TA.AperFunction,SMDPad,CuDef*%
%ADD10R,4.200000X1.350000*%
%TD*%
%TA.AperFunction,ComponentPad*%
%ADD11O,2.500000X1.200000*%
%TD*%
%TA.AperFunction,ComponentPad*%
%ADD12O,2.200000X1.200000*%
%TD*%
%TA.AperFunction,ComponentPad*%
%ADD13O,1.000000X1.000000*%
%TD*%
%TA.AperFunction,ComponentPad*%
%ADD14R,1.000000X1.000000*%
%TD*%
%TA.AperFunction,ViaPad*%
%ADD15C,0.600000*%
%TD*%
%TA.AperFunction,ViaPad*%
%ADD16C,0.800000*%
%TD*%
%TA.AperFunction,ViaPad*%
%ADD17C,0.500000*%
%TD*%
%TA.AperFunction,Conductor*%
%ADD18C,0.500000*%
%TD*%
%TA.AperFunction,Conductor*%
%ADD19C,0.300000*%
%TD*%
G04 APERTURE END LIST*
D10*
%TO.P,J3,2*%
%TO.N,GND*%
X148750000Y-118325000D03*
X148750000Y-112675000D03*
%TD*%
D11*
%TO.P,J2,S1*%
%TO.N,Net-(J2-PadS1)*%
X110900000Y-111180000D03*
X110900000Y-119820000D03*
D12*
X114725000Y-119820000D03*
X114725000Y-111180000D03*
%TD*%
D13*
%TO.P,J1,10*%
%TO.N,/NRST*%
X119170000Y-120770000D03*
%TO.P,J1,9*%
%TO.N,GND*%
X119170000Y-119500000D03*
%TO.P,J1,8*%
%TO.N,N/C*%
X120440000Y-120770000D03*
%TO.P,J1,7*%
X120440000Y-119500000D03*
%TO.P,J1,6*%
X121710000Y-120770000D03*
%TO.P,J1,5*%
%TO.N,GND*%
X121710000Y-119500000D03*
%TO.P,J1,4*%
%TO.N,/SWCLK*%
X122980000Y-120770000D03*
%TO.P,J1,3*%
%TO.N,GND*%
X122980000Y-119500000D03*
%TO.P,J1,2*%
%TO.N,/SWDIO*%
X124250000Y-120770000D03*
D14*
%TO.P,J1,1*%
%TO.N,+3V3*%
X124250000Y-119500000D03*
%TD*%
D15*
%TO.N,GND*%
X137100000Y-114400000D03*
X137100000Y-115800000D03*
X137800000Y-115100000D03*
X136400000Y-115100000D03*
X129300000Y-116100000D03*
X130500000Y-116100000D03*
X130500000Y-114900000D03*
D16*
X150000000Y-111500000D03*
X148750000Y-111500000D03*
X147500000Y-111500000D03*
D15*
X129900000Y-110199992D03*
X132300030Y-109500000D03*
X124200000Y-109800000D03*
X117200000Y-119000000D03*
X121250000Y-116500000D03*
D16*
X116149997Y-118600007D03*
X115862618Y-112235285D03*
D15*
X134500000Y-112000000D03*
X137201483Y-118150503D03*
X134750000Y-118250000D03*
D16*
X123500000Y-112250000D03*
X121899976Y-113600024D03*
X124125013Y-115625013D03*
D15*
X140900002Y-121200002D03*
X135700000Y-120050000D03*
X144100000Y-117000000D03*
X144100000Y-118000000D03*
X145500000Y-113400000D03*
D16*
X148750000Y-119500000D03*
X147500000Y-119500000D03*
X150000000Y-119500000D03*
D15*
X119192788Y-114465209D03*
X139000000Y-110299978D03*
X140599998Y-111000000D03*
D16*
X137700000Y-109800000D03*
D15*
X126699994Y-119199994D03*
X129300000Y-114900000D03*
X132530027Y-110230027D03*
X133500000Y-110199980D03*
X140000000Y-114173428D03*
D16*
X145900000Y-118300000D03*
D15*
%TO.N,+3V3*%
X130800000Y-111200000D03*
D16*
X125500000Y-112250000D03*
X125625001Y-115625001D03*
D15*
X135750000Y-119000000D03*
X140600000Y-112000000D03*
D16*
X136200000Y-109800000D03*
D15*
X128800000Y-119200000D03*
X131569976Y-110230000D03*
D17*
%TO.N,/NRST*%
X130800000Y-112100000D03*
D15*
%TO.N,+5V*%
X121250000Y-115463972D03*
X113400000Y-114094998D03*
%TO.N,/SPI_SCK*%
X134000000Y-116900000D03*
X133992941Y-115192836D03*
%TD*%
D18*
%TO.N,GND*%
X148750000Y-111500000D02*
X148750000Y-112675000D01*
X147500000Y-112675000D02*
X148750000Y-112675000D01*
X147500000Y-111500000D02*
X147500000Y-112675000D01*
X150000000Y-112675000D02*
X148750000Y-112675000D01*
X150000000Y-111500000D02*
X150000000Y-112675000D01*
X148750000Y-119500000D02*
X148750000Y-118325000D01*
X147500000Y-118325000D02*
X148750000Y-118325000D01*
X147500000Y-119500000D02*
X147500000Y-118325000D01*
X150000000Y-118325000D02*
X148750000Y-118325000D01*
X150000000Y-119500000D02*
X150000000Y-118325000D01*
D19*
%TO.N,/NRST*%
X129525000Y-112100000D02*
X130800000Y-112100000D01*
X127750000Y-113875000D02*
X129525000Y-112100000D01*
X127750000Y-120750000D02*
X127750000Y-113875000D01*
X126750000Y-121750000D02*
X127750000Y-120750000D01*
X120075000Y-121750000D02*
X126750000Y-121750000D01*
X119170000Y-120845000D02*
X120075000Y-121750000D01*
X119170000Y-120770000D02*
X119170000Y-120845000D01*
D18*
%TO.N,+5V*%
X114768974Y-115463972D02*
X113400000Y-114094998D01*
X121250000Y-115463972D02*
X114768974Y-115463972D01*
D19*
%TO.N,/SPI_SCK*%
X133992941Y-115192836D02*
X133992941Y-116892941D01*
X133992941Y-116892941D02*
X134000000Y-116900000D01*
%TD*%
M02*
