%TF.GenerationSoftware,KiCad,Pcbnew,(5.1.8)-1*%
%TF.CreationDate,2020-12-12T20:42:25+01:00*%
%TF.ProjectId,NRF24Stick,4e524632-3453-4746-9963-6b2e6b696361,rev?*%
%TF.SameCoordinates,Original*%
%TF.FileFunction,Paste,Top*%
%TF.FilePolarity,Positive*%
%FSLAX46Y46*%
G04 Gerber Fmt 4.6, Leading zero omitted, Abs format (unit mm)*
G04 Created by KiCad (PCBNEW (5.1.8)-1) date 2020-12-12 20:42:25*
%MOMM*%
%LPD*%
G01*
G04 APERTURE LIST*
%ADD10R,4.200000X1.350000*%
%ADD11R,3.600000X1.270000*%
%ADD12R,2.000000X1.000000*%
%ADD13R,1.000000X0.520000*%
%ADD14R,1.000000X0.270000*%
%ADD15R,1.400000X1.200000*%
%ADD16R,1.060000X0.650000*%
%ADD17R,0.800000X0.900000*%
G04 APERTURE END LIST*
D10*
%TO.C,J3*%
X148750000Y-118325000D03*
X148750000Y-112675000D03*
D11*
X148950000Y-115500000D03*
%TD*%
D12*
%TO.C,J2*%
X110900000Y-116900000D03*
X110900000Y-114100000D03*
D13*
X115100000Y-112400000D03*
X115100000Y-118600000D03*
X115100000Y-117850000D03*
X115100000Y-113150000D03*
D14*
X115100000Y-113750000D03*
X115100000Y-117250000D03*
X115100000Y-114250000D03*
X115100000Y-114750000D03*
X115100000Y-115250000D03*
X115100000Y-115750000D03*
X115100000Y-116250000D03*
X115100000Y-116750000D03*
%TD*%
%TO.C,C6*%
G36*
G01*
X124575000Y-114450000D02*
X124575000Y-114950000D01*
G75*
G02*
X124350000Y-115175000I-225000J0D01*
G01*
X123900000Y-115175000D01*
G75*
G02*
X123675000Y-114950000I0J225000D01*
G01*
X123675000Y-114450000D01*
G75*
G02*
X123900000Y-114225000I225000J0D01*
G01*
X124350000Y-114225000D01*
G75*
G02*
X124575000Y-114450000I0J-225000D01*
G01*
G37*
G36*
G01*
X126125000Y-114450000D02*
X126125000Y-114950000D01*
G75*
G02*
X125900000Y-115175000I-225000J0D01*
G01*
X125450000Y-115175000D01*
G75*
G02*
X125225000Y-114950000I0J225000D01*
G01*
X125225000Y-114450000D01*
G75*
G02*
X125450000Y-114225000I225000J0D01*
G01*
X125900000Y-114225000D01*
G75*
G02*
X126125000Y-114450000I0J-225000D01*
G01*
G37*
%TD*%
%TO.C,R3*%
G36*
G01*
X133685000Y-112180000D02*
X133315000Y-112180000D01*
G75*
G02*
X133180000Y-112045000I0J135000D01*
G01*
X133180000Y-111775000D01*
G75*
G02*
X133315000Y-111640000I135000J0D01*
G01*
X133685000Y-111640000D01*
G75*
G02*
X133820000Y-111775000I0J-135000D01*
G01*
X133820000Y-112045000D01*
G75*
G02*
X133685000Y-112180000I-135000J0D01*
G01*
G37*
G36*
G01*
X133685000Y-111160000D02*
X133315000Y-111160000D01*
G75*
G02*
X133180000Y-111025000I0J135000D01*
G01*
X133180000Y-110755000D01*
G75*
G02*
X133315000Y-110620000I135000J0D01*
G01*
X133685000Y-110620000D01*
G75*
G02*
X133820000Y-110755000I0J-135000D01*
G01*
X133820000Y-111025000D01*
G75*
G02*
X133685000Y-111160000I-135000J0D01*
G01*
G37*
%TD*%
%TO.C,C1*%
G36*
G01*
X131290000Y-111020000D02*
X131290000Y-110680000D01*
G75*
G02*
X131430000Y-110540000I140000J0D01*
G01*
X131710000Y-110540000D01*
G75*
G02*
X131850000Y-110680000I0J-140000D01*
G01*
X131850000Y-111020000D01*
G75*
G02*
X131710000Y-111160000I-140000J0D01*
G01*
X131430000Y-111160000D01*
G75*
G02*
X131290000Y-111020000I0J140000D01*
G01*
G37*
G36*
G01*
X132250000Y-111020000D02*
X132250000Y-110680000D01*
G75*
G02*
X132390000Y-110540000I140000J0D01*
G01*
X132670000Y-110540000D01*
G75*
G02*
X132810000Y-110680000I0J-140000D01*
G01*
X132810000Y-111020000D01*
G75*
G02*
X132670000Y-111160000I-140000J0D01*
G01*
X132390000Y-111160000D01*
G75*
G02*
X132250000Y-111020000I0J140000D01*
G01*
G37*
%TD*%
%TO.C,C12*%
G36*
G01*
X135770000Y-121910000D02*
X135430000Y-121910000D01*
G75*
G02*
X135290000Y-121770000I0J140000D01*
G01*
X135290000Y-121490000D01*
G75*
G02*
X135430000Y-121350000I140000J0D01*
G01*
X135770000Y-121350000D01*
G75*
G02*
X135910000Y-121490000I0J-140000D01*
G01*
X135910000Y-121770000D01*
G75*
G02*
X135770000Y-121910000I-140000J0D01*
G01*
G37*
G36*
G01*
X135770000Y-120950000D02*
X135430000Y-120950000D01*
G75*
G02*
X135290000Y-120810000I0J140000D01*
G01*
X135290000Y-120530000D01*
G75*
G02*
X135430000Y-120390000I140000J0D01*
G01*
X135770000Y-120390000D01*
G75*
G02*
X135910000Y-120530000I0J-140000D01*
G01*
X135910000Y-120810000D01*
G75*
G02*
X135770000Y-120950000I-140000J0D01*
G01*
G37*
%TD*%
%TO.C,R7*%
G36*
G01*
X117435000Y-117510000D02*
X117065000Y-117510000D01*
G75*
G02*
X116930000Y-117375000I0J135000D01*
G01*
X116930000Y-117105000D01*
G75*
G02*
X117065000Y-116970000I135000J0D01*
G01*
X117435000Y-116970000D01*
G75*
G02*
X117570000Y-117105000I0J-135000D01*
G01*
X117570000Y-117375000D01*
G75*
G02*
X117435000Y-117510000I-135000J0D01*
G01*
G37*
G36*
G01*
X117435000Y-118530000D02*
X117065000Y-118530000D01*
G75*
G02*
X116930000Y-118395000I0J135000D01*
G01*
X116930000Y-118125000D01*
G75*
G02*
X117065000Y-117990000I135000J0D01*
G01*
X117435000Y-117990000D01*
G75*
G02*
X117570000Y-118125000I0J-135000D01*
G01*
X117570000Y-118395000D01*
G75*
G02*
X117435000Y-118530000I-135000J0D01*
G01*
G37*
%TD*%
%TO.C,R6*%
G36*
G01*
X118780000Y-114415000D02*
X118780000Y-114785000D01*
G75*
G02*
X118645000Y-114920000I-135000J0D01*
G01*
X118375000Y-114920000D01*
G75*
G02*
X118240000Y-114785000I0J135000D01*
G01*
X118240000Y-114415000D01*
G75*
G02*
X118375000Y-114280000I135000J0D01*
G01*
X118645000Y-114280000D01*
G75*
G02*
X118780000Y-114415000I0J-135000D01*
G01*
G37*
G36*
G01*
X117760000Y-114415000D02*
X117760000Y-114785000D01*
G75*
G02*
X117625000Y-114920000I-135000J0D01*
G01*
X117355000Y-114920000D01*
G75*
G02*
X117220000Y-114785000I0J135000D01*
G01*
X117220000Y-114415000D01*
G75*
G02*
X117355000Y-114280000I135000J0D01*
G01*
X117625000Y-114280000D01*
G75*
G02*
X117760000Y-114415000I0J-135000D01*
G01*
G37*
%TD*%
D15*
%TO.C,Y1*%
X137150000Y-119650000D03*
X139350000Y-119650000D03*
X139350000Y-121350000D03*
X137150000Y-121350000D03*
%TD*%
%TO.C,U4*%
G36*
G01*
X134770000Y-114182500D02*
X134770000Y-114057500D01*
G75*
G02*
X134832500Y-113995000I62500J0D01*
G01*
X135532500Y-113995000D01*
G75*
G02*
X135595000Y-114057500I0J-62500D01*
G01*
X135595000Y-114182500D01*
G75*
G02*
X135532500Y-114245000I-62500J0D01*
G01*
X134832500Y-114245000D01*
G75*
G02*
X134770000Y-114182500I0J62500D01*
G01*
G37*
G36*
G01*
X134770000Y-114682500D02*
X134770000Y-114557500D01*
G75*
G02*
X134832500Y-114495000I62500J0D01*
G01*
X135532500Y-114495000D01*
G75*
G02*
X135595000Y-114557500I0J-62500D01*
G01*
X135595000Y-114682500D01*
G75*
G02*
X135532500Y-114745000I-62500J0D01*
G01*
X134832500Y-114745000D01*
G75*
G02*
X134770000Y-114682500I0J62500D01*
G01*
G37*
G36*
G01*
X134770000Y-115182500D02*
X134770000Y-115057500D01*
G75*
G02*
X134832500Y-114995000I62500J0D01*
G01*
X135532500Y-114995000D01*
G75*
G02*
X135595000Y-115057500I0J-62500D01*
G01*
X135595000Y-115182500D01*
G75*
G02*
X135532500Y-115245000I-62500J0D01*
G01*
X134832500Y-115245000D01*
G75*
G02*
X134770000Y-115182500I0J62500D01*
G01*
G37*
G36*
G01*
X134770000Y-115682500D02*
X134770000Y-115557500D01*
G75*
G02*
X134832500Y-115495000I62500J0D01*
G01*
X135532500Y-115495000D01*
G75*
G02*
X135595000Y-115557500I0J-62500D01*
G01*
X135595000Y-115682500D01*
G75*
G02*
X135532500Y-115745000I-62500J0D01*
G01*
X134832500Y-115745000D01*
G75*
G02*
X134770000Y-115682500I0J62500D01*
G01*
G37*
G36*
G01*
X134770000Y-116182500D02*
X134770000Y-116057500D01*
G75*
G02*
X134832500Y-115995000I62500J0D01*
G01*
X135532500Y-115995000D01*
G75*
G02*
X135595000Y-116057500I0J-62500D01*
G01*
X135595000Y-116182500D01*
G75*
G02*
X135532500Y-116245000I-62500J0D01*
G01*
X134832500Y-116245000D01*
G75*
G02*
X134770000Y-116182500I0J62500D01*
G01*
G37*
G36*
G01*
X135995000Y-117407500D02*
X135995000Y-116707500D01*
G75*
G02*
X136057500Y-116645000I62500J0D01*
G01*
X136182500Y-116645000D01*
G75*
G02*
X136245000Y-116707500I0J-62500D01*
G01*
X136245000Y-117407500D01*
G75*
G02*
X136182500Y-117470000I-62500J0D01*
G01*
X136057500Y-117470000D01*
G75*
G02*
X135995000Y-117407500I0J62500D01*
G01*
G37*
G36*
G01*
X136495000Y-117407500D02*
X136495000Y-116707500D01*
G75*
G02*
X136557500Y-116645000I62500J0D01*
G01*
X136682500Y-116645000D01*
G75*
G02*
X136745000Y-116707500I0J-62500D01*
G01*
X136745000Y-117407500D01*
G75*
G02*
X136682500Y-117470000I-62500J0D01*
G01*
X136557500Y-117470000D01*
G75*
G02*
X136495000Y-117407500I0J62500D01*
G01*
G37*
G36*
G01*
X136995000Y-117407500D02*
X136995000Y-116707500D01*
G75*
G02*
X137057500Y-116645000I62500J0D01*
G01*
X137182500Y-116645000D01*
G75*
G02*
X137245000Y-116707500I0J-62500D01*
G01*
X137245000Y-117407500D01*
G75*
G02*
X137182500Y-117470000I-62500J0D01*
G01*
X137057500Y-117470000D01*
G75*
G02*
X136995000Y-117407500I0J62500D01*
G01*
G37*
G36*
G01*
X137495000Y-117407500D02*
X137495000Y-116707500D01*
G75*
G02*
X137557500Y-116645000I62500J0D01*
G01*
X137682500Y-116645000D01*
G75*
G02*
X137745000Y-116707500I0J-62500D01*
G01*
X137745000Y-117407500D01*
G75*
G02*
X137682500Y-117470000I-62500J0D01*
G01*
X137557500Y-117470000D01*
G75*
G02*
X137495000Y-117407500I0J62500D01*
G01*
G37*
G36*
G01*
X137995000Y-117407500D02*
X137995000Y-116707500D01*
G75*
G02*
X138057500Y-116645000I62500J0D01*
G01*
X138182500Y-116645000D01*
G75*
G02*
X138245000Y-116707500I0J-62500D01*
G01*
X138245000Y-117407500D01*
G75*
G02*
X138182500Y-117470000I-62500J0D01*
G01*
X138057500Y-117470000D01*
G75*
G02*
X137995000Y-117407500I0J62500D01*
G01*
G37*
G36*
G01*
X138645000Y-116182500D02*
X138645000Y-116057500D01*
G75*
G02*
X138707500Y-115995000I62500J0D01*
G01*
X139407500Y-115995000D01*
G75*
G02*
X139470000Y-116057500I0J-62500D01*
G01*
X139470000Y-116182500D01*
G75*
G02*
X139407500Y-116245000I-62500J0D01*
G01*
X138707500Y-116245000D01*
G75*
G02*
X138645000Y-116182500I0J62500D01*
G01*
G37*
G36*
G01*
X138645000Y-115682500D02*
X138645000Y-115557500D01*
G75*
G02*
X138707500Y-115495000I62500J0D01*
G01*
X139407500Y-115495000D01*
G75*
G02*
X139470000Y-115557500I0J-62500D01*
G01*
X139470000Y-115682500D01*
G75*
G02*
X139407500Y-115745000I-62500J0D01*
G01*
X138707500Y-115745000D01*
G75*
G02*
X138645000Y-115682500I0J62500D01*
G01*
G37*
G36*
G01*
X138645000Y-115182500D02*
X138645000Y-115057500D01*
G75*
G02*
X138707500Y-114995000I62500J0D01*
G01*
X139407500Y-114995000D01*
G75*
G02*
X139470000Y-115057500I0J-62500D01*
G01*
X139470000Y-115182500D01*
G75*
G02*
X139407500Y-115245000I-62500J0D01*
G01*
X138707500Y-115245000D01*
G75*
G02*
X138645000Y-115182500I0J62500D01*
G01*
G37*
G36*
G01*
X138645000Y-114682500D02*
X138645000Y-114557500D01*
G75*
G02*
X138707500Y-114495000I62500J0D01*
G01*
X139407500Y-114495000D01*
G75*
G02*
X139470000Y-114557500I0J-62500D01*
G01*
X139470000Y-114682500D01*
G75*
G02*
X139407500Y-114745000I-62500J0D01*
G01*
X138707500Y-114745000D01*
G75*
G02*
X138645000Y-114682500I0J62500D01*
G01*
G37*
G36*
G01*
X138645000Y-114182500D02*
X138645000Y-114057500D01*
G75*
G02*
X138707500Y-113995000I62500J0D01*
G01*
X139407500Y-113995000D01*
G75*
G02*
X139470000Y-114057500I0J-62500D01*
G01*
X139470000Y-114182500D01*
G75*
G02*
X139407500Y-114245000I-62500J0D01*
G01*
X138707500Y-114245000D01*
G75*
G02*
X138645000Y-114182500I0J62500D01*
G01*
G37*
G36*
G01*
X137995000Y-113532500D02*
X137995000Y-112832500D01*
G75*
G02*
X138057500Y-112770000I62500J0D01*
G01*
X138182500Y-112770000D01*
G75*
G02*
X138245000Y-112832500I0J-62500D01*
G01*
X138245000Y-113532500D01*
G75*
G02*
X138182500Y-113595000I-62500J0D01*
G01*
X138057500Y-113595000D01*
G75*
G02*
X137995000Y-113532500I0J62500D01*
G01*
G37*
G36*
G01*
X137495000Y-113532500D02*
X137495000Y-112832500D01*
G75*
G02*
X137557500Y-112770000I62500J0D01*
G01*
X137682500Y-112770000D01*
G75*
G02*
X137745000Y-112832500I0J-62500D01*
G01*
X137745000Y-113532500D01*
G75*
G02*
X137682500Y-113595000I-62500J0D01*
G01*
X137557500Y-113595000D01*
G75*
G02*
X137495000Y-113532500I0J62500D01*
G01*
G37*
G36*
G01*
X136995000Y-113532500D02*
X136995000Y-112832500D01*
G75*
G02*
X137057500Y-112770000I62500J0D01*
G01*
X137182500Y-112770000D01*
G75*
G02*
X137245000Y-112832500I0J-62500D01*
G01*
X137245000Y-113532500D01*
G75*
G02*
X137182500Y-113595000I-62500J0D01*
G01*
X137057500Y-113595000D01*
G75*
G02*
X136995000Y-113532500I0J62500D01*
G01*
G37*
G36*
G01*
X136495000Y-113532500D02*
X136495000Y-112832500D01*
G75*
G02*
X136557500Y-112770000I62500J0D01*
G01*
X136682500Y-112770000D01*
G75*
G02*
X136745000Y-112832500I0J-62500D01*
G01*
X136745000Y-113532500D01*
G75*
G02*
X136682500Y-113595000I-62500J0D01*
G01*
X136557500Y-113595000D01*
G75*
G02*
X136495000Y-113532500I0J62500D01*
G01*
G37*
G36*
G01*
X135995000Y-113532500D02*
X135995000Y-112832500D01*
G75*
G02*
X136057500Y-112770000I62500J0D01*
G01*
X136182500Y-112770000D01*
G75*
G02*
X136245000Y-112832500I0J-62500D01*
G01*
X136245000Y-113532500D01*
G75*
G02*
X136182500Y-113595000I-62500J0D01*
G01*
X136057500Y-113595000D01*
G75*
G02*
X135995000Y-113532500I0J62500D01*
G01*
G37*
G36*
G01*
X135990000Y-114750001D02*
X135990000Y-114239999D01*
G75*
G02*
X136239999Y-113990000I249999J0D01*
G01*
X136750001Y-113990000D01*
G75*
G02*
X137000000Y-114239999I0J-249999D01*
G01*
X137000000Y-114750001D01*
G75*
G02*
X136750001Y-115000000I-249999J0D01*
G01*
X136239999Y-115000000D01*
G75*
G02*
X135990000Y-114750001I0J249999D01*
G01*
G37*
G36*
G01*
X135990000Y-116000001D02*
X135990000Y-115489999D01*
G75*
G02*
X136239999Y-115240000I249999J0D01*
G01*
X136750001Y-115240000D01*
G75*
G02*
X137000000Y-115489999I0J-249999D01*
G01*
X137000000Y-116000001D01*
G75*
G02*
X136750001Y-116250000I-249999J0D01*
G01*
X136239999Y-116250000D01*
G75*
G02*
X135990000Y-116000001I0J249999D01*
G01*
G37*
G36*
G01*
X137240000Y-114750001D02*
X137240000Y-114239999D01*
G75*
G02*
X137489999Y-113990000I249999J0D01*
G01*
X138000001Y-113990000D01*
G75*
G02*
X138250000Y-114239999I0J-249999D01*
G01*
X138250000Y-114750001D01*
G75*
G02*
X138000001Y-115000000I-249999J0D01*
G01*
X137489999Y-115000000D01*
G75*
G02*
X137240000Y-114750001I0J249999D01*
G01*
G37*
G36*
G01*
X137240000Y-116000001D02*
X137240000Y-115489999D01*
G75*
G02*
X137489999Y-115240000I249999J0D01*
G01*
X138000001Y-115240000D01*
G75*
G02*
X138250000Y-115489999I0J-249999D01*
G01*
X138250000Y-116000001D01*
G75*
G02*
X138000001Y-116250000I-249999J0D01*
G01*
X137489999Y-116250000D01*
G75*
G02*
X137240000Y-116000001I0J249999D01*
G01*
G37*
%TD*%
%TO.C,U3*%
G36*
G01*
X131587500Y-112625000D02*
X131712500Y-112625000D01*
G75*
G02*
X131775000Y-112687500I0J-62500D01*
G01*
X131775000Y-113437500D01*
G75*
G02*
X131712500Y-113500000I-62500J0D01*
G01*
X131587500Y-113500000D01*
G75*
G02*
X131525000Y-113437500I0J62500D01*
G01*
X131525000Y-112687500D01*
G75*
G02*
X131587500Y-112625000I62500J0D01*
G01*
G37*
G36*
G01*
X131087500Y-112625000D02*
X131212500Y-112625000D01*
G75*
G02*
X131275000Y-112687500I0J-62500D01*
G01*
X131275000Y-113437500D01*
G75*
G02*
X131212500Y-113500000I-62500J0D01*
G01*
X131087500Y-113500000D01*
G75*
G02*
X131025000Y-113437500I0J62500D01*
G01*
X131025000Y-112687500D01*
G75*
G02*
X131087500Y-112625000I62500J0D01*
G01*
G37*
G36*
G01*
X130587500Y-112625000D02*
X130712500Y-112625000D01*
G75*
G02*
X130775000Y-112687500I0J-62500D01*
G01*
X130775000Y-113437500D01*
G75*
G02*
X130712500Y-113500000I-62500J0D01*
G01*
X130587500Y-113500000D01*
G75*
G02*
X130525000Y-113437500I0J62500D01*
G01*
X130525000Y-112687500D01*
G75*
G02*
X130587500Y-112625000I62500J0D01*
G01*
G37*
G36*
G01*
X130087500Y-112625000D02*
X130212500Y-112625000D01*
G75*
G02*
X130275000Y-112687500I0J-62500D01*
G01*
X130275000Y-113437500D01*
G75*
G02*
X130212500Y-113500000I-62500J0D01*
G01*
X130087500Y-113500000D01*
G75*
G02*
X130025000Y-113437500I0J62500D01*
G01*
X130025000Y-112687500D01*
G75*
G02*
X130087500Y-112625000I62500J0D01*
G01*
G37*
G36*
G01*
X129587500Y-112625000D02*
X129712500Y-112625000D01*
G75*
G02*
X129775000Y-112687500I0J-62500D01*
G01*
X129775000Y-113437500D01*
G75*
G02*
X129712500Y-113500000I-62500J0D01*
G01*
X129587500Y-113500000D01*
G75*
G02*
X129525000Y-113437500I0J62500D01*
G01*
X129525000Y-112687500D01*
G75*
G02*
X129587500Y-112625000I62500J0D01*
G01*
G37*
G36*
G01*
X129087500Y-112625000D02*
X129212500Y-112625000D01*
G75*
G02*
X129275000Y-112687500I0J-62500D01*
G01*
X129275000Y-113437500D01*
G75*
G02*
X129212500Y-113500000I-62500J0D01*
G01*
X129087500Y-113500000D01*
G75*
G02*
X129025000Y-113437500I0J62500D01*
G01*
X129025000Y-112687500D01*
G75*
G02*
X129087500Y-112625000I62500J0D01*
G01*
G37*
G36*
G01*
X128587500Y-112625000D02*
X128712500Y-112625000D01*
G75*
G02*
X128775000Y-112687500I0J-62500D01*
G01*
X128775000Y-113437500D01*
G75*
G02*
X128712500Y-113500000I-62500J0D01*
G01*
X128587500Y-113500000D01*
G75*
G02*
X128525000Y-113437500I0J62500D01*
G01*
X128525000Y-112687500D01*
G75*
G02*
X128587500Y-112625000I62500J0D01*
G01*
G37*
G36*
G01*
X128087500Y-112625000D02*
X128212500Y-112625000D01*
G75*
G02*
X128275000Y-112687500I0J-62500D01*
G01*
X128275000Y-113437500D01*
G75*
G02*
X128212500Y-113500000I-62500J0D01*
G01*
X128087500Y-113500000D01*
G75*
G02*
X128025000Y-113437500I0J62500D01*
G01*
X128025000Y-112687500D01*
G75*
G02*
X128087500Y-112625000I62500J0D01*
G01*
G37*
G36*
G01*
X127087500Y-113625000D02*
X127837500Y-113625000D01*
G75*
G02*
X127900000Y-113687500I0J-62500D01*
G01*
X127900000Y-113812500D01*
G75*
G02*
X127837500Y-113875000I-62500J0D01*
G01*
X127087500Y-113875000D01*
G75*
G02*
X127025000Y-113812500I0J62500D01*
G01*
X127025000Y-113687500D01*
G75*
G02*
X127087500Y-113625000I62500J0D01*
G01*
G37*
G36*
G01*
X127087500Y-114125000D02*
X127837500Y-114125000D01*
G75*
G02*
X127900000Y-114187500I0J-62500D01*
G01*
X127900000Y-114312500D01*
G75*
G02*
X127837500Y-114375000I-62500J0D01*
G01*
X127087500Y-114375000D01*
G75*
G02*
X127025000Y-114312500I0J62500D01*
G01*
X127025000Y-114187500D01*
G75*
G02*
X127087500Y-114125000I62500J0D01*
G01*
G37*
G36*
G01*
X127087500Y-114625000D02*
X127837500Y-114625000D01*
G75*
G02*
X127900000Y-114687500I0J-62500D01*
G01*
X127900000Y-114812500D01*
G75*
G02*
X127837500Y-114875000I-62500J0D01*
G01*
X127087500Y-114875000D01*
G75*
G02*
X127025000Y-114812500I0J62500D01*
G01*
X127025000Y-114687500D01*
G75*
G02*
X127087500Y-114625000I62500J0D01*
G01*
G37*
G36*
G01*
X127087500Y-115125000D02*
X127837500Y-115125000D01*
G75*
G02*
X127900000Y-115187500I0J-62500D01*
G01*
X127900000Y-115312500D01*
G75*
G02*
X127837500Y-115375000I-62500J0D01*
G01*
X127087500Y-115375000D01*
G75*
G02*
X127025000Y-115312500I0J62500D01*
G01*
X127025000Y-115187500D01*
G75*
G02*
X127087500Y-115125000I62500J0D01*
G01*
G37*
G36*
G01*
X127087500Y-115625000D02*
X127837500Y-115625000D01*
G75*
G02*
X127900000Y-115687500I0J-62500D01*
G01*
X127900000Y-115812500D01*
G75*
G02*
X127837500Y-115875000I-62500J0D01*
G01*
X127087500Y-115875000D01*
G75*
G02*
X127025000Y-115812500I0J62500D01*
G01*
X127025000Y-115687500D01*
G75*
G02*
X127087500Y-115625000I62500J0D01*
G01*
G37*
G36*
G01*
X127087500Y-116125000D02*
X127837500Y-116125000D01*
G75*
G02*
X127900000Y-116187500I0J-62500D01*
G01*
X127900000Y-116312500D01*
G75*
G02*
X127837500Y-116375000I-62500J0D01*
G01*
X127087500Y-116375000D01*
G75*
G02*
X127025000Y-116312500I0J62500D01*
G01*
X127025000Y-116187500D01*
G75*
G02*
X127087500Y-116125000I62500J0D01*
G01*
G37*
G36*
G01*
X127087500Y-116625000D02*
X127837500Y-116625000D01*
G75*
G02*
X127900000Y-116687500I0J-62500D01*
G01*
X127900000Y-116812500D01*
G75*
G02*
X127837500Y-116875000I-62500J0D01*
G01*
X127087500Y-116875000D01*
G75*
G02*
X127025000Y-116812500I0J62500D01*
G01*
X127025000Y-116687500D01*
G75*
G02*
X127087500Y-116625000I62500J0D01*
G01*
G37*
G36*
G01*
X127087500Y-117125000D02*
X127837500Y-117125000D01*
G75*
G02*
X127900000Y-117187500I0J-62500D01*
G01*
X127900000Y-117312500D01*
G75*
G02*
X127837500Y-117375000I-62500J0D01*
G01*
X127087500Y-117375000D01*
G75*
G02*
X127025000Y-117312500I0J62500D01*
G01*
X127025000Y-117187500D01*
G75*
G02*
X127087500Y-117125000I62500J0D01*
G01*
G37*
G36*
G01*
X128087500Y-117500000D02*
X128212500Y-117500000D01*
G75*
G02*
X128275000Y-117562500I0J-62500D01*
G01*
X128275000Y-118312500D01*
G75*
G02*
X128212500Y-118375000I-62500J0D01*
G01*
X128087500Y-118375000D01*
G75*
G02*
X128025000Y-118312500I0J62500D01*
G01*
X128025000Y-117562500D01*
G75*
G02*
X128087500Y-117500000I62500J0D01*
G01*
G37*
G36*
G01*
X128587500Y-117500000D02*
X128712500Y-117500000D01*
G75*
G02*
X128775000Y-117562500I0J-62500D01*
G01*
X128775000Y-118312500D01*
G75*
G02*
X128712500Y-118375000I-62500J0D01*
G01*
X128587500Y-118375000D01*
G75*
G02*
X128525000Y-118312500I0J62500D01*
G01*
X128525000Y-117562500D01*
G75*
G02*
X128587500Y-117500000I62500J0D01*
G01*
G37*
G36*
G01*
X129087500Y-117500000D02*
X129212500Y-117500000D01*
G75*
G02*
X129275000Y-117562500I0J-62500D01*
G01*
X129275000Y-118312500D01*
G75*
G02*
X129212500Y-118375000I-62500J0D01*
G01*
X129087500Y-118375000D01*
G75*
G02*
X129025000Y-118312500I0J62500D01*
G01*
X129025000Y-117562500D01*
G75*
G02*
X129087500Y-117500000I62500J0D01*
G01*
G37*
G36*
G01*
X129587500Y-117500000D02*
X129712500Y-117500000D01*
G75*
G02*
X129775000Y-117562500I0J-62500D01*
G01*
X129775000Y-118312500D01*
G75*
G02*
X129712500Y-118375000I-62500J0D01*
G01*
X129587500Y-118375000D01*
G75*
G02*
X129525000Y-118312500I0J62500D01*
G01*
X129525000Y-117562500D01*
G75*
G02*
X129587500Y-117500000I62500J0D01*
G01*
G37*
G36*
G01*
X130087500Y-117500000D02*
X130212500Y-117500000D01*
G75*
G02*
X130275000Y-117562500I0J-62500D01*
G01*
X130275000Y-118312500D01*
G75*
G02*
X130212500Y-118375000I-62500J0D01*
G01*
X130087500Y-118375000D01*
G75*
G02*
X130025000Y-118312500I0J62500D01*
G01*
X130025000Y-117562500D01*
G75*
G02*
X130087500Y-117500000I62500J0D01*
G01*
G37*
G36*
G01*
X130587500Y-117500000D02*
X130712500Y-117500000D01*
G75*
G02*
X130775000Y-117562500I0J-62500D01*
G01*
X130775000Y-118312500D01*
G75*
G02*
X130712500Y-118375000I-62500J0D01*
G01*
X130587500Y-118375000D01*
G75*
G02*
X130525000Y-118312500I0J62500D01*
G01*
X130525000Y-117562500D01*
G75*
G02*
X130587500Y-117500000I62500J0D01*
G01*
G37*
G36*
G01*
X131087500Y-117500000D02*
X131212500Y-117500000D01*
G75*
G02*
X131275000Y-117562500I0J-62500D01*
G01*
X131275000Y-118312500D01*
G75*
G02*
X131212500Y-118375000I-62500J0D01*
G01*
X131087500Y-118375000D01*
G75*
G02*
X131025000Y-118312500I0J62500D01*
G01*
X131025000Y-117562500D01*
G75*
G02*
X131087500Y-117500000I62500J0D01*
G01*
G37*
G36*
G01*
X131587500Y-117500000D02*
X131712500Y-117500000D01*
G75*
G02*
X131775000Y-117562500I0J-62500D01*
G01*
X131775000Y-118312500D01*
G75*
G02*
X131712500Y-118375000I-62500J0D01*
G01*
X131587500Y-118375000D01*
G75*
G02*
X131525000Y-118312500I0J62500D01*
G01*
X131525000Y-117562500D01*
G75*
G02*
X131587500Y-117500000I62500J0D01*
G01*
G37*
G36*
G01*
X131962500Y-117125000D02*
X132712500Y-117125000D01*
G75*
G02*
X132775000Y-117187500I0J-62500D01*
G01*
X132775000Y-117312500D01*
G75*
G02*
X132712500Y-117375000I-62500J0D01*
G01*
X131962500Y-117375000D01*
G75*
G02*
X131900000Y-117312500I0J62500D01*
G01*
X131900000Y-117187500D01*
G75*
G02*
X131962500Y-117125000I62500J0D01*
G01*
G37*
G36*
G01*
X131962500Y-116625000D02*
X132712500Y-116625000D01*
G75*
G02*
X132775000Y-116687500I0J-62500D01*
G01*
X132775000Y-116812500D01*
G75*
G02*
X132712500Y-116875000I-62500J0D01*
G01*
X131962500Y-116875000D01*
G75*
G02*
X131900000Y-116812500I0J62500D01*
G01*
X131900000Y-116687500D01*
G75*
G02*
X131962500Y-116625000I62500J0D01*
G01*
G37*
G36*
G01*
X131962500Y-116125000D02*
X132712500Y-116125000D01*
G75*
G02*
X132775000Y-116187500I0J-62500D01*
G01*
X132775000Y-116312500D01*
G75*
G02*
X132712500Y-116375000I-62500J0D01*
G01*
X131962500Y-116375000D01*
G75*
G02*
X131900000Y-116312500I0J62500D01*
G01*
X131900000Y-116187500D01*
G75*
G02*
X131962500Y-116125000I62500J0D01*
G01*
G37*
G36*
G01*
X131962500Y-115625000D02*
X132712500Y-115625000D01*
G75*
G02*
X132775000Y-115687500I0J-62500D01*
G01*
X132775000Y-115812500D01*
G75*
G02*
X132712500Y-115875000I-62500J0D01*
G01*
X131962500Y-115875000D01*
G75*
G02*
X131900000Y-115812500I0J62500D01*
G01*
X131900000Y-115687500D01*
G75*
G02*
X131962500Y-115625000I62500J0D01*
G01*
G37*
G36*
G01*
X131962500Y-115125000D02*
X132712500Y-115125000D01*
G75*
G02*
X132775000Y-115187500I0J-62500D01*
G01*
X132775000Y-115312500D01*
G75*
G02*
X132712500Y-115375000I-62500J0D01*
G01*
X131962500Y-115375000D01*
G75*
G02*
X131900000Y-115312500I0J62500D01*
G01*
X131900000Y-115187500D01*
G75*
G02*
X131962500Y-115125000I62500J0D01*
G01*
G37*
G36*
G01*
X131962500Y-114625000D02*
X132712500Y-114625000D01*
G75*
G02*
X132775000Y-114687500I0J-62500D01*
G01*
X132775000Y-114812500D01*
G75*
G02*
X132712500Y-114875000I-62500J0D01*
G01*
X131962500Y-114875000D01*
G75*
G02*
X131900000Y-114812500I0J62500D01*
G01*
X131900000Y-114687500D01*
G75*
G02*
X131962500Y-114625000I62500J0D01*
G01*
G37*
G36*
G01*
X131962500Y-114125000D02*
X132712500Y-114125000D01*
G75*
G02*
X132775000Y-114187500I0J-62500D01*
G01*
X132775000Y-114312500D01*
G75*
G02*
X132712500Y-114375000I-62500J0D01*
G01*
X131962500Y-114375000D01*
G75*
G02*
X131900000Y-114312500I0J62500D01*
G01*
X131900000Y-114187500D01*
G75*
G02*
X131962500Y-114125000I62500J0D01*
G01*
G37*
G36*
G01*
X131962500Y-113625000D02*
X132712500Y-113625000D01*
G75*
G02*
X132775000Y-113687500I0J-62500D01*
G01*
X132775000Y-113812500D01*
G75*
G02*
X132712500Y-113875000I-62500J0D01*
G01*
X131962500Y-113875000D01*
G75*
G02*
X131900000Y-113812500I0J62500D01*
G01*
X131900000Y-113687500D01*
G75*
G02*
X131962500Y-113625000I62500J0D01*
G01*
G37*
G36*
G01*
X130817500Y-113885000D02*
X131282500Y-113885000D01*
G75*
G02*
X131515000Y-114117500I0J-232500D01*
G01*
X131515000Y-114582500D01*
G75*
G02*
X131282500Y-114815000I-232500J0D01*
G01*
X130817500Y-114815000D01*
G75*
G02*
X130585000Y-114582500I0J232500D01*
G01*
X130585000Y-114117500D01*
G75*
G02*
X130817500Y-113885000I232500J0D01*
G01*
G37*
G36*
G01*
X129667500Y-113885000D02*
X130132500Y-113885000D01*
G75*
G02*
X130365000Y-114117500I0J-232500D01*
G01*
X130365000Y-114582500D01*
G75*
G02*
X130132500Y-114815000I-232500J0D01*
G01*
X129667500Y-114815000D01*
G75*
G02*
X129435000Y-114582500I0J232500D01*
G01*
X129435000Y-114117500D01*
G75*
G02*
X129667500Y-113885000I232500J0D01*
G01*
G37*
G36*
G01*
X128517500Y-113885000D02*
X128982500Y-113885000D01*
G75*
G02*
X129215000Y-114117500I0J-232500D01*
G01*
X129215000Y-114582500D01*
G75*
G02*
X128982500Y-114815000I-232500J0D01*
G01*
X128517500Y-114815000D01*
G75*
G02*
X128285000Y-114582500I0J232500D01*
G01*
X128285000Y-114117500D01*
G75*
G02*
X128517500Y-113885000I232500J0D01*
G01*
G37*
G36*
G01*
X130817500Y-115035000D02*
X131282500Y-115035000D01*
G75*
G02*
X131515000Y-115267500I0J-232500D01*
G01*
X131515000Y-115732500D01*
G75*
G02*
X131282500Y-115965000I-232500J0D01*
G01*
X130817500Y-115965000D01*
G75*
G02*
X130585000Y-115732500I0J232500D01*
G01*
X130585000Y-115267500D01*
G75*
G02*
X130817500Y-115035000I232500J0D01*
G01*
G37*
G36*
G01*
X129667500Y-115035000D02*
X130132500Y-115035000D01*
G75*
G02*
X130365000Y-115267500I0J-232500D01*
G01*
X130365000Y-115732500D01*
G75*
G02*
X130132500Y-115965000I-232500J0D01*
G01*
X129667500Y-115965000D01*
G75*
G02*
X129435000Y-115732500I0J232500D01*
G01*
X129435000Y-115267500D01*
G75*
G02*
X129667500Y-115035000I232500J0D01*
G01*
G37*
G36*
G01*
X128517500Y-115035000D02*
X128982500Y-115035000D01*
G75*
G02*
X129215000Y-115267500I0J-232500D01*
G01*
X129215000Y-115732500D01*
G75*
G02*
X128982500Y-115965000I-232500J0D01*
G01*
X128517500Y-115965000D01*
G75*
G02*
X128285000Y-115732500I0J232500D01*
G01*
X128285000Y-115267500D01*
G75*
G02*
X128517500Y-115035000I232500J0D01*
G01*
G37*
G36*
G01*
X130817500Y-116185000D02*
X131282500Y-116185000D01*
G75*
G02*
X131515000Y-116417500I0J-232500D01*
G01*
X131515000Y-116882500D01*
G75*
G02*
X131282500Y-117115000I-232500J0D01*
G01*
X130817500Y-117115000D01*
G75*
G02*
X130585000Y-116882500I0J232500D01*
G01*
X130585000Y-116417500D01*
G75*
G02*
X130817500Y-116185000I232500J0D01*
G01*
G37*
G36*
G01*
X129667500Y-116185000D02*
X130132500Y-116185000D01*
G75*
G02*
X130365000Y-116417500I0J-232500D01*
G01*
X130365000Y-116882500D01*
G75*
G02*
X130132500Y-117115000I-232500J0D01*
G01*
X129667500Y-117115000D01*
G75*
G02*
X129435000Y-116882500I0J232500D01*
G01*
X129435000Y-116417500D01*
G75*
G02*
X129667500Y-116185000I232500J0D01*
G01*
G37*
G36*
G01*
X128517500Y-116185000D02*
X128982500Y-116185000D01*
G75*
G02*
X129215000Y-116417500I0J-232500D01*
G01*
X129215000Y-116882500D01*
G75*
G02*
X128982500Y-117115000I-232500J0D01*
G01*
X128517500Y-117115000D01*
G75*
G02*
X128285000Y-116882500I0J232500D01*
G01*
X128285000Y-116417500D01*
G75*
G02*
X128517500Y-116185000I232500J0D01*
G01*
G37*
%TD*%
D16*
%TO.C,U2*%
X122350000Y-116950000D03*
X122350000Y-116000000D03*
X122350000Y-115050000D03*
X120150000Y-115050000D03*
X120150000Y-116950000D03*
X120150000Y-116000000D03*
%TD*%
D17*
%TO.C,U1*%
X123550000Y-113200000D03*
X125450000Y-113200000D03*
X124500000Y-111200000D03*
%TD*%
%TO.C,R5*%
G36*
G01*
X138260000Y-118065000D02*
X138260000Y-118435000D01*
G75*
G02*
X138125000Y-118570000I-135000J0D01*
G01*
X137855000Y-118570000D01*
G75*
G02*
X137720000Y-118435000I0J135000D01*
G01*
X137720000Y-118065000D01*
G75*
G02*
X137855000Y-117930000I135000J0D01*
G01*
X138125000Y-117930000D01*
G75*
G02*
X138260000Y-118065000I0J-135000D01*
G01*
G37*
G36*
G01*
X139280000Y-118065000D02*
X139280000Y-118435000D01*
G75*
G02*
X139145000Y-118570000I-135000J0D01*
G01*
X138875000Y-118570000D01*
G75*
G02*
X138740000Y-118435000I0J135000D01*
G01*
X138740000Y-118065000D01*
G75*
G02*
X138875000Y-117930000I135000J0D01*
G01*
X139145000Y-117930000D01*
G75*
G02*
X139280000Y-118065000I0J-135000D01*
G01*
G37*
%TD*%
%TO.C,R4*%
G36*
G01*
X139185000Y-111260000D02*
X138815000Y-111260000D01*
G75*
G02*
X138680000Y-111125000I0J135000D01*
G01*
X138680000Y-110855000D01*
G75*
G02*
X138815000Y-110720000I135000J0D01*
G01*
X139185000Y-110720000D01*
G75*
G02*
X139320000Y-110855000I0J-135000D01*
G01*
X139320000Y-111125000D01*
G75*
G02*
X139185000Y-111260000I-135000J0D01*
G01*
G37*
G36*
G01*
X139185000Y-112280000D02*
X138815000Y-112280000D01*
G75*
G02*
X138680000Y-112145000I0J135000D01*
G01*
X138680000Y-111875000D01*
G75*
G02*
X138815000Y-111740000I135000J0D01*
G01*
X139185000Y-111740000D01*
G75*
G02*
X139320000Y-111875000I0J-135000D01*
G01*
X139320000Y-112145000D01*
G75*
G02*
X139185000Y-112280000I-135000J0D01*
G01*
G37*
%TD*%
%TO.C,R2*%
G36*
G01*
X131340000Y-109585000D02*
X131340000Y-109215000D01*
G75*
G02*
X131475000Y-109080000I135000J0D01*
G01*
X131745000Y-109080000D01*
G75*
G02*
X131880000Y-109215000I0J-135000D01*
G01*
X131880000Y-109585000D01*
G75*
G02*
X131745000Y-109720000I-135000J0D01*
G01*
X131475000Y-109720000D01*
G75*
G02*
X131340000Y-109585000I0J135000D01*
G01*
G37*
G36*
G01*
X130320000Y-109585000D02*
X130320000Y-109215000D01*
G75*
G02*
X130455000Y-109080000I135000J0D01*
G01*
X130725000Y-109080000D01*
G75*
G02*
X130860000Y-109215000I0J-135000D01*
G01*
X130860000Y-109585000D01*
G75*
G02*
X130725000Y-109720000I-135000J0D01*
G01*
X130455000Y-109720000D01*
G75*
G02*
X130320000Y-109585000I0J135000D01*
G01*
G37*
%TD*%
%TO.C,R1*%
G36*
G01*
X126080000Y-109615000D02*
X126080000Y-109985000D01*
G75*
G02*
X125945000Y-110120000I-135000J0D01*
G01*
X125675000Y-110120000D01*
G75*
G02*
X125540000Y-109985000I0J135000D01*
G01*
X125540000Y-109615000D01*
G75*
G02*
X125675000Y-109480000I135000J0D01*
G01*
X125945000Y-109480000D01*
G75*
G02*
X126080000Y-109615000I0J-135000D01*
G01*
G37*
G36*
G01*
X125060000Y-109615000D02*
X125060000Y-109985000D01*
G75*
G02*
X124925000Y-110120000I-135000J0D01*
G01*
X124655000Y-110120000D01*
G75*
G02*
X124520000Y-109985000I0J135000D01*
G01*
X124520000Y-109615000D01*
G75*
G02*
X124655000Y-109480000I135000J0D01*
G01*
X124925000Y-109480000D01*
G75*
G02*
X125060000Y-109615000I0J-135000D01*
G01*
G37*
%TD*%
%TO.C,LD2*%
G36*
G01*
X128393750Y-109525000D02*
X128906250Y-109525000D01*
G75*
G02*
X129125000Y-109743750I0J-218750D01*
G01*
X129125000Y-110181250D01*
G75*
G02*
X128906250Y-110400000I-218750J0D01*
G01*
X128393750Y-110400000D01*
G75*
G02*
X128175000Y-110181250I0J218750D01*
G01*
X128175000Y-109743750D01*
G75*
G02*
X128393750Y-109525000I218750J0D01*
G01*
G37*
G36*
G01*
X128393750Y-111100000D02*
X128906250Y-111100000D01*
G75*
G02*
X129125000Y-111318750I0J-218750D01*
G01*
X129125000Y-111756250D01*
G75*
G02*
X128906250Y-111975000I-218750J0D01*
G01*
X128393750Y-111975000D01*
G75*
G02*
X128175000Y-111756250I0J218750D01*
G01*
X128175000Y-111318750D01*
G75*
G02*
X128393750Y-111100000I218750J0D01*
G01*
G37*
%TD*%
%TO.C,LD1*%
G36*
G01*
X126843750Y-109525000D02*
X127356250Y-109525000D01*
G75*
G02*
X127575000Y-109743750I0J-218750D01*
G01*
X127575000Y-110181250D01*
G75*
G02*
X127356250Y-110400000I-218750J0D01*
G01*
X126843750Y-110400000D01*
G75*
G02*
X126625000Y-110181250I0J218750D01*
G01*
X126625000Y-109743750D01*
G75*
G02*
X126843750Y-109525000I218750J0D01*
G01*
G37*
G36*
G01*
X126843750Y-111100000D02*
X127356250Y-111100000D01*
G75*
G02*
X127575000Y-111318750I0J-218750D01*
G01*
X127575000Y-111756250D01*
G75*
G02*
X127356250Y-111975000I-218750J0D01*
G01*
X126843750Y-111975000D01*
G75*
G02*
X126625000Y-111756250I0J218750D01*
G01*
X126625000Y-111318750D01*
G75*
G02*
X126843750Y-111100000I218750J0D01*
G01*
G37*
%TD*%
%TO.C,L3*%
G36*
G01*
X141810000Y-114827500D02*
X141810000Y-115172500D01*
G75*
G02*
X141662500Y-115320000I-147500J0D01*
G01*
X141367500Y-115320000D01*
G75*
G02*
X141220000Y-115172500I0J147500D01*
G01*
X141220000Y-114827500D01*
G75*
G02*
X141367500Y-114680000I147500J0D01*
G01*
X141662500Y-114680000D01*
G75*
G02*
X141810000Y-114827500I0J-147500D01*
G01*
G37*
G36*
G01*
X142780000Y-114827500D02*
X142780000Y-115172500D01*
G75*
G02*
X142632500Y-115320000I-147500J0D01*
G01*
X142337500Y-115320000D01*
G75*
G02*
X142190000Y-115172500I0J147500D01*
G01*
X142190000Y-114827500D01*
G75*
G02*
X142337500Y-114680000I147500J0D01*
G01*
X142632500Y-114680000D01*
G75*
G02*
X142780000Y-114827500I0J-147500D01*
G01*
G37*
%TD*%
%TO.C,L2*%
G36*
G01*
X141327500Y-116690000D02*
X141672500Y-116690000D01*
G75*
G02*
X141820000Y-116837500I0J-147500D01*
G01*
X141820000Y-117132500D01*
G75*
G02*
X141672500Y-117280000I-147500J0D01*
G01*
X141327500Y-117280000D01*
G75*
G02*
X141180000Y-117132500I0J147500D01*
G01*
X141180000Y-116837500D01*
G75*
G02*
X141327500Y-116690000I147500J0D01*
G01*
G37*
G36*
G01*
X141327500Y-115720000D02*
X141672500Y-115720000D01*
G75*
G02*
X141820000Y-115867500I0J-147500D01*
G01*
X141820000Y-116162500D01*
G75*
G02*
X141672500Y-116310000I-147500J0D01*
G01*
X141327500Y-116310000D01*
G75*
G02*
X141180000Y-116162500I0J147500D01*
G01*
X141180000Y-115867500D01*
G75*
G02*
X141327500Y-115720000I147500J0D01*
G01*
G37*
%TD*%
%TO.C,L1*%
G36*
G01*
X140672500Y-115310000D02*
X140327500Y-115310000D01*
G75*
G02*
X140180000Y-115162500I0J147500D01*
G01*
X140180000Y-114867500D01*
G75*
G02*
X140327500Y-114720000I147500J0D01*
G01*
X140672500Y-114720000D01*
G75*
G02*
X140820000Y-114867500I0J-147500D01*
G01*
X140820000Y-115162500D01*
G75*
G02*
X140672500Y-115310000I-147500J0D01*
G01*
G37*
G36*
G01*
X140672500Y-116280000D02*
X140327500Y-116280000D01*
G75*
G02*
X140180000Y-116132500I0J147500D01*
G01*
X140180000Y-115837500D01*
G75*
G02*
X140327500Y-115690000I147500J0D01*
G01*
X140672500Y-115690000D01*
G75*
G02*
X140820000Y-115837500I0J-147500D01*
G01*
X140820000Y-116132500D01*
G75*
G02*
X140672500Y-116280000I-147500J0D01*
G01*
G37*
%TD*%
%TO.C,FB1*%
G36*
G01*
X119818750Y-112875000D02*
X120581250Y-112875000D01*
G75*
G02*
X120800000Y-113093750I0J-218750D01*
G01*
X120800000Y-113531250D01*
G75*
G02*
X120581250Y-113750000I-218750J0D01*
G01*
X119818750Y-113750000D01*
G75*
G02*
X119600000Y-113531250I0J218750D01*
G01*
X119600000Y-113093750D01*
G75*
G02*
X119818750Y-112875000I218750J0D01*
G01*
G37*
G36*
G01*
X119818750Y-110750000D02*
X120581250Y-110750000D01*
G75*
G02*
X120800000Y-110968750I0J-218750D01*
G01*
X120800000Y-111406250D01*
G75*
G02*
X120581250Y-111625000I-218750J0D01*
G01*
X119818750Y-111625000D01*
G75*
G02*
X119600000Y-111406250I0J218750D01*
G01*
X119600000Y-110968750D01*
G75*
G02*
X119818750Y-110750000I218750J0D01*
G01*
G37*
%TD*%
%TO.C,F1*%
G36*
G01*
X118775000Y-113725000D02*
X117625000Y-113725000D01*
G75*
G02*
X117375000Y-113475000I0J250000D01*
G01*
X117375000Y-112375000D01*
G75*
G02*
X117625000Y-112125000I250000J0D01*
G01*
X118775000Y-112125000D01*
G75*
G02*
X119025000Y-112375000I0J-250000D01*
G01*
X119025000Y-113475000D01*
G75*
G02*
X118775000Y-113725000I-250000J0D01*
G01*
G37*
G36*
G01*
X118775000Y-110875000D02*
X117625000Y-110875000D01*
G75*
G02*
X117375000Y-110625000I0J250000D01*
G01*
X117375000Y-109525000D01*
G75*
G02*
X117625000Y-109275000I250000J0D01*
G01*
X118775000Y-109275000D01*
G75*
G02*
X119025000Y-109525000I0J-250000D01*
G01*
X119025000Y-110625000D01*
G75*
G02*
X118775000Y-110875000I-250000J0D01*
G01*
G37*
%TD*%
%TO.C,C18*%
G36*
G01*
X137275000Y-111000000D02*
X137275000Y-110500000D01*
G75*
G02*
X137500000Y-110275000I225000J0D01*
G01*
X137950000Y-110275000D01*
G75*
G02*
X138175000Y-110500000I0J-225000D01*
G01*
X138175000Y-111000000D01*
G75*
G02*
X137950000Y-111225000I-225000J0D01*
G01*
X137500000Y-111225000D01*
G75*
G02*
X137275000Y-111000000I0J225000D01*
G01*
G37*
G36*
G01*
X135725000Y-111000000D02*
X135725000Y-110500000D01*
G75*
G02*
X135950000Y-110275000I225000J0D01*
G01*
X136400000Y-110275000D01*
G75*
G02*
X136625000Y-110500000I0J-225000D01*
G01*
X136625000Y-111000000D01*
G75*
G02*
X136400000Y-111225000I-225000J0D01*
G01*
X135950000Y-111225000D01*
G75*
G02*
X135725000Y-111000000I0J225000D01*
G01*
G37*
%TD*%
%TO.C,C17*%
G36*
G01*
X145330000Y-114700000D02*
X145670000Y-114700000D01*
G75*
G02*
X145810000Y-114840000I0J-140000D01*
G01*
X145810000Y-115120000D01*
G75*
G02*
X145670000Y-115260000I-140000J0D01*
G01*
X145330000Y-115260000D01*
G75*
G02*
X145190000Y-115120000I0J140000D01*
G01*
X145190000Y-114840000D01*
G75*
G02*
X145330000Y-114700000I140000J0D01*
G01*
G37*
G36*
G01*
X145330000Y-113740000D02*
X145670000Y-113740000D01*
G75*
G02*
X145810000Y-113880000I0J-140000D01*
G01*
X145810000Y-114160000D01*
G75*
G02*
X145670000Y-114300000I-140000J0D01*
G01*
X145330000Y-114300000D01*
G75*
G02*
X145190000Y-114160000I0J140000D01*
G01*
X145190000Y-113880000D01*
G75*
G02*
X145330000Y-113740000I140000J0D01*
G01*
G37*
%TD*%
%TO.C,C16*%
G36*
G01*
X143800000Y-114830000D02*
X143800000Y-115170000D01*
G75*
G02*
X143660000Y-115310000I-140000J0D01*
G01*
X143380000Y-115310000D01*
G75*
G02*
X143240000Y-115170000I0J140000D01*
G01*
X143240000Y-114830000D01*
G75*
G02*
X143380000Y-114690000I140000J0D01*
G01*
X143660000Y-114690000D01*
G75*
G02*
X143800000Y-114830000I0J-140000D01*
G01*
G37*
G36*
G01*
X144760000Y-114830000D02*
X144760000Y-115170000D01*
G75*
G02*
X144620000Y-115310000I-140000J0D01*
G01*
X144340000Y-115310000D01*
G75*
G02*
X144200000Y-115170000I0J140000D01*
G01*
X144200000Y-114830000D01*
G75*
G02*
X144340000Y-114690000I140000J0D01*
G01*
X144620000Y-114690000D01*
G75*
G02*
X144760000Y-114830000I0J-140000D01*
G01*
G37*
%TD*%
%TO.C,C15*%
G36*
G01*
X143200000Y-118170000D02*
X143200000Y-117830000D01*
G75*
G02*
X143340000Y-117690000I140000J0D01*
G01*
X143620000Y-117690000D01*
G75*
G02*
X143760000Y-117830000I0J-140000D01*
G01*
X143760000Y-118170000D01*
G75*
G02*
X143620000Y-118310000I-140000J0D01*
G01*
X143340000Y-118310000D01*
G75*
G02*
X143200000Y-118170000I0J140000D01*
G01*
G37*
G36*
G01*
X142240000Y-118170000D02*
X142240000Y-117830000D01*
G75*
G02*
X142380000Y-117690000I140000J0D01*
G01*
X142660000Y-117690000D01*
G75*
G02*
X142800000Y-117830000I0J-140000D01*
G01*
X142800000Y-118170000D01*
G75*
G02*
X142660000Y-118310000I-140000J0D01*
G01*
X142380000Y-118310000D01*
G75*
G02*
X142240000Y-118170000I0J140000D01*
G01*
G37*
%TD*%
%TO.C,C14*%
G36*
G01*
X140730000Y-119340000D02*
X141070000Y-119340000D01*
G75*
G02*
X141210000Y-119480000I0J-140000D01*
G01*
X141210000Y-119760000D01*
G75*
G02*
X141070000Y-119900000I-140000J0D01*
G01*
X140730000Y-119900000D01*
G75*
G02*
X140590000Y-119760000I0J140000D01*
G01*
X140590000Y-119480000D01*
G75*
G02*
X140730000Y-119340000I140000J0D01*
G01*
G37*
G36*
G01*
X140730000Y-120300000D02*
X141070000Y-120300000D01*
G75*
G02*
X141210000Y-120440000I0J-140000D01*
G01*
X141210000Y-120720000D01*
G75*
G02*
X141070000Y-120860000I-140000J0D01*
G01*
X140730000Y-120860000D01*
G75*
G02*
X140590000Y-120720000I0J140000D01*
G01*
X140590000Y-120440000D01*
G75*
G02*
X140730000Y-120300000I140000J0D01*
G01*
G37*
%TD*%
%TO.C,C13*%
G36*
G01*
X143200000Y-117170000D02*
X143200000Y-116830000D01*
G75*
G02*
X143340000Y-116690000I140000J0D01*
G01*
X143620000Y-116690000D01*
G75*
G02*
X143760000Y-116830000I0J-140000D01*
G01*
X143760000Y-117170000D01*
G75*
G02*
X143620000Y-117310000I-140000J0D01*
G01*
X143340000Y-117310000D01*
G75*
G02*
X143200000Y-117170000I0J140000D01*
G01*
G37*
G36*
G01*
X142240000Y-117170000D02*
X142240000Y-116830000D01*
G75*
G02*
X142380000Y-116690000I140000J0D01*
G01*
X142660000Y-116690000D01*
G75*
G02*
X142800000Y-116830000I0J-140000D01*
G01*
X142800000Y-117170000D01*
G75*
G02*
X142660000Y-117310000I-140000J0D01*
G01*
X142380000Y-117310000D01*
G75*
G02*
X142240000Y-117170000I0J140000D01*
G01*
G37*
%TD*%
%TO.C,C11*%
G36*
G01*
X139830000Y-111700000D02*
X140170000Y-111700000D01*
G75*
G02*
X140310000Y-111840000I0J-140000D01*
G01*
X140310000Y-112120000D01*
G75*
G02*
X140170000Y-112260000I-140000J0D01*
G01*
X139830000Y-112260000D01*
G75*
G02*
X139690000Y-112120000I0J140000D01*
G01*
X139690000Y-111840000D01*
G75*
G02*
X139830000Y-111700000I140000J0D01*
G01*
G37*
G36*
G01*
X139830000Y-110740000D02*
X140170000Y-110740000D01*
G75*
G02*
X140310000Y-110880000I0J-140000D01*
G01*
X140310000Y-111160000D01*
G75*
G02*
X140170000Y-111300000I-140000J0D01*
G01*
X139830000Y-111300000D01*
G75*
G02*
X139690000Y-111160000I0J140000D01*
G01*
X139690000Y-110880000D01*
G75*
G02*
X139830000Y-110740000I140000J0D01*
G01*
G37*
%TD*%
%TO.C,C10*%
G36*
G01*
X135700000Y-112170000D02*
X135700000Y-111830000D01*
G75*
G02*
X135840000Y-111690000I140000J0D01*
G01*
X136120000Y-111690000D01*
G75*
G02*
X136260000Y-111830000I0J-140000D01*
G01*
X136260000Y-112170000D01*
G75*
G02*
X136120000Y-112310000I-140000J0D01*
G01*
X135840000Y-112310000D01*
G75*
G02*
X135700000Y-112170000I0J140000D01*
G01*
G37*
G36*
G01*
X134740000Y-112170000D02*
X134740000Y-111830000D01*
G75*
G02*
X134880000Y-111690000I140000J0D01*
G01*
X135160000Y-111690000D01*
G75*
G02*
X135300000Y-111830000I0J-140000D01*
G01*
X135300000Y-112170000D01*
G75*
G02*
X135160000Y-112310000I-140000J0D01*
G01*
X134880000Y-112310000D01*
G75*
G02*
X134740000Y-112170000I0J140000D01*
G01*
G37*
%TD*%
%TO.C,C9*%
G36*
G01*
X137300000Y-111830000D02*
X137300000Y-112170000D01*
G75*
G02*
X137160000Y-112310000I-140000J0D01*
G01*
X136880000Y-112310000D01*
G75*
G02*
X136740000Y-112170000I0J140000D01*
G01*
X136740000Y-111830000D01*
G75*
G02*
X136880000Y-111690000I140000J0D01*
G01*
X137160000Y-111690000D01*
G75*
G02*
X137300000Y-111830000I0J-140000D01*
G01*
G37*
G36*
G01*
X138260000Y-111830000D02*
X138260000Y-112170000D01*
G75*
G02*
X138120000Y-112310000I-140000J0D01*
G01*
X137840000Y-112310000D01*
G75*
G02*
X137700000Y-112170000I0J140000D01*
G01*
X137700000Y-111830000D01*
G75*
G02*
X137840000Y-111690000I140000J0D01*
G01*
X138120000Y-111690000D01*
G75*
G02*
X138260000Y-111830000I0J-140000D01*
G01*
G37*
%TD*%
%TO.C,C8*%
G36*
G01*
X135950000Y-118420000D02*
X135950000Y-118080000D01*
G75*
G02*
X136090000Y-117940000I140000J0D01*
G01*
X136370000Y-117940000D01*
G75*
G02*
X136510000Y-118080000I0J-140000D01*
G01*
X136510000Y-118420000D01*
G75*
G02*
X136370000Y-118560000I-140000J0D01*
G01*
X136090000Y-118560000D01*
G75*
G02*
X135950000Y-118420000I0J140000D01*
G01*
G37*
G36*
G01*
X134990000Y-118420000D02*
X134990000Y-118080000D01*
G75*
G02*
X135130000Y-117940000I140000J0D01*
G01*
X135410000Y-117940000D01*
G75*
G02*
X135550000Y-118080000I0J-140000D01*
G01*
X135550000Y-118420000D01*
G75*
G02*
X135410000Y-118560000I-140000J0D01*
G01*
X135130000Y-118560000D01*
G75*
G02*
X134990000Y-118420000I0J140000D01*
G01*
G37*
%TD*%
%TO.C,C7*%
G36*
G01*
X117080000Y-120450000D02*
X117420000Y-120450000D01*
G75*
G02*
X117560000Y-120590000I0J-140000D01*
G01*
X117560000Y-120870000D01*
G75*
G02*
X117420000Y-121010000I-140000J0D01*
G01*
X117080000Y-121010000D01*
G75*
G02*
X116940000Y-120870000I0J140000D01*
G01*
X116940000Y-120590000D01*
G75*
G02*
X117080000Y-120450000I140000J0D01*
G01*
G37*
G36*
G01*
X117080000Y-119490000D02*
X117420000Y-119490000D01*
G75*
G02*
X117560000Y-119630000I0J-140000D01*
G01*
X117560000Y-119910000D01*
G75*
G02*
X117420000Y-120050000I-140000J0D01*
G01*
X117080000Y-120050000D01*
G75*
G02*
X116940000Y-119910000I0J140000D01*
G01*
X116940000Y-119630000D01*
G75*
G02*
X117080000Y-119490000I140000J0D01*
G01*
G37*
%TD*%
%TO.C,C5*%
G36*
G01*
X121650000Y-110775000D02*
X122150000Y-110775000D01*
G75*
G02*
X122375000Y-111000000I0J-225000D01*
G01*
X122375000Y-111450000D01*
G75*
G02*
X122150000Y-111675000I-225000J0D01*
G01*
X121650000Y-111675000D01*
G75*
G02*
X121425000Y-111450000I0J225000D01*
G01*
X121425000Y-111000000D01*
G75*
G02*
X121650000Y-110775000I225000J0D01*
G01*
G37*
G36*
G01*
X121650000Y-112325000D02*
X122150000Y-112325000D01*
G75*
G02*
X122375000Y-112550000I0J-225000D01*
G01*
X122375000Y-113000000D01*
G75*
G02*
X122150000Y-113225000I-225000J0D01*
G01*
X121650000Y-113225000D01*
G75*
G02*
X121425000Y-113000000I0J225000D01*
G01*
X121425000Y-112550000D01*
G75*
G02*
X121650000Y-112325000I225000J0D01*
G01*
G37*
%TD*%
%TO.C,C4*%
G36*
G01*
X131290000Y-112020000D02*
X131290000Y-111680000D01*
G75*
G02*
X131430000Y-111540000I140000J0D01*
G01*
X131710000Y-111540000D01*
G75*
G02*
X131850000Y-111680000I0J-140000D01*
G01*
X131850000Y-112020000D01*
G75*
G02*
X131710000Y-112160000I-140000J0D01*
G01*
X131430000Y-112160000D01*
G75*
G02*
X131290000Y-112020000I0J140000D01*
G01*
G37*
G36*
G01*
X132250000Y-112020000D02*
X132250000Y-111680000D01*
G75*
G02*
X132390000Y-111540000I140000J0D01*
G01*
X132670000Y-111540000D01*
G75*
G02*
X132810000Y-111680000I0J-140000D01*
G01*
X132810000Y-112020000D01*
G75*
G02*
X132670000Y-112160000I-140000J0D01*
G01*
X132390000Y-112160000D01*
G75*
G02*
X132250000Y-112020000I0J140000D01*
G01*
G37*
%TD*%
%TO.C,C3*%
G36*
G01*
X128460000Y-119080000D02*
X128460000Y-119420000D01*
G75*
G02*
X128320000Y-119560000I-140000J0D01*
G01*
X128040000Y-119560000D01*
G75*
G02*
X127900000Y-119420000I0J140000D01*
G01*
X127900000Y-119080000D01*
G75*
G02*
X128040000Y-118940000I140000J0D01*
G01*
X128320000Y-118940000D01*
G75*
G02*
X128460000Y-119080000I0J-140000D01*
G01*
G37*
G36*
G01*
X127500000Y-119080000D02*
X127500000Y-119420000D01*
G75*
G02*
X127360000Y-119560000I-140000J0D01*
G01*
X127080000Y-119560000D01*
G75*
G02*
X126940000Y-119420000I0J140000D01*
G01*
X126940000Y-119080000D01*
G75*
G02*
X127080000Y-118940000I140000J0D01*
G01*
X127360000Y-118940000D01*
G75*
G02*
X127500000Y-119080000I0J-140000D01*
G01*
G37*
%TD*%
%TO.C,C2*%
G36*
G01*
X130070000Y-112060000D02*
X129730000Y-112060000D01*
G75*
G02*
X129590000Y-111920000I0J140000D01*
G01*
X129590000Y-111640000D01*
G75*
G02*
X129730000Y-111500000I140000J0D01*
G01*
X130070000Y-111500000D01*
G75*
G02*
X130210000Y-111640000I0J-140000D01*
G01*
X130210000Y-111920000D01*
G75*
G02*
X130070000Y-112060000I-140000J0D01*
G01*
G37*
G36*
G01*
X130070000Y-111100000D02*
X129730000Y-111100000D01*
G75*
G02*
X129590000Y-110960000I0J140000D01*
G01*
X129590000Y-110680000D01*
G75*
G02*
X129730000Y-110540000I140000J0D01*
G01*
X130070000Y-110540000D01*
G75*
G02*
X130210000Y-110680000I0J-140000D01*
G01*
X130210000Y-110960000D01*
G75*
G02*
X130070000Y-111100000I-140000J0D01*
G01*
G37*
%TD*%
M02*
