M48
; DRILL file {KiCad (5.1.8)-1} date 12/12/20 20:42:24
; FORMAT={-:-/ absolute / metric / decimal}
; #@! TF.CreationDate,2020-12-12T20:42:24+01:00
; #@! TF.GenerationSoftware,Kicad,Pcbnew,(5.1.8)-1
FMAT,2
METRIC
T1C0.250
T2C0.300
T3C0.400
T4C0.600
T5C0.650
T6C0.600
T7C1.152
%
G90
G05
T1
X130.8Y-112.1
T2
X113.4Y-114.095
X117.2Y-119.0
X119.193Y-114.465
X121.25Y-115.464
X121.25Y-116.5
X124.2Y-109.8
X126.7Y-119.2
X128.8Y-119.2
X129.3Y-114.9
X129.3Y-116.1
X129.9Y-110.2
X130.5Y-114.9
X130.5Y-116.1
X130.8Y-111.2
X131.57Y-110.23
X132.3Y-109.5
X132.53Y-110.23
X133.5Y-110.2
X133.993Y-115.193
X134.0Y-116.9
X134.5Y-112.0
X134.75Y-118.25
X135.7Y-120.05
X135.75Y-119.0
X136.4Y-115.1
X137.1Y-114.4
X137.1Y-115.8
X137.201Y-118.151
X137.8Y-115.1
X139.0Y-110.3
X140.0Y-114.173
X140.6Y-111.0
X140.6Y-112.0
X140.9Y-121.2
X144.1Y-117.0
X144.1Y-118.0
X145.5Y-113.4
T3
X115.863Y-112.235
X116.15Y-118.6
X121.9Y-113.6
X123.5Y-112.25
X124.125Y-115.625
X125.5Y-112.25
X125.625Y-115.625
X136.2Y-109.8
X137.7Y-109.8
X145.9Y-118.3
X147.5Y-111.5
X147.5Y-119.5
X148.75Y-111.5
X148.75Y-119.5
X150.0Y-111.5
X150.0Y-119.5
T5
X119.17Y-119.5
X119.17Y-120.77
X120.44Y-119.5
X120.44Y-120.77
X121.71Y-119.5
X121.71Y-120.77
X122.98Y-119.5
X122.98Y-120.77
X124.25Y-119.5
X124.25Y-120.77
T7
X110.5Y-107.0
X149.5Y-124.0
X110.5Y-124.0
X149.5Y-107.0
T4
G00X111.55Y-111.18
M15
G01X110.25Y-111.18
M16
G05
G00X110.25Y-119.82
M15
G01X111.55Y-119.82
M16
G05
G00X114.225Y-111.18
M15
G01X115.225Y-111.18
M16
G05
G00X114.225Y-119.82
M15
G01X115.225Y-119.82
M16
G05
T6
G00X114.0Y-112.5
M15
G01X114.0Y-112.5
M16
G05
G00X114.0Y-118.375
M15
G01X114.0Y-118.625
M16
G05
T0
M30
