%TF.GenerationSoftware,KiCad,Pcbnew,(5.1.8)-1*%
%TF.CreationDate,2020-12-12T20:42:30+01:00*%
%TF.ProjectId,NRF24Stick,4e524632-3453-4746-9963-6b2e6b696361,rev?*%
%TF.SameCoordinates,Original*%
%TF.FileFunction,Soldermask,Bot*%
%TF.FilePolarity,Negative*%
%FSLAX46Y46*%
G04 Gerber Fmt 4.6, Leading zero omitted, Abs format (unit mm)*
G04 Created by KiCad (PCBNEW (5.1.8)-1) date 2020-12-12 20:42:30*
%MOMM*%
%LPD*%
G01*
G04 APERTURE LIST*
%ADD10C,1.300000*%
%ADD11O,2.600000X1.300000*%
%ADD12O,0.700000X0.950000*%
%ADD13O,0.700000X0.700000*%
%ADD14O,2.300000X1.300000*%
%ADD15O,1.100000X1.100000*%
%ADD16C,0.100000*%
G04 APERTURE END LIST*
D10*
%TO.C,H4*%
X149500000Y-107000000D03*
%TD*%
%TO.C,H3*%
X149500000Y-124000000D03*
%TD*%
%TO.C,H2*%
X110500000Y-124000000D03*
%TD*%
%TO.C,H1*%
X110500000Y-107000000D03*
%TD*%
%TO.C,J3*%
G36*
G01*
X150850000Y-119050000D02*
X146650000Y-119050000D01*
G75*
G02*
X146600000Y-119000000I0J50000D01*
G01*
X146600000Y-117650000D01*
G75*
G02*
X146650000Y-117600000I50000J0D01*
G01*
X150850000Y-117600000D01*
G75*
G02*
X150900000Y-117650000I0J-50000D01*
G01*
X150900000Y-119000000D01*
G75*
G02*
X150850000Y-119050000I-50000J0D01*
G01*
G37*
G36*
G01*
X150850000Y-113400000D02*
X146650000Y-113400000D01*
G75*
G02*
X146600000Y-113350000I0J50000D01*
G01*
X146600000Y-112000000D01*
G75*
G02*
X146650000Y-111950000I50000J0D01*
G01*
X150850000Y-111950000D01*
G75*
G02*
X150900000Y-112000000I0J-50000D01*
G01*
X150900000Y-113350000D01*
G75*
G02*
X150850000Y-113400000I-50000J0D01*
G01*
G37*
%TD*%
D11*
%TO.C,J2*%
X110900000Y-111180000D03*
X110900000Y-119820000D03*
D12*
X114000000Y-118500000D03*
D13*
X114000000Y-112500000D03*
D14*
X114725000Y-119820000D03*
X114725000Y-111180000D03*
%TD*%
D15*
%TO.C,J1*%
X119170000Y-120770000D03*
X119170000Y-119500000D03*
X120440000Y-120770000D03*
X120440000Y-119500000D03*
X121710000Y-120770000D03*
X121710000Y-119500000D03*
X122980000Y-120770000D03*
X122980000Y-119500000D03*
X124250000Y-120770000D03*
G36*
G01*
X123750000Y-118950000D02*
X124750000Y-118950000D01*
G75*
G02*
X124800000Y-119000000I0J-50000D01*
G01*
X124800000Y-120000000D01*
G75*
G02*
X124750000Y-120050000I-50000J0D01*
G01*
X123750000Y-120050000D01*
G75*
G02*
X123700000Y-120000000I0J50000D01*
G01*
X123700000Y-119000000D01*
G75*
G02*
X123750000Y-118950000I50000J0D01*
G01*
G37*
%TD*%
D16*
G36*
X121173110Y-120669470D02*
G01*
X121173612Y-120671227D01*
X121164648Y-120716290D01*
X121164648Y-120823710D01*
X121173612Y-120868773D01*
X121172969Y-120870667D01*
X121171007Y-120871057D01*
X121169736Y-120869744D01*
X121165530Y-120855881D01*
X121156475Y-120838939D01*
X121144289Y-120824091D01*
X121129440Y-120811905D01*
X121112499Y-120802850D01*
X121094114Y-120797272D01*
X121075000Y-120795390D01*
X121055886Y-120797272D01*
X121037501Y-120802850D01*
X121020559Y-120811905D01*
X121005711Y-120824091D01*
X120993525Y-120838940D01*
X120984470Y-120855881D01*
X120980264Y-120869744D01*
X120978804Y-120871111D01*
X120976890Y-120870530D01*
X120976388Y-120868773D01*
X120985352Y-120823710D01*
X120985352Y-120716290D01*
X120976388Y-120671227D01*
X120977031Y-120669333D01*
X120978993Y-120668943D01*
X120980264Y-120670256D01*
X120984470Y-120684119D01*
X120993525Y-120701061D01*
X121005711Y-120715909D01*
X121020560Y-120728095D01*
X121037501Y-120737150D01*
X121055886Y-120742728D01*
X121075000Y-120744610D01*
X121094114Y-120742728D01*
X121112499Y-120737150D01*
X121129441Y-120728095D01*
X121144289Y-120715909D01*
X121156475Y-120701060D01*
X121165530Y-120684119D01*
X121169736Y-120670256D01*
X121171196Y-120668889D01*
X121173110Y-120669470D01*
G37*
G36*
X119903110Y-120669470D02*
G01*
X119903612Y-120671227D01*
X119894648Y-120716290D01*
X119894648Y-120823710D01*
X119903612Y-120868773D01*
X119902969Y-120870667D01*
X119901007Y-120871057D01*
X119899736Y-120869744D01*
X119895530Y-120855881D01*
X119886475Y-120838939D01*
X119874289Y-120824091D01*
X119859440Y-120811905D01*
X119842499Y-120802850D01*
X119824114Y-120797272D01*
X119805000Y-120795390D01*
X119785886Y-120797272D01*
X119767501Y-120802850D01*
X119750559Y-120811905D01*
X119735711Y-120824091D01*
X119723525Y-120838940D01*
X119714470Y-120855881D01*
X119710264Y-120869744D01*
X119708804Y-120871111D01*
X119706890Y-120870530D01*
X119706388Y-120868773D01*
X119715352Y-120823710D01*
X119715352Y-120716290D01*
X119706388Y-120671227D01*
X119707031Y-120669333D01*
X119708993Y-120668943D01*
X119710264Y-120670256D01*
X119714470Y-120684119D01*
X119723525Y-120701061D01*
X119735711Y-120715909D01*
X119750560Y-120728095D01*
X119767501Y-120737150D01*
X119785886Y-120742728D01*
X119805000Y-120744610D01*
X119824114Y-120742728D01*
X119842499Y-120737150D01*
X119859441Y-120728095D01*
X119874289Y-120715909D01*
X119886475Y-120701060D01*
X119895530Y-120684119D01*
X119899736Y-120670256D01*
X119901196Y-120668889D01*
X119903110Y-120669470D01*
G37*
G36*
X122443110Y-120669470D02*
G01*
X122443612Y-120671227D01*
X122434648Y-120716290D01*
X122434648Y-120823710D01*
X122443612Y-120868773D01*
X122442969Y-120870667D01*
X122441007Y-120871057D01*
X122439736Y-120869744D01*
X122435530Y-120855881D01*
X122426475Y-120838939D01*
X122414289Y-120824091D01*
X122399440Y-120811905D01*
X122382499Y-120802850D01*
X122364114Y-120797272D01*
X122345000Y-120795390D01*
X122325886Y-120797272D01*
X122307501Y-120802850D01*
X122290559Y-120811905D01*
X122275711Y-120824091D01*
X122263525Y-120838940D01*
X122254470Y-120855881D01*
X122250264Y-120869744D01*
X122248804Y-120871111D01*
X122246890Y-120870530D01*
X122246388Y-120868773D01*
X122255352Y-120823710D01*
X122255352Y-120716290D01*
X122246388Y-120671227D01*
X122247031Y-120669333D01*
X122248993Y-120668943D01*
X122250264Y-120670256D01*
X122254470Y-120684119D01*
X122263525Y-120701061D01*
X122275711Y-120715909D01*
X122290560Y-120728095D01*
X122307501Y-120737150D01*
X122325886Y-120742728D01*
X122345000Y-120744610D01*
X122364114Y-120742728D01*
X122382499Y-120737150D01*
X122399441Y-120728095D01*
X122414289Y-120715909D01*
X122426475Y-120701060D01*
X122435530Y-120684119D01*
X122439736Y-120670256D01*
X122441196Y-120668889D01*
X122443110Y-120669470D01*
G37*
G36*
X123713110Y-120669470D02*
G01*
X123713612Y-120671227D01*
X123704648Y-120716290D01*
X123704648Y-120823710D01*
X123713612Y-120868773D01*
X123712969Y-120870667D01*
X123711007Y-120871057D01*
X123709736Y-120869744D01*
X123705530Y-120855881D01*
X123696475Y-120838939D01*
X123684289Y-120824091D01*
X123669440Y-120811905D01*
X123652499Y-120802850D01*
X123634114Y-120797272D01*
X123615000Y-120795390D01*
X123595886Y-120797272D01*
X123577501Y-120802850D01*
X123560559Y-120811905D01*
X123545711Y-120824091D01*
X123533525Y-120838940D01*
X123524470Y-120855881D01*
X123520264Y-120869744D01*
X123518804Y-120871111D01*
X123516890Y-120870530D01*
X123516388Y-120868773D01*
X123525352Y-120823710D01*
X123525352Y-120716290D01*
X123516388Y-120671227D01*
X123517031Y-120669333D01*
X123518993Y-120668943D01*
X123520264Y-120670256D01*
X123524470Y-120684119D01*
X123533525Y-120701061D01*
X123545711Y-120715909D01*
X123560560Y-120728095D01*
X123577501Y-120737150D01*
X123595886Y-120742728D01*
X123615000Y-120744610D01*
X123634114Y-120742728D01*
X123652499Y-120737150D01*
X123669441Y-120728095D01*
X123684289Y-120715909D01*
X123696475Y-120701060D01*
X123705530Y-120684119D01*
X123709736Y-120670256D01*
X123711196Y-120668889D01*
X123713110Y-120669470D01*
G37*
G36*
X124445267Y-120049000D02*
G01*
X124445267Y-120051000D01*
X124443731Y-120051990D01*
X124424421Y-120053891D01*
X124406036Y-120059469D01*
X124389095Y-120068524D01*
X124374246Y-120080710D01*
X124362060Y-120095559D01*
X124353005Y-120112500D01*
X124347427Y-120130885D01*
X124345545Y-120149999D01*
X124347427Y-120169113D01*
X124353005Y-120187498D01*
X124362060Y-120204439D01*
X124374246Y-120219288D01*
X124389095Y-120231474D01*
X124406125Y-120240576D01*
X124408000Y-120241353D01*
X124409218Y-120242940D01*
X124408453Y-120244788D01*
X124406845Y-120245163D01*
X124303710Y-120224648D01*
X124196290Y-120224648D01*
X124093155Y-120245163D01*
X124091261Y-120244520D01*
X124090871Y-120242558D01*
X124092000Y-120241353D01*
X124093875Y-120240576D01*
X124110905Y-120231474D01*
X124125754Y-120219288D01*
X124137940Y-120204440D01*
X124146995Y-120187498D01*
X124152573Y-120169113D01*
X124154455Y-120149999D01*
X124152573Y-120130885D01*
X124146995Y-120112500D01*
X124137940Y-120095559D01*
X124125754Y-120080710D01*
X124110906Y-120068524D01*
X124093964Y-120059469D01*
X124075579Y-120053891D01*
X124056269Y-120051990D01*
X124054643Y-120050825D01*
X124054839Y-120048835D01*
X124056465Y-120048000D01*
X124443535Y-120048000D01*
X124445267Y-120049000D01*
G37*
G36*
X121810667Y-120037031D02*
G01*
X121811057Y-120038993D01*
X121809744Y-120040264D01*
X121795881Y-120044470D01*
X121778939Y-120053525D01*
X121764091Y-120065711D01*
X121751907Y-120080558D01*
X121742850Y-120097501D01*
X121737272Y-120115886D01*
X121735390Y-120135000D01*
X121737272Y-120154114D01*
X121742850Y-120172499D01*
X121751905Y-120189441D01*
X121764091Y-120204289D01*
X121778940Y-120216475D01*
X121795881Y-120225530D01*
X121809744Y-120229736D01*
X121811111Y-120231196D01*
X121810530Y-120233110D01*
X121808773Y-120233612D01*
X121763710Y-120224648D01*
X121656290Y-120224648D01*
X121611227Y-120233612D01*
X121609333Y-120232969D01*
X121608943Y-120231007D01*
X121610256Y-120229736D01*
X121624119Y-120225530D01*
X121641061Y-120216475D01*
X121655909Y-120204289D01*
X121668095Y-120189440D01*
X121677150Y-120172499D01*
X121682728Y-120154114D01*
X121684610Y-120135000D01*
X121682728Y-120115886D01*
X121677150Y-120097501D01*
X121668094Y-120080558D01*
X121655909Y-120065711D01*
X121641060Y-120053525D01*
X121624119Y-120044470D01*
X121610256Y-120040264D01*
X121608889Y-120038804D01*
X121609470Y-120036890D01*
X121611227Y-120036388D01*
X121656290Y-120045352D01*
X121763710Y-120045352D01*
X121808773Y-120036388D01*
X121810667Y-120037031D01*
G37*
G36*
X120540667Y-120037031D02*
G01*
X120541057Y-120038993D01*
X120539744Y-120040264D01*
X120525881Y-120044470D01*
X120508939Y-120053525D01*
X120494091Y-120065711D01*
X120481907Y-120080558D01*
X120472850Y-120097501D01*
X120467272Y-120115886D01*
X120465390Y-120135000D01*
X120467272Y-120154114D01*
X120472850Y-120172499D01*
X120481905Y-120189441D01*
X120494091Y-120204289D01*
X120508940Y-120216475D01*
X120525881Y-120225530D01*
X120539744Y-120229736D01*
X120541111Y-120231196D01*
X120540530Y-120233110D01*
X120538773Y-120233612D01*
X120493710Y-120224648D01*
X120386290Y-120224648D01*
X120341227Y-120233612D01*
X120339333Y-120232969D01*
X120338943Y-120231007D01*
X120340256Y-120229736D01*
X120354119Y-120225530D01*
X120371061Y-120216475D01*
X120385909Y-120204289D01*
X120398095Y-120189440D01*
X120407150Y-120172499D01*
X120412728Y-120154114D01*
X120414610Y-120135000D01*
X120412728Y-120115886D01*
X120407150Y-120097501D01*
X120398094Y-120080558D01*
X120385909Y-120065711D01*
X120371060Y-120053525D01*
X120354119Y-120044470D01*
X120340256Y-120040264D01*
X120338889Y-120038804D01*
X120339470Y-120036890D01*
X120341227Y-120036388D01*
X120386290Y-120045352D01*
X120493710Y-120045352D01*
X120538773Y-120036388D01*
X120540667Y-120037031D01*
G37*
G36*
X119270667Y-120037031D02*
G01*
X119271057Y-120038993D01*
X119269744Y-120040264D01*
X119255881Y-120044470D01*
X119238939Y-120053525D01*
X119224091Y-120065711D01*
X119211907Y-120080558D01*
X119202850Y-120097501D01*
X119197272Y-120115886D01*
X119195390Y-120135000D01*
X119197272Y-120154114D01*
X119202850Y-120172499D01*
X119211905Y-120189441D01*
X119224091Y-120204289D01*
X119238940Y-120216475D01*
X119255881Y-120225530D01*
X119269744Y-120229736D01*
X119271111Y-120231196D01*
X119270530Y-120233110D01*
X119268773Y-120233612D01*
X119223710Y-120224648D01*
X119116290Y-120224648D01*
X119071227Y-120233612D01*
X119069333Y-120232969D01*
X119068943Y-120231007D01*
X119070256Y-120229736D01*
X119084119Y-120225530D01*
X119101061Y-120216475D01*
X119115909Y-120204289D01*
X119128095Y-120189440D01*
X119137150Y-120172499D01*
X119142728Y-120154114D01*
X119144610Y-120135000D01*
X119142728Y-120115886D01*
X119137150Y-120097501D01*
X119128094Y-120080558D01*
X119115909Y-120065711D01*
X119101060Y-120053525D01*
X119084119Y-120044470D01*
X119070256Y-120040264D01*
X119068889Y-120038804D01*
X119069470Y-120036890D01*
X119071227Y-120036388D01*
X119116290Y-120045352D01*
X119223710Y-120045352D01*
X119268773Y-120036388D01*
X119270667Y-120037031D01*
G37*
G36*
X123080667Y-120037031D02*
G01*
X123081057Y-120038993D01*
X123079744Y-120040264D01*
X123065881Y-120044470D01*
X123048939Y-120053525D01*
X123034091Y-120065711D01*
X123021907Y-120080558D01*
X123012850Y-120097501D01*
X123007272Y-120115886D01*
X123005390Y-120135000D01*
X123007272Y-120154114D01*
X123012850Y-120172499D01*
X123021905Y-120189441D01*
X123034091Y-120204289D01*
X123048940Y-120216475D01*
X123065881Y-120225530D01*
X123079744Y-120229736D01*
X123081111Y-120231196D01*
X123080530Y-120233110D01*
X123078773Y-120233612D01*
X123033710Y-120224648D01*
X122926290Y-120224648D01*
X122881227Y-120233612D01*
X122879333Y-120232969D01*
X122878943Y-120231007D01*
X122880256Y-120229736D01*
X122894119Y-120225530D01*
X122911061Y-120216475D01*
X122925909Y-120204289D01*
X122938095Y-120189440D01*
X122947150Y-120172499D01*
X122952728Y-120154114D01*
X122954610Y-120135000D01*
X122952728Y-120115886D01*
X122947150Y-120097501D01*
X122938094Y-120080558D01*
X122925909Y-120065711D01*
X122911060Y-120053525D01*
X122894119Y-120044470D01*
X122880256Y-120040264D01*
X122878889Y-120038804D01*
X122879470Y-120036890D01*
X122881227Y-120036388D01*
X122926290Y-120045352D01*
X123033710Y-120045352D01*
X123078773Y-120036388D01*
X123080667Y-120037031D01*
G37*
G36*
X123701165Y-119304839D02*
G01*
X123702000Y-119306465D01*
X123702000Y-119693535D01*
X123701000Y-119695267D01*
X123699000Y-119695267D01*
X123698010Y-119693731D01*
X123696109Y-119674421D01*
X123690531Y-119656036D01*
X123681476Y-119639095D01*
X123669290Y-119624246D01*
X123654441Y-119612060D01*
X123637500Y-119603005D01*
X123619115Y-119597427D01*
X123600001Y-119595545D01*
X123580887Y-119597427D01*
X123562502Y-119603005D01*
X123545561Y-119612060D01*
X123530712Y-119624246D01*
X123518526Y-119639095D01*
X123509424Y-119656125D01*
X123508647Y-119658000D01*
X123507060Y-119659218D01*
X123505212Y-119658453D01*
X123504837Y-119656845D01*
X123525352Y-119553710D01*
X123525352Y-119446290D01*
X123504837Y-119343155D01*
X123505480Y-119341261D01*
X123507442Y-119340871D01*
X123508647Y-119342000D01*
X123509424Y-119343875D01*
X123518526Y-119360905D01*
X123530712Y-119375754D01*
X123545560Y-119387940D01*
X123562502Y-119396995D01*
X123580887Y-119402573D01*
X123600001Y-119404455D01*
X123619115Y-119402573D01*
X123637500Y-119396995D01*
X123654441Y-119387940D01*
X123669290Y-119375754D01*
X123681476Y-119360906D01*
X123690531Y-119343964D01*
X123696109Y-119325579D01*
X123698010Y-119306269D01*
X123699175Y-119304643D01*
X123701165Y-119304839D01*
G37*
G36*
X122443110Y-119399470D02*
G01*
X122443612Y-119401227D01*
X122434648Y-119446290D01*
X122434648Y-119553710D01*
X122443612Y-119598773D01*
X122442969Y-119600667D01*
X122441007Y-119601057D01*
X122439736Y-119599744D01*
X122435530Y-119585881D01*
X122426475Y-119568939D01*
X122414289Y-119554091D01*
X122399440Y-119541905D01*
X122382499Y-119532850D01*
X122364114Y-119527272D01*
X122345000Y-119525390D01*
X122325886Y-119527272D01*
X122307501Y-119532850D01*
X122290559Y-119541905D01*
X122275711Y-119554091D01*
X122263525Y-119568940D01*
X122254470Y-119585881D01*
X122250264Y-119599744D01*
X122248804Y-119601111D01*
X122246890Y-119600530D01*
X122246388Y-119598773D01*
X122255352Y-119553710D01*
X122255352Y-119446290D01*
X122246388Y-119401227D01*
X122247031Y-119399333D01*
X122248993Y-119398943D01*
X122250264Y-119400256D01*
X122254470Y-119414119D01*
X122263525Y-119431061D01*
X122275711Y-119445909D01*
X122290560Y-119458095D01*
X122307501Y-119467150D01*
X122325886Y-119472728D01*
X122345000Y-119474610D01*
X122364114Y-119472728D01*
X122382499Y-119467150D01*
X122399441Y-119458095D01*
X122414289Y-119445909D01*
X122426475Y-119431060D01*
X122435530Y-119414119D01*
X122439736Y-119400256D01*
X122441196Y-119398889D01*
X122443110Y-119399470D01*
G37*
G36*
X119903110Y-119399470D02*
G01*
X119903612Y-119401227D01*
X119894648Y-119446290D01*
X119894648Y-119553710D01*
X119903612Y-119598773D01*
X119902969Y-119600667D01*
X119901007Y-119601057D01*
X119899736Y-119599744D01*
X119895530Y-119585881D01*
X119886475Y-119568939D01*
X119874289Y-119554091D01*
X119859440Y-119541905D01*
X119842499Y-119532850D01*
X119824114Y-119527272D01*
X119805000Y-119525390D01*
X119785886Y-119527272D01*
X119767501Y-119532850D01*
X119750559Y-119541905D01*
X119735711Y-119554091D01*
X119723525Y-119568940D01*
X119714470Y-119585881D01*
X119710264Y-119599744D01*
X119708804Y-119601111D01*
X119706890Y-119600530D01*
X119706388Y-119598773D01*
X119715352Y-119553710D01*
X119715352Y-119446290D01*
X119706388Y-119401227D01*
X119707031Y-119399333D01*
X119708993Y-119398943D01*
X119710264Y-119400256D01*
X119714470Y-119414119D01*
X119723525Y-119431061D01*
X119735711Y-119445909D01*
X119750560Y-119458095D01*
X119767501Y-119467150D01*
X119785886Y-119472728D01*
X119805000Y-119474610D01*
X119824114Y-119472728D01*
X119842499Y-119467150D01*
X119859441Y-119458095D01*
X119874289Y-119445909D01*
X119886475Y-119431060D01*
X119895530Y-119414119D01*
X119899736Y-119400256D01*
X119901196Y-119398889D01*
X119903110Y-119399470D01*
G37*
G36*
X121173110Y-119399470D02*
G01*
X121173612Y-119401227D01*
X121164648Y-119446290D01*
X121164648Y-119553710D01*
X121173612Y-119598773D01*
X121172969Y-119600667D01*
X121171007Y-119601057D01*
X121169736Y-119599744D01*
X121165530Y-119585881D01*
X121156475Y-119568939D01*
X121144289Y-119554091D01*
X121129440Y-119541905D01*
X121112499Y-119532850D01*
X121094114Y-119527272D01*
X121075000Y-119525390D01*
X121055886Y-119527272D01*
X121037501Y-119532850D01*
X121020559Y-119541905D01*
X121005711Y-119554091D01*
X120993525Y-119568940D01*
X120984470Y-119585881D01*
X120980264Y-119599744D01*
X120978804Y-119601111D01*
X120976890Y-119600530D01*
X120976388Y-119598773D01*
X120985352Y-119553710D01*
X120985352Y-119446290D01*
X120976388Y-119401227D01*
X120977031Y-119399333D01*
X120978993Y-119398943D01*
X120980264Y-119400256D01*
X120984470Y-119414119D01*
X120993525Y-119431061D01*
X121005711Y-119445909D01*
X121020560Y-119458095D01*
X121037501Y-119467150D01*
X121055886Y-119472728D01*
X121075000Y-119474610D01*
X121094114Y-119472728D01*
X121112499Y-119467150D01*
X121129441Y-119458095D01*
X121144289Y-119445909D01*
X121156475Y-119431060D01*
X121165530Y-119414119D01*
X121169736Y-119400256D01*
X121171196Y-119398889D01*
X121173110Y-119399470D01*
G37*
M02*
