%TF.GenerationSoftware,KiCad,Pcbnew,(5.1.8)-1*%
%TF.CreationDate,2020-12-12T20:42:25+01:00*%
%TF.ProjectId,NRF24Stick,4e524632-3453-4746-9963-6b2e6b696361,rev?*%
%TF.SameCoordinates,Original*%
%TF.FileFunction,Legend,Top*%
%TF.FilePolarity,Positive*%
%FSLAX46Y46*%
G04 Gerber Fmt 4.6, Leading zero omitted, Abs format (unit mm)*
G04 Created by KiCad (PCBNEW (5.1.8)-1) date 2020-12-12 20:42:25*
%MOMM*%
%LPD*%
G01*
G04 APERTURE LIST*
%ADD10C,0.150000*%
%ADD11C,0.100000*%
%ADD12C,0.120000*%
%ADD13C,0.010000*%
G04 APERTURE END LIST*
D10*
X118571428Y-123785714D02*
X118571428Y-124452380D01*
X118571428Y-123880952D02*
X118619047Y-123833333D01*
X118714285Y-123785714D01*
X118857142Y-123785714D01*
X118952380Y-123833333D01*
X119000000Y-123928571D01*
X119000000Y-124452380D01*
X120047619Y-124452380D02*
X119714285Y-123976190D01*
X119476190Y-124452380D02*
X119476190Y-123452380D01*
X119857142Y-123452380D01*
X119952380Y-123500000D01*
X120000000Y-123547619D01*
X120047619Y-123642857D01*
X120047619Y-123785714D01*
X120000000Y-123880952D01*
X119952380Y-123928571D01*
X119857142Y-123976190D01*
X119476190Y-123976190D01*
X120809523Y-123928571D02*
X120476190Y-123928571D01*
X120476190Y-124452380D02*
X120476190Y-123452380D01*
X120952380Y-123452380D01*
X121285714Y-123547619D02*
X121333333Y-123500000D01*
X121428571Y-123452380D01*
X121666666Y-123452380D01*
X121761904Y-123500000D01*
X121809523Y-123547619D01*
X121857142Y-123642857D01*
X121857142Y-123738095D01*
X121809523Y-123880952D01*
X121238095Y-124452380D01*
X121857142Y-124452380D01*
X122714285Y-123785714D02*
X122714285Y-124452380D01*
X122476190Y-123404761D02*
X122238095Y-124119047D01*
X122857142Y-124119047D01*
X123190476Y-124404761D02*
X123333333Y-124452380D01*
X123571428Y-124452380D01*
X123666666Y-124404761D01*
X123714285Y-124357142D01*
X123761904Y-124261904D01*
X123761904Y-124166666D01*
X123714285Y-124071428D01*
X123666666Y-124023809D01*
X123571428Y-123976190D01*
X123380952Y-123928571D01*
X123285714Y-123880952D01*
X123238095Y-123833333D01*
X123190476Y-123738095D01*
X123190476Y-123642857D01*
X123238095Y-123547619D01*
X123285714Y-123500000D01*
X123380952Y-123452380D01*
X123619047Y-123452380D01*
X123761904Y-123500000D01*
X124047619Y-123785714D02*
X124428571Y-123785714D01*
X124190476Y-123452380D02*
X124190476Y-124309523D01*
X124238095Y-124404761D01*
X124333333Y-124452380D01*
X124428571Y-124452380D01*
X124761904Y-124452380D02*
X124761904Y-123785714D01*
X124761904Y-123452380D02*
X124714285Y-123500000D01*
X124761904Y-123547619D01*
X124809523Y-123500000D01*
X124761904Y-123452380D01*
X124761904Y-123547619D01*
X125666666Y-124404761D02*
X125571428Y-124452380D01*
X125380952Y-124452380D01*
X125285714Y-124404761D01*
X125238095Y-124357142D01*
X125190476Y-124261904D01*
X125190476Y-123976190D01*
X125238095Y-123880952D01*
X125285714Y-123833333D01*
X125380952Y-123785714D01*
X125571428Y-123785714D01*
X125666666Y-123833333D01*
X126095238Y-124452380D02*
X126095238Y-123452380D01*
X126190476Y-124071428D02*
X126476190Y-124452380D01*
X126476190Y-123785714D02*
X126095238Y-124166666D01*
X127666666Y-124071428D02*
X128428571Y-124071428D01*
X130190476Y-124452380D02*
X129619047Y-124452380D01*
X129904761Y-124452380D02*
X129904761Y-123452380D01*
X129809523Y-123595238D01*
X129714285Y-123690476D01*
X129619047Y-123738095D01*
X130571428Y-123547619D02*
X130619047Y-123500000D01*
X130714285Y-123452380D01*
X130952380Y-123452380D01*
X131047619Y-123500000D01*
X131095238Y-123547619D01*
X131142857Y-123642857D01*
X131142857Y-123738095D01*
X131095238Y-123880952D01*
X130523809Y-124452380D01*
X131142857Y-124452380D01*
X132285714Y-123404761D02*
X131428571Y-124690476D01*
X132571428Y-123547619D02*
X132619047Y-123500000D01*
X132714285Y-123452380D01*
X132952380Y-123452380D01*
X133047619Y-123500000D01*
X133095238Y-123547619D01*
X133142857Y-123642857D01*
X133142857Y-123738095D01*
X133095238Y-123880952D01*
X132523809Y-124452380D01*
X133142857Y-124452380D01*
X133761904Y-123452380D02*
X133857142Y-123452380D01*
X133952380Y-123500000D01*
X133999999Y-123547619D01*
X134047619Y-123642857D01*
X134095238Y-123833333D01*
X134095238Y-124071428D01*
X134047619Y-124261904D01*
X133999999Y-124357142D01*
X133952380Y-124404761D01*
X133857142Y-124452380D01*
X133761904Y-124452380D01*
X133666666Y-124404761D01*
X133619047Y-124357142D01*
X133571428Y-124261904D01*
X133523809Y-124071428D01*
X133523809Y-123833333D01*
X133571428Y-123642857D01*
X133619047Y-123547619D01*
X133666666Y-123500000D01*
X133761904Y-123452380D01*
X134476190Y-123547619D02*
X134523809Y-123500000D01*
X134619047Y-123452380D01*
X134857142Y-123452380D01*
X134952380Y-123500000D01*
X135000000Y-123547619D01*
X135047619Y-123642857D01*
X135047619Y-123738095D01*
X135000000Y-123880952D01*
X134428571Y-124452380D01*
X135047619Y-124452380D01*
X135666666Y-123452380D02*
X135761904Y-123452380D01*
X135857142Y-123500000D01*
X135904761Y-123547619D01*
X135952380Y-123642857D01*
X136000000Y-123833333D01*
X136000000Y-124071428D01*
X135952380Y-124261904D01*
X135904761Y-124357142D01*
X135857142Y-124404761D01*
X135761904Y-124452380D01*
X135666666Y-124452380D01*
X135571428Y-124404761D01*
X135523809Y-124357142D01*
X135476190Y-124261904D01*
X135428571Y-124071428D01*
X135428571Y-123833333D01*
X135476190Y-123642857D01*
X135523809Y-123547619D01*
X135571428Y-123500000D01*
X135666666Y-123452380D01*
X137761904Y-124452380D02*
X137428571Y-123976190D01*
X137190476Y-124452380D02*
X137190476Y-123452380D01*
X137571428Y-123452380D01*
X137666666Y-123500000D01*
X137714285Y-123547619D01*
X137761904Y-123642857D01*
X137761904Y-123785714D01*
X137714285Y-123880952D01*
X137666666Y-123928571D01*
X137571428Y-123976190D01*
X137190476Y-123976190D01*
X138571428Y-124404761D02*
X138476190Y-124452380D01*
X138285714Y-124452380D01*
X138190476Y-124404761D01*
X138142857Y-124309523D01*
X138142857Y-123928571D01*
X138190476Y-123833333D01*
X138285714Y-123785714D01*
X138476190Y-123785714D01*
X138571428Y-123833333D01*
X138619047Y-123928571D01*
X138619047Y-124023809D01*
X138142857Y-124119047D01*
X138952380Y-123785714D02*
X139190476Y-124452380D01*
X139428571Y-123785714D01*
X139809523Y-124357142D02*
X139857142Y-124404761D01*
X139809523Y-124452380D01*
X139761904Y-124404761D01*
X139809523Y-124357142D01*
X139809523Y-124452380D01*
X141000000Y-124166666D02*
X141476190Y-124166666D01*
X140904761Y-124452380D02*
X141238095Y-123452380D01*
X141571428Y-124452380D01*
X143591678Y-106648895D02*
X144157364Y-106083210D01*
X143941865Y-106675832D01*
X144534487Y-106460333D01*
X143968802Y-107026019D01*
X144480613Y-107537829D02*
X144776924Y-107241518D01*
X144803861Y-107160706D01*
X144776924Y-107079893D01*
X144669174Y-106972144D01*
X144588362Y-106945206D01*
X144507550Y-107510892D02*
X144426738Y-107483954D01*
X144292051Y-107349267D01*
X144265113Y-107268455D01*
X144292051Y-107187643D01*
X144345926Y-107133768D01*
X144426738Y-107106831D01*
X144507550Y-107133768D01*
X144642237Y-107268455D01*
X144723049Y-107295393D01*
X144992423Y-108049640D02*
X145558109Y-107483954D01*
X145019361Y-108022703D02*
X144938548Y-107995765D01*
X144830799Y-107888015D01*
X144803861Y-107807203D01*
X144803861Y-107753328D01*
X144830799Y-107672516D01*
X144992423Y-107510892D01*
X145073235Y-107483954D01*
X145127110Y-107483954D01*
X145207922Y-107510892D01*
X145315672Y-107618641D01*
X145342609Y-107699454D01*
X145504234Y-108507576D02*
X145423422Y-108480638D01*
X145315672Y-108372889D01*
X145288735Y-108292077D01*
X145315672Y-108211264D01*
X145531171Y-107995765D01*
X145611984Y-107968828D01*
X145692796Y-107995765D01*
X145800545Y-108103515D01*
X145827483Y-108184327D01*
X145800545Y-108265139D01*
X145746671Y-108319014D01*
X145423422Y-108103515D01*
X146177669Y-109234886D02*
X146743354Y-108669200D01*
X146527855Y-108884699D02*
X146608667Y-108911637D01*
X146716417Y-109019386D01*
X146743354Y-109100199D01*
X146743354Y-109154073D01*
X146716417Y-109234886D01*
X146554793Y-109396510D01*
X146473980Y-109423447D01*
X146420106Y-109423447D01*
X146339293Y-109396510D01*
X146231544Y-109288760D01*
X146204606Y-109207948D01*
X147012728Y-109315698D02*
X146770292Y-109827508D01*
X147282102Y-109585072D02*
X146770292Y-109827508D01*
X146581730Y-109908321D01*
X146527855Y-109908321D01*
X146447043Y-109881383D01*
X142300367Y-107266772D02*
X142030993Y-106997398D01*
X142596678Y-106431712D01*
X142731365Y-107643895D02*
X142650553Y-107616958D01*
X142542804Y-107509208D01*
X142515866Y-107428396D01*
X142542804Y-107347584D01*
X142758303Y-107132085D01*
X142839115Y-107105147D01*
X142919927Y-107132085D01*
X143027677Y-107239834D01*
X143054614Y-107320646D01*
X143027677Y-107401459D01*
X142973802Y-107455333D01*
X142650553Y-107239834D01*
X142973802Y-107940207D02*
X143350926Y-107563083D01*
X143297051Y-107616958D02*
X143350926Y-107616958D01*
X143431738Y-107643895D01*
X143512550Y-107724707D01*
X143539487Y-107805520D01*
X143512550Y-107886332D01*
X143216239Y-108182643D01*
X143512550Y-107886332D02*
X143593362Y-107859394D01*
X143674174Y-107886332D01*
X143754987Y-107967144D01*
X143781924Y-108047956D01*
X143754987Y-108128768D01*
X143458675Y-108425080D01*
X143808861Y-108775266D02*
X143781924Y-108694454D01*
X143781924Y-108640579D01*
X143808861Y-108559767D01*
X143970486Y-108398142D01*
X144051298Y-108371205D01*
X144105173Y-108371205D01*
X144185985Y-108398142D01*
X144266797Y-108478955D01*
X144293735Y-108559767D01*
X144293735Y-108613642D01*
X144266797Y-108694454D01*
X144105173Y-108856078D01*
X144024361Y-108883016D01*
X143970486Y-108883016D01*
X143889674Y-108856078D01*
X143808861Y-108775266D01*
X144616983Y-108829141D02*
X144239860Y-109206264D01*
X144563109Y-108883016D02*
X144616983Y-108883016D01*
X144697796Y-108909953D01*
X144778608Y-108990765D01*
X144805545Y-109071577D01*
X144778608Y-109152390D01*
X144482296Y-109448701D01*
X144751670Y-109718075D02*
X145317356Y-109152390D01*
X144994107Y-109960512D02*
X145290418Y-109664200D01*
X145317356Y-109583388D01*
X145290418Y-109502576D01*
X145209606Y-109421764D01*
X145128794Y-109394826D01*
X145074919Y-109394826D01*
X145505918Y-110418447D02*
X145425105Y-110391510D01*
X145317356Y-110283760D01*
X145290418Y-110202948D01*
X145317356Y-110122136D01*
X145532855Y-109906637D01*
X145613667Y-109879699D01*
X145694479Y-109906637D01*
X145802229Y-110014386D01*
X145829166Y-110095199D01*
X145802229Y-110176011D01*
X145748354Y-110229886D01*
X145425105Y-110014386D01*
X145990791Y-110957195D02*
X146287102Y-110660884D01*
X146314040Y-110580072D01*
X146287102Y-110499260D01*
X146179353Y-110391510D01*
X146098540Y-110364573D01*
X146017728Y-110930258D02*
X145936916Y-110903321D01*
X145802229Y-110768634D01*
X145775292Y-110687821D01*
X145802229Y-110607009D01*
X145856104Y-110553134D01*
X145936916Y-110526197D01*
X146017728Y-110553134D01*
X146152415Y-110687821D01*
X146233227Y-110714759D01*
X146502601Y-111469006D02*
X147068287Y-110903321D01*
X146529539Y-111442069D02*
X146448727Y-111415131D01*
X146340977Y-111307382D01*
X146314040Y-111226569D01*
X146314040Y-111172695D01*
X146340977Y-111091882D01*
X146502601Y-110930258D01*
X146583414Y-110903321D01*
X146637288Y-110903321D01*
X146718101Y-110930258D01*
X146825850Y-111038008D01*
X146852788Y-111118820D01*
X125414285Y-121823809D02*
X125528571Y-121861904D01*
X125719047Y-121861904D01*
X125795238Y-121823809D01*
X125833333Y-121785714D01*
X125871428Y-121709523D01*
X125871428Y-121633333D01*
X125833333Y-121557142D01*
X125795238Y-121519047D01*
X125719047Y-121480952D01*
X125566666Y-121442857D01*
X125490476Y-121404761D01*
X125452380Y-121366666D01*
X125414285Y-121290476D01*
X125414285Y-121214285D01*
X125452380Y-121138095D01*
X125490476Y-121100000D01*
X125566666Y-121061904D01*
X125757142Y-121061904D01*
X125871428Y-121100000D01*
X126138095Y-121061904D02*
X126328571Y-121861904D01*
X126480952Y-121290476D01*
X126633333Y-121861904D01*
X126823809Y-121061904D01*
X127128571Y-121861904D02*
X127128571Y-121061904D01*
X127319047Y-121061904D01*
X127433333Y-121100000D01*
X127509523Y-121176190D01*
X127547619Y-121252380D01*
X127585714Y-121404761D01*
X127585714Y-121519047D01*
X127547619Y-121671428D01*
X127509523Y-121747619D01*
X127433333Y-121823809D01*
X127319047Y-121861904D01*
X127128571Y-121861904D01*
D11*
G36*
X124500000Y-117500000D02*
G01*
X124750000Y-117500000D01*
X124250000Y-118000000D01*
X123750000Y-117500000D01*
X124000000Y-117500000D01*
X124000000Y-117250000D01*
X124500000Y-117250000D01*
X124500000Y-117500000D01*
G37*
X124500000Y-117500000D02*
X124750000Y-117500000D01*
X124250000Y-118000000D01*
X123750000Y-117500000D01*
X124000000Y-117500000D01*
X124000000Y-117250000D01*
X124500000Y-117250000D01*
X124500000Y-117500000D01*
D12*
X128550000Y-112250000D02*
X128750000Y-112250000D01*
X128650000Y-112150000D02*
X128650000Y-112350000D01*
X127000000Y-112250000D02*
X127200000Y-112250000D01*
X127100000Y-112150000D02*
X127100000Y-112350000D01*
D10*
X137220711Y-122350000D02*
G75*
G03*
X137220711Y-122350000I-70711J0D01*
G01*
X123270711Y-116950000D02*
G75*
G03*
X123270711Y-116950000I-70711J0D01*
G01*
X134420711Y-114100000D02*
G75*
G03*
X134420711Y-114100000I-70711J0D01*
G01*
X131720711Y-112400000D02*
G75*
G03*
X131720711Y-112400000I-70711J0D01*
G01*
D13*
%TO.C,G\u002A\u002A\u002A*%
G36*
X142808103Y-109846119D02*
G01*
X142940042Y-109902556D01*
X143091514Y-109925199D01*
X143256929Y-109968532D01*
X143454871Y-110089688D01*
X143672855Y-110275407D01*
X143898394Y-110512429D01*
X144119001Y-110787493D01*
X144322192Y-111087339D01*
X144495479Y-111398706D01*
X144513054Y-111434920D01*
X144605515Y-111636971D01*
X144661589Y-111794166D01*
X144690220Y-111947012D01*
X144700349Y-112136011D01*
X144701262Y-112287400D01*
X144691582Y-112539371D01*
X144656791Y-112754599D01*
X144587289Y-112949594D01*
X144473475Y-113140864D01*
X144305749Y-113344918D01*
X144074511Y-113578265D01*
X143807970Y-113823548D01*
X143555022Y-114046417D01*
X143360190Y-114203235D01*
X143208905Y-114298935D01*
X143086596Y-114338453D01*
X142978693Y-114326724D01*
X142870626Y-114268684D01*
X142758846Y-114178899D01*
X142625180Y-114071211D01*
X142441012Y-113933839D01*
X142375599Y-113887600D01*
X143584200Y-113887600D01*
X143586522Y-113934486D01*
X143603603Y-113938400D01*
X143675418Y-113901328D01*
X143685800Y-113887600D01*
X143683477Y-113840713D01*
X143666396Y-113836800D01*
X143594581Y-113873871D01*
X143584200Y-113887600D01*
X142375599Y-113887600D01*
X142241025Y-113792474D01*
X142193036Y-113759799D01*
X142086590Y-113682805D01*
X143508000Y-113682805D01*
X143545236Y-113710756D01*
X143584200Y-113702770D01*
X143651040Y-113666713D01*
X143660400Y-113653564D01*
X143618917Y-113635806D01*
X143584200Y-113633600D01*
X143812800Y-113633600D01*
X143831386Y-113675414D01*
X143846666Y-113667466D01*
X143852746Y-113607178D01*
X143846666Y-113599733D01*
X143816466Y-113606706D01*
X143812800Y-113633600D01*
X143584200Y-113633600D01*
X143516584Y-113660185D01*
X143508000Y-113682805D01*
X142086590Y-113682805D01*
X141941652Y-113577970D01*
X141808290Y-113455800D01*
X144016000Y-113455800D01*
X144041400Y-113481200D01*
X144066800Y-113455800D01*
X144041400Y-113430400D01*
X144016000Y-113455800D01*
X141808290Y-113455800D01*
X141758103Y-113409826D01*
X141747892Y-113396533D01*
X143728133Y-113396533D01*
X143735106Y-113426733D01*
X143762000Y-113430400D01*
X143803814Y-113411813D01*
X143795866Y-113396533D01*
X143735578Y-113390453D01*
X143728133Y-113396533D01*
X141747892Y-113396533D01*
X141622413Y-113233196D01*
X143965200Y-113233196D01*
X143996499Y-113260738D01*
X144016000Y-113252600D01*
X144064903Y-113185304D01*
X144066800Y-113170403D01*
X144035500Y-113142861D01*
X144016000Y-113151000D01*
X143967096Y-113218295D01*
X143965200Y-113233196D01*
X141622413Y-113233196D01*
X141617704Y-113227067D01*
X141495773Y-113001395D01*
X141456648Y-112915548D01*
X141336399Y-112583157D01*
X141290963Y-112282309D01*
X141316748Y-111979929D01*
X141342640Y-111864855D01*
X141379403Y-111730832D01*
X142192085Y-111730832D01*
X142192386Y-111737960D01*
X142207906Y-111759463D01*
X142240374Y-111694894D01*
X142250534Y-111665100D01*
X142301900Y-111537782D01*
X142341085Y-111509047D01*
X142366477Y-111576431D01*
X142376464Y-111737468D01*
X142375087Y-111855581D01*
X142360554Y-112052980D01*
X142332834Y-112165874D01*
X142295493Y-112189301D01*
X142252094Y-112118300D01*
X142231764Y-112055033D01*
X142206337Y-111976647D01*
X142195234Y-111992927D01*
X142192263Y-112035940D01*
X142226399Y-112169181D01*
X142326485Y-112244856D01*
X142415206Y-112251246D01*
X142474928Y-112227676D01*
X142509152Y-112162297D01*
X142527301Y-112030593D01*
X142532595Y-111945823D01*
X142530290Y-111851548D01*
X142849686Y-111851548D01*
X142869067Y-111939517D01*
X142896805Y-111957200D01*
X142925156Y-111920127D01*
X142917574Y-111883095D01*
X142914160Y-111797528D01*
X142937414Y-111673415D01*
X142976185Y-111549629D01*
X143019320Y-111465044D01*
X143042039Y-111449265D01*
X143058370Y-111495951D01*
X143070449Y-111619381D01*
X143076051Y-111794722D01*
X143076200Y-111830270D01*
X143072120Y-112046593D01*
X143058033Y-112167956D01*
X143031166Y-112200743D01*
X142988747Y-112151338D01*
X142960401Y-112096900D01*
X142919361Y-112028031D01*
X142902940Y-112051269D01*
X142901838Y-112067871D01*
X142929474Y-112157508D01*
X142995993Y-112253171D01*
X143068144Y-112309945D01*
X143083168Y-112312800D01*
X143142911Y-112291592D01*
X143206539Y-112260212D01*
X143270252Y-112199916D01*
X143299577Y-112089656D01*
X143304800Y-111962993D01*
X143286833Y-111721796D01*
X143238711Y-111536735D01*
X143169105Y-111416305D01*
X143086683Y-111369003D01*
X143000115Y-111403323D01*
X142918070Y-111527762D01*
X142901578Y-111567840D01*
X142860650Y-111717304D01*
X142849686Y-111851548D01*
X142530290Y-111851548D01*
X142526765Y-111707424D01*
X142483322Y-111541070D01*
X142405809Y-111457263D01*
X142364999Y-111449200D01*
X142281988Y-111493446D01*
X142216606Y-111600277D01*
X142192085Y-111730832D01*
X141379403Y-111730832D01*
X141409089Y-111622613D01*
X141477781Y-111426279D01*
X141561737Y-111255626D01*
X141673977Y-111090431D01*
X141827521Y-110910468D01*
X142035388Y-110695512D01*
X142166565Y-110566099D01*
X143576061Y-110566099D01*
X143584200Y-110585600D01*
X143651495Y-110634503D01*
X143666396Y-110636400D01*
X143692961Y-110606210D01*
X143777069Y-110606210D01*
X143812800Y-110636400D01*
X143893857Y-110682089D01*
X143904657Y-110664881D01*
X143889000Y-110636400D01*
X143814810Y-110588100D01*
X143797101Y-110586377D01*
X143777069Y-110606210D01*
X143692961Y-110606210D01*
X143693938Y-110605100D01*
X143685800Y-110585600D01*
X143618504Y-110536696D01*
X143603603Y-110534800D01*
X143576061Y-110566099D01*
X142166565Y-110566099D01*
X142199900Y-110533213D01*
X142410648Y-110322762D01*
X142421149Y-110311389D01*
X143276875Y-110311389D01*
X143304800Y-110357000D01*
X143381291Y-110421033D01*
X143418840Y-110433200D01*
X143434324Y-110402610D01*
X143406400Y-110357000D01*
X143344453Y-110305142D01*
X143485875Y-110305142D01*
X143503124Y-110354813D01*
X143520963Y-110384279D01*
X143580256Y-110469064D01*
X143605411Y-110467957D01*
X143609600Y-110413235D01*
X143568655Y-110334643D01*
X143534143Y-110313514D01*
X143485875Y-110305142D01*
X143344453Y-110305142D01*
X143329908Y-110292966D01*
X143292359Y-110280800D01*
X143276875Y-110311389D01*
X142421149Y-110311389D01*
X142555191Y-110166221D01*
X142582481Y-110130618D01*
X143227228Y-110130618D01*
X143243951Y-110168898D01*
X143301801Y-110179200D01*
X143386104Y-110171018D01*
X143406400Y-110159235D01*
X143366323Y-110120787D01*
X143286523Y-110107803D01*
X143227643Y-110129967D01*
X143227228Y-110130618D01*
X142582481Y-110130618D01*
X142643802Y-110050619D01*
X142686760Y-109962984D01*
X142695200Y-109908033D01*
X142701384Y-109811350D01*
X142738030Y-109801330D01*
X142808103Y-109846119D01*
G37*
X142808103Y-109846119D02*
X142940042Y-109902556D01*
X143091514Y-109925199D01*
X143256929Y-109968532D01*
X143454871Y-110089688D01*
X143672855Y-110275407D01*
X143898394Y-110512429D01*
X144119001Y-110787493D01*
X144322192Y-111087339D01*
X144495479Y-111398706D01*
X144513054Y-111434920D01*
X144605515Y-111636971D01*
X144661589Y-111794166D01*
X144690220Y-111947012D01*
X144700349Y-112136011D01*
X144701262Y-112287400D01*
X144691582Y-112539371D01*
X144656791Y-112754599D01*
X144587289Y-112949594D01*
X144473475Y-113140864D01*
X144305749Y-113344918D01*
X144074511Y-113578265D01*
X143807970Y-113823548D01*
X143555022Y-114046417D01*
X143360190Y-114203235D01*
X143208905Y-114298935D01*
X143086596Y-114338453D01*
X142978693Y-114326724D01*
X142870626Y-114268684D01*
X142758846Y-114178899D01*
X142625180Y-114071211D01*
X142441012Y-113933839D01*
X142375599Y-113887600D01*
X143584200Y-113887600D01*
X143586522Y-113934486D01*
X143603603Y-113938400D01*
X143675418Y-113901328D01*
X143685800Y-113887600D01*
X143683477Y-113840713D01*
X143666396Y-113836800D01*
X143594581Y-113873871D01*
X143584200Y-113887600D01*
X142375599Y-113887600D01*
X142241025Y-113792474D01*
X142193036Y-113759799D01*
X142086590Y-113682805D01*
X143508000Y-113682805D01*
X143545236Y-113710756D01*
X143584200Y-113702770D01*
X143651040Y-113666713D01*
X143660400Y-113653564D01*
X143618917Y-113635806D01*
X143584200Y-113633600D01*
X143812800Y-113633600D01*
X143831386Y-113675414D01*
X143846666Y-113667466D01*
X143852746Y-113607178D01*
X143846666Y-113599733D01*
X143816466Y-113606706D01*
X143812800Y-113633600D01*
X143584200Y-113633600D01*
X143516584Y-113660185D01*
X143508000Y-113682805D01*
X142086590Y-113682805D01*
X141941652Y-113577970D01*
X141808290Y-113455800D01*
X144016000Y-113455800D01*
X144041400Y-113481200D01*
X144066800Y-113455800D01*
X144041400Y-113430400D01*
X144016000Y-113455800D01*
X141808290Y-113455800D01*
X141758103Y-113409826D01*
X141747892Y-113396533D01*
X143728133Y-113396533D01*
X143735106Y-113426733D01*
X143762000Y-113430400D01*
X143803814Y-113411813D01*
X143795866Y-113396533D01*
X143735578Y-113390453D01*
X143728133Y-113396533D01*
X141747892Y-113396533D01*
X141622413Y-113233196D01*
X143965200Y-113233196D01*
X143996499Y-113260738D01*
X144016000Y-113252600D01*
X144064903Y-113185304D01*
X144066800Y-113170403D01*
X144035500Y-113142861D01*
X144016000Y-113151000D01*
X143967096Y-113218295D01*
X143965200Y-113233196D01*
X141622413Y-113233196D01*
X141617704Y-113227067D01*
X141495773Y-113001395D01*
X141456648Y-112915548D01*
X141336399Y-112583157D01*
X141290963Y-112282309D01*
X141316748Y-111979929D01*
X141342640Y-111864855D01*
X141379403Y-111730832D01*
X142192085Y-111730832D01*
X142192386Y-111737960D01*
X142207906Y-111759463D01*
X142240374Y-111694894D01*
X142250534Y-111665100D01*
X142301900Y-111537782D01*
X142341085Y-111509047D01*
X142366477Y-111576431D01*
X142376464Y-111737468D01*
X142375087Y-111855581D01*
X142360554Y-112052980D01*
X142332834Y-112165874D01*
X142295493Y-112189301D01*
X142252094Y-112118300D01*
X142231764Y-112055033D01*
X142206337Y-111976647D01*
X142195234Y-111992927D01*
X142192263Y-112035940D01*
X142226399Y-112169181D01*
X142326485Y-112244856D01*
X142415206Y-112251246D01*
X142474928Y-112227676D01*
X142509152Y-112162297D01*
X142527301Y-112030593D01*
X142532595Y-111945823D01*
X142530290Y-111851548D01*
X142849686Y-111851548D01*
X142869067Y-111939517D01*
X142896805Y-111957200D01*
X142925156Y-111920127D01*
X142917574Y-111883095D01*
X142914160Y-111797528D01*
X142937414Y-111673415D01*
X142976185Y-111549629D01*
X143019320Y-111465044D01*
X143042039Y-111449265D01*
X143058370Y-111495951D01*
X143070449Y-111619381D01*
X143076051Y-111794722D01*
X143076200Y-111830270D01*
X143072120Y-112046593D01*
X143058033Y-112167956D01*
X143031166Y-112200743D01*
X142988747Y-112151338D01*
X142960401Y-112096900D01*
X142919361Y-112028031D01*
X142902940Y-112051269D01*
X142901838Y-112067871D01*
X142929474Y-112157508D01*
X142995993Y-112253171D01*
X143068144Y-112309945D01*
X143083168Y-112312800D01*
X143142911Y-112291592D01*
X143206539Y-112260212D01*
X143270252Y-112199916D01*
X143299577Y-112089656D01*
X143304800Y-111962993D01*
X143286833Y-111721796D01*
X143238711Y-111536735D01*
X143169105Y-111416305D01*
X143086683Y-111369003D01*
X143000115Y-111403323D01*
X142918070Y-111527762D01*
X142901578Y-111567840D01*
X142860650Y-111717304D01*
X142849686Y-111851548D01*
X142530290Y-111851548D01*
X142526765Y-111707424D01*
X142483322Y-111541070D01*
X142405809Y-111457263D01*
X142364999Y-111449200D01*
X142281988Y-111493446D01*
X142216606Y-111600277D01*
X142192085Y-111730832D01*
X141379403Y-111730832D01*
X141409089Y-111622613D01*
X141477781Y-111426279D01*
X141561737Y-111255626D01*
X141673977Y-111090431D01*
X141827521Y-110910468D01*
X142035388Y-110695512D01*
X142166565Y-110566099D01*
X143576061Y-110566099D01*
X143584200Y-110585600D01*
X143651495Y-110634503D01*
X143666396Y-110636400D01*
X143692961Y-110606210D01*
X143777069Y-110606210D01*
X143812800Y-110636400D01*
X143893857Y-110682089D01*
X143904657Y-110664881D01*
X143889000Y-110636400D01*
X143814810Y-110588100D01*
X143797101Y-110586377D01*
X143777069Y-110606210D01*
X143692961Y-110606210D01*
X143693938Y-110605100D01*
X143685800Y-110585600D01*
X143618504Y-110536696D01*
X143603603Y-110534800D01*
X143576061Y-110566099D01*
X142166565Y-110566099D01*
X142199900Y-110533213D01*
X142410648Y-110322762D01*
X142421149Y-110311389D01*
X143276875Y-110311389D01*
X143304800Y-110357000D01*
X143381291Y-110421033D01*
X143418840Y-110433200D01*
X143434324Y-110402610D01*
X143406400Y-110357000D01*
X143344453Y-110305142D01*
X143485875Y-110305142D01*
X143503124Y-110354813D01*
X143520963Y-110384279D01*
X143580256Y-110469064D01*
X143605411Y-110467957D01*
X143609600Y-110413235D01*
X143568655Y-110334643D01*
X143534143Y-110313514D01*
X143485875Y-110305142D01*
X143344453Y-110305142D01*
X143329908Y-110292966D01*
X143292359Y-110280800D01*
X143276875Y-110311389D01*
X142421149Y-110311389D01*
X142555191Y-110166221D01*
X142582481Y-110130618D01*
X143227228Y-110130618D01*
X143243951Y-110168898D01*
X143301801Y-110179200D01*
X143386104Y-110171018D01*
X143406400Y-110159235D01*
X143366323Y-110120787D01*
X143286523Y-110107803D01*
X143227643Y-110129967D01*
X143227228Y-110130618D01*
X142582481Y-110130618D01*
X142643802Y-110050619D01*
X142686760Y-109962984D01*
X142695200Y-109908033D01*
X142701384Y-109811350D01*
X142738030Y-109801330D01*
X142808103Y-109846119D01*
G36*
X142465694Y-109579782D02*
G01*
X142465318Y-109590397D01*
X142370622Y-109614867D01*
X142353572Y-109618923D01*
X142219318Y-109663911D01*
X142088661Y-109727697D01*
X141988864Y-109794009D01*
X141947190Y-109846574D01*
X141951540Y-109858874D01*
X142008653Y-109854268D01*
X142124759Y-109812649D01*
X142208756Y-109774660D01*
X142388921Y-109699255D01*
X142504146Y-109673757D01*
X142546788Y-109694133D01*
X142509206Y-109756352D01*
X142383759Y-109856382D01*
X142374962Y-109862358D01*
X142159889Y-109981131D01*
X141966918Y-110025733D01*
X141930653Y-110026800D01*
X141804326Y-110017382D01*
X141734719Y-109993891D01*
X141730000Y-109984855D01*
X141773018Y-109900853D01*
X141883179Y-109800134D01*
X142032137Y-109700689D01*
X142191547Y-109620515D01*
X142333066Y-109577605D01*
X142375912Y-109574799D01*
X142465694Y-109579782D01*
G37*
X142465694Y-109579782D02*
X142465318Y-109590397D01*
X142370622Y-109614867D01*
X142353572Y-109618923D01*
X142219318Y-109663911D01*
X142088661Y-109727697D01*
X141988864Y-109794009D01*
X141947190Y-109846574D01*
X141951540Y-109858874D01*
X142008653Y-109854268D01*
X142124759Y-109812649D01*
X142208756Y-109774660D01*
X142388921Y-109699255D01*
X142504146Y-109673757D01*
X142546788Y-109694133D01*
X142509206Y-109756352D01*
X142383759Y-109856382D01*
X142374962Y-109862358D01*
X142159889Y-109981131D01*
X141966918Y-110025733D01*
X141930653Y-110026800D01*
X141804326Y-110017382D01*
X141734719Y-109993891D01*
X141730000Y-109984855D01*
X141773018Y-109900853D01*
X141883179Y-109800134D01*
X142032137Y-109700689D01*
X142191547Y-109620515D01*
X142333066Y-109577605D01*
X142375912Y-109574799D01*
X142465694Y-109579782D01*
G36*
X143582826Y-109527688D02*
G01*
X143686630Y-109592278D01*
X143696680Y-109600257D01*
X143838200Y-109713833D01*
X143700488Y-109766703D01*
X143521438Y-109814715D01*
X143306427Y-109843935D01*
X143100069Y-109850527D01*
X142949200Y-109831326D01*
X142866060Y-109800682D01*
X142874124Y-109775604D01*
X142915254Y-109757761D01*
X143042987Y-109728441D01*
X143128156Y-109722000D01*
X143236045Y-109699826D01*
X143283745Y-109664168D01*
X143279234Y-109637333D01*
X143372533Y-109637333D01*
X143379506Y-109667533D01*
X143406400Y-109671200D01*
X143448214Y-109652613D01*
X143440266Y-109637333D01*
X143379978Y-109631253D01*
X143372533Y-109637333D01*
X143279234Y-109637333D01*
X143278136Y-109630804D01*
X143191459Y-109631434D01*
X143121643Y-109642721D01*
X143000611Y-109660138D01*
X142963485Y-109648755D01*
X142986092Y-109615400D01*
X143070572Y-109572007D01*
X143215262Y-109533378D01*
X143301772Y-109519188D01*
X143469337Y-109506362D01*
X143582826Y-109527688D01*
G37*
X143582826Y-109527688D02*
X143686630Y-109592278D01*
X143696680Y-109600257D01*
X143838200Y-109713833D01*
X143700488Y-109766703D01*
X143521438Y-109814715D01*
X143306427Y-109843935D01*
X143100069Y-109850527D01*
X142949200Y-109831326D01*
X142866060Y-109800682D01*
X142874124Y-109775604D01*
X142915254Y-109757761D01*
X143042987Y-109728441D01*
X143128156Y-109722000D01*
X143236045Y-109699826D01*
X143283745Y-109664168D01*
X143279234Y-109637333D01*
X143372533Y-109637333D01*
X143379506Y-109667533D01*
X143406400Y-109671200D01*
X143448214Y-109652613D01*
X143440266Y-109637333D01*
X143379978Y-109631253D01*
X143372533Y-109637333D01*
X143279234Y-109637333D01*
X143278136Y-109630804D01*
X143191459Y-109631434D01*
X143121643Y-109642721D01*
X143000611Y-109660138D01*
X142963485Y-109648755D01*
X142986092Y-109615400D01*
X143070572Y-109572007D01*
X143215262Y-109533378D01*
X143301772Y-109519188D01*
X143469337Y-109506362D01*
X143582826Y-109527688D01*
G36*
X143404255Y-108779616D02*
G01*
X143418413Y-108869455D01*
X143373093Y-109007433D01*
X143280813Y-109170004D01*
X143154091Y-109333616D01*
X143058593Y-109429900D01*
X142910132Y-109553286D01*
X142815022Y-109610298D01*
X142779168Y-109599613D01*
X142808476Y-109519908D01*
X142831893Y-109480700D01*
X142916289Y-109358101D01*
X143031565Y-109203617D01*
X143093183Y-109125100D01*
X143177964Y-109007801D01*
X143216939Y-108929390D01*
X143209042Y-108909200D01*
X143154453Y-108947847D01*
X143060597Y-109050417D01*
X142945385Y-109196847D01*
X142914620Y-109238963D01*
X142802383Y-109389821D01*
X142713715Y-109499365D01*
X142663716Y-109549251D01*
X142658609Y-109549942D01*
X142650254Y-109479356D01*
X142680599Y-109351405D01*
X142737840Y-109196887D01*
X142810174Y-109046595D01*
X142885796Y-108931324D01*
X142902967Y-108912447D01*
X143039886Y-108811368D01*
X143191611Y-108751424D01*
X143326023Y-108741125D01*
X143404255Y-108779616D01*
G37*
X143404255Y-108779616D02*
X143418413Y-108869455D01*
X143373093Y-109007433D01*
X143280813Y-109170004D01*
X143154091Y-109333616D01*
X143058593Y-109429900D01*
X142910132Y-109553286D01*
X142815022Y-109610298D01*
X142779168Y-109599613D01*
X142808476Y-109519908D01*
X142831893Y-109480700D01*
X142916289Y-109358101D01*
X143031565Y-109203617D01*
X143093183Y-109125100D01*
X143177964Y-109007801D01*
X143216939Y-108929390D01*
X143209042Y-108909200D01*
X143154453Y-108947847D01*
X143060597Y-109050417D01*
X142945385Y-109196847D01*
X142914620Y-109238963D01*
X142802383Y-109389821D01*
X142713715Y-109499365D01*
X142663716Y-109549251D01*
X142658609Y-109549942D01*
X142650254Y-109479356D01*
X142680599Y-109351405D01*
X142737840Y-109196887D01*
X142810174Y-109046595D01*
X142885796Y-108931324D01*
X142902967Y-108912447D01*
X143039886Y-108811368D01*
X143191611Y-108751424D01*
X143326023Y-108741125D01*
X143404255Y-108779616D01*
D12*
%TO.C,J3*%
X146390000Y-115750000D02*
X146890000Y-115500000D01*
X146390000Y-115250000D02*
X146390000Y-115750000D01*
X146890000Y-115500000D02*
X146390000Y-115250000D01*
D10*
X150850000Y-113600000D02*
X150850000Y-114600000D01*
X150850000Y-116400000D02*
X150850000Y-117400000D01*
%TO.C,J2*%
X106000000Y-117500000D02*
X108000000Y-115500000D01*
X106000000Y-116500000D02*
X106000000Y-117500000D01*
X104000000Y-116500000D02*
X106000000Y-116500000D01*
X104000000Y-114500000D02*
X104000000Y-116500000D01*
X106000000Y-114500000D02*
X104000000Y-114500000D01*
X106000000Y-113500000D02*
X106000000Y-114500000D01*
X108000000Y-115500000D02*
X106000000Y-113500000D01*
X108950000Y-110500000D02*
X109500000Y-110500000D01*
X108950000Y-120500000D02*
X109500000Y-120500000D01*
X116500000Y-120500000D02*
X116000000Y-120500000D01*
X116500000Y-110500000D02*
X116500000Y-120500000D01*
X116000000Y-110500000D02*
X116500000Y-110500000D01*
X112250000Y-120500000D02*
X113500000Y-120500000D01*
X112250000Y-110500000D02*
X113500000Y-110500000D01*
X108950000Y-110500000D02*
X108950000Y-120500000D01*
D12*
%TO.C,C6*%
X125040580Y-115210000D02*
X124759420Y-115210000D01*
X125040580Y-114190000D02*
X124759420Y-114190000D01*
%TO.C,R3*%
X133880000Y-111553641D02*
X133880000Y-111246359D01*
X133120000Y-111553641D02*
X133120000Y-111246359D01*
%TO.C,C1*%
X131942164Y-111210000D02*
X132157836Y-111210000D01*
X131942164Y-110490000D02*
X132157836Y-110490000D01*
%TO.C,C12*%
X135240000Y-121257836D02*
X135240000Y-121042164D01*
X135960000Y-121257836D02*
X135960000Y-121042164D01*
%TO.C,R7*%
X117630000Y-117903641D02*
X117630000Y-117596359D01*
X116870000Y-117903641D02*
X116870000Y-117596359D01*
%TO.C,R6*%
X118153641Y-114980000D02*
X117846359Y-114980000D01*
X118153641Y-114220000D02*
X117846359Y-114220000D01*
%TO.C,Y1*%
X136250000Y-122150000D02*
X140250000Y-122150000D01*
X136250000Y-118850000D02*
X136250000Y-122150000D01*
%TO.C,U4*%
X138505000Y-113010000D02*
X139230000Y-113010000D01*
X139230000Y-113010000D02*
X139230000Y-113735000D01*
X135735000Y-117230000D02*
X135010000Y-117230000D01*
X135010000Y-117230000D02*
X135010000Y-116505000D01*
X138505000Y-117230000D02*
X139230000Y-117230000D01*
X139230000Y-117230000D02*
X139230000Y-116505000D01*
X135735000Y-113010000D02*
X135010000Y-113010000D01*
%TO.C,U3*%
X132510000Y-117635000D02*
X132510000Y-118110000D01*
X132510000Y-118110000D02*
X132035000Y-118110000D01*
X127290000Y-113365000D02*
X127290000Y-112890000D01*
X127290000Y-112890000D02*
X127765000Y-112890000D01*
X127290000Y-117635000D02*
X127290000Y-118110000D01*
X127290000Y-118110000D02*
X127765000Y-118110000D01*
X132510000Y-113365000D02*
X132510000Y-112890000D01*
%TO.C,U2*%
X122150000Y-114390000D02*
X120350000Y-114390000D01*
X120350000Y-117610000D02*
X122800000Y-117610000D01*
%TO.C,U1*%
X126080000Y-111440000D02*
X125150000Y-111440000D01*
X122920000Y-111440000D02*
X123850000Y-111440000D01*
X122920000Y-111440000D02*
X122920000Y-113600000D01*
X126080000Y-111440000D02*
X126080000Y-112900000D01*
%TO.C,R5*%
X138653641Y-117870000D02*
X138346359Y-117870000D01*
X138653641Y-118630000D02*
X138346359Y-118630000D01*
%TO.C,R4*%
X139380000Y-111653641D02*
X139380000Y-111346359D01*
X138620000Y-111653641D02*
X138620000Y-111346359D01*
%TO.C,R2*%
X130946359Y-109780000D02*
X131253641Y-109780000D01*
X130946359Y-109020000D02*
X131253641Y-109020000D01*
%TO.C,R1*%
X125453641Y-110180000D02*
X125146359Y-110180000D01*
X125453641Y-109420000D02*
X125146359Y-109420000D01*
%TO.C,LD2*%
X129385000Y-111550000D02*
X129385000Y-109265000D01*
X129385000Y-109265000D02*
X127915000Y-109265000D01*
X127915000Y-109265000D02*
X127915000Y-111550000D01*
%TO.C,LD1*%
X127835000Y-111550000D02*
X127835000Y-109265000D01*
X127835000Y-109265000D02*
X126365000Y-109265000D01*
X126365000Y-109265000D02*
X126365000Y-111550000D01*
%TO.C,J1*%
X125010000Y-118370000D02*
X125010000Y-119500000D01*
X124250000Y-118370000D02*
X125010000Y-118370000D01*
X124945000Y-121077530D02*
X124945000Y-121900000D01*
X124945000Y-120260000D02*
X124945000Y-120462470D01*
X124813471Y-120260000D02*
X124945000Y-120260000D01*
X123543471Y-120260000D02*
X123686529Y-120260000D01*
X123490000Y-120063471D02*
X123490000Y-120206529D01*
X123490000Y-118370000D02*
X123490000Y-118936529D01*
X124945000Y-121900000D02*
X118475000Y-121900000D01*
X123490000Y-118370000D02*
X118475000Y-118370000D01*
X118475000Y-119807530D02*
X118475000Y-120462470D01*
X118475000Y-121077530D02*
X118475000Y-121900000D01*
X118475000Y-118370000D02*
X118475000Y-119192470D01*
%TO.C,FB1*%
X119640000Y-111850378D02*
X119640000Y-112649622D01*
X120760000Y-111850378D02*
X120760000Y-112649622D01*
%TO.C,F1*%
X117290000Y-111990455D02*
X117290000Y-111009545D01*
X119110000Y-111990455D02*
X119110000Y-111009545D01*
%TO.C,C18*%
X136809420Y-111260000D02*
X137090580Y-111260000D01*
X136809420Y-110240000D02*
X137090580Y-110240000D01*
%TO.C,C17*%
X145140000Y-114392164D02*
X145140000Y-114607836D01*
X145860000Y-114392164D02*
X145860000Y-114607836D01*
%TO.C,C16*%
X144107836Y-114640000D02*
X143892164Y-114640000D01*
X144107836Y-115360000D02*
X143892164Y-115360000D01*
%TO.C,C15*%
X142892164Y-118360000D02*
X143107836Y-118360000D01*
X142892164Y-117640000D02*
X143107836Y-117640000D01*
%TO.C,C14*%
X141260000Y-119992164D02*
X141260000Y-120207836D01*
X140540000Y-119992164D02*
X140540000Y-120207836D01*
%TO.C,C13*%
X142892164Y-117360000D02*
X143107836Y-117360000D01*
X142892164Y-116640000D02*
X143107836Y-116640000D01*
%TO.C,C11*%
X139640000Y-111392164D02*
X139640000Y-111607836D01*
X140360000Y-111392164D02*
X140360000Y-111607836D01*
%TO.C,C10*%
X135392164Y-112360000D02*
X135607836Y-112360000D01*
X135392164Y-111640000D02*
X135607836Y-111640000D01*
%TO.C,C9*%
X137607836Y-111640000D02*
X137392164Y-111640000D01*
X137607836Y-112360000D02*
X137392164Y-112360000D01*
%TO.C,C8*%
X135642164Y-118610000D02*
X135857836Y-118610000D01*
X135642164Y-117890000D02*
X135857836Y-117890000D01*
%TO.C,C7*%
X116890000Y-120142164D02*
X116890000Y-120357836D01*
X117610000Y-120142164D02*
X117610000Y-120357836D01*
%TO.C,C5*%
X122410000Y-111859420D02*
X122410000Y-112140580D01*
X121390000Y-111859420D02*
X121390000Y-112140580D01*
%TO.C,C4*%
X131942164Y-111490000D02*
X132157836Y-111490000D01*
X131942164Y-112210000D02*
X132157836Y-112210000D01*
%TO.C,C3*%
X127807836Y-119610000D02*
X127592164Y-119610000D01*
X127807836Y-118890000D02*
X127592164Y-118890000D01*
%TO.C,C2*%
X129540000Y-111407836D02*
X129540000Y-111192164D01*
X130260000Y-111407836D02*
X130260000Y-111192164D01*
%TO.C,J3*%
D11*
X152111904Y-118242857D02*
X151311904Y-118242857D01*
X151311904Y-117938095D01*
X151350000Y-117861904D01*
X151388095Y-117823809D01*
X151464285Y-117785714D01*
X151578571Y-117785714D01*
X151654761Y-117823809D01*
X151692857Y-117861904D01*
X151730952Y-117938095D01*
X151730952Y-118242857D01*
X152035714Y-116985714D02*
X152073809Y-117023809D01*
X152111904Y-117138095D01*
X152111904Y-117214285D01*
X152073809Y-117328571D01*
X151997619Y-117404761D01*
X151921428Y-117442857D01*
X151769047Y-117480952D01*
X151654761Y-117480952D01*
X151502380Y-117442857D01*
X151426190Y-117404761D01*
X151350000Y-117328571D01*
X151311904Y-117214285D01*
X151311904Y-117138095D01*
X151350000Y-117023809D01*
X151388095Y-116985714D01*
X151692857Y-116376190D02*
X151730952Y-116261904D01*
X151769047Y-116223809D01*
X151845238Y-116185714D01*
X151959523Y-116185714D01*
X152035714Y-116223809D01*
X152073809Y-116261904D01*
X152111904Y-116338095D01*
X152111904Y-116642857D01*
X151311904Y-116642857D01*
X151311904Y-116376190D01*
X151350000Y-116300000D01*
X151388095Y-116261904D01*
X151464285Y-116223809D01*
X151540476Y-116223809D01*
X151616666Y-116261904D01*
X151654761Y-116300000D01*
X151692857Y-116376190D01*
X151692857Y-116642857D01*
X151692857Y-115233333D02*
X151692857Y-114966666D01*
X152111904Y-114852380D02*
X152111904Y-115233333D01*
X151311904Y-115233333D01*
X151311904Y-114852380D01*
X152111904Y-114166666D02*
X151311904Y-114166666D01*
X152073809Y-114166666D02*
X152111904Y-114242857D01*
X152111904Y-114395238D01*
X152073809Y-114471428D01*
X152035714Y-114509523D01*
X151959523Y-114547619D01*
X151730952Y-114547619D01*
X151654761Y-114509523D01*
X151616666Y-114471428D01*
X151578571Y-114395238D01*
X151578571Y-114242857D01*
X151616666Y-114166666D01*
X151578571Y-113442857D02*
X152226190Y-113442857D01*
X152302380Y-113480952D01*
X152340476Y-113519047D01*
X152378571Y-113595238D01*
X152378571Y-113709523D01*
X152340476Y-113785714D01*
X152073809Y-113442857D02*
X152111904Y-113519047D01*
X152111904Y-113671428D01*
X152073809Y-113747619D01*
X152035714Y-113785714D01*
X151959523Y-113823809D01*
X151730952Y-113823809D01*
X151654761Y-113785714D01*
X151616666Y-113747619D01*
X151578571Y-113671428D01*
X151578571Y-113519047D01*
X151616666Y-113442857D01*
X152073809Y-112757142D02*
X152111904Y-112833333D01*
X152111904Y-112985714D01*
X152073809Y-113061904D01*
X151997619Y-113100000D01*
X151692857Y-113100000D01*
X151616666Y-113061904D01*
X151578571Y-112985714D01*
X151578571Y-112833333D01*
X151616666Y-112757142D01*
X151692857Y-112719047D01*
X151769047Y-112719047D01*
X151845238Y-113100000D01*
%TD*%
M02*
